<?xml version="1.0" encoding="UTF-8"?>
<svg version="1.1" viewBox="0 0 2000 2000" width="2000" height="2000" xmlns="http://www.w3.org/2000/svg">
<path transform="translate(0)" d="m0 0h2e3v2e3h-2e3z" fill="#FCFCFC"/>
<path transform="translate(680,634)" d="m0 0h24l21 3 22 2 21 3 43 5 22 2 21 3 45 5 19 2 21 3 138 16 25 3 13 1 13 2 13 1 21 3 30 3 30 4 21 2 13 2 18 2 25 3 22 2 21 3 26 3 12 4 11 7 9 10 7 13 2 9v15l-4 39-2 15-4 34v11l11 13 12 17 10 15 11 18 11 19 10 17 8 16 12 22 10 17 10 16 10 15 11 14 12 13 9 9 13 10 15 9 15 7 21 7 30 7 26 8 24 9 20 9 17 9 19 12 16 12 13 11 19 19 4 5v2h2l10 14 6 8 6 11 11 21 10 26 8 27 7 36 3 23 2 26 1 24v62l-1 28-4 12-5 9-9 10-11 7-9 3-5 1h-555l-1-163h-360v163h-217v-20h-2l-4-16-9-37-8-36-6-25-6-24-7-31-5-21-3 12-14 66-18 82-7 30 12 3 15 8v2l4 1-1 5-1 1h-174l3-2 5-4 2-3 5-29 8-51 3-18 1-3h-130l7 43 5 33 4 23 3 6 7 4v1h-194l-8-2-10-4-10-8-7-8-6-11-3-16-1-19-1-34v-24l1-32 3-40 5-35 6-30 7-26 7-21 10-24 10-20 8-13 9-12 10-13 20-20 12-9 14-9 17-9 24-9 21-5 20-3 33-4 32-7 19-6 12-4 18-8 17-9 12-7 10-7h2v-2l6-4 11-9 3-1v-2l8-7 20-20 1-2h2l2-4 9-11 11-14 13-18 3-5h2l2-5 9-13 8-13 3-6 10-87 5-43 9-77 6-48 3-11 7-11 9-9 10-6z" fill="#D6EFF7"/>
<path transform="translate(720)" d="m0 0h635v710h-13l-30-4-30-3-13-2-21-2-51-6-18-2-34-4-4-1-22-2-4-1-30-3-49-6-63-7-51-6-4-1-30-3-51-6-13-2-30-3-43-5-4-1-22-2-5-1z" fill="#FCFCFC"/>
<path transform="translate(639,928)" d="m0 0 10 1 9 2 32 8 36 11 22 8 18 8 13 8 3 2 1 5-4 7-3 4h-2l-2 4-15 16-3 4h-2l-2 4-13 12-17 16-11 9-13 11v104l16 1 222 26 172 20 50 6 44 5 50 6 3-9 9-10 10-6 8-2 16 1 13 7 8 9 5 12v18l-4 9-6 8-9 7-8 3-10 1-12-2-8-3v12h95l16 1-2 6-56 112h-12v164h-41l-1-163h-360v163h-217v-20h-2l-4-16-9-37-8-36-6-25-6-24-7-31-5-21-3 12-14 66-18 82-7 30 12 3 15 8v2l4 1-1 5-1 1h-57l-1-20v-50l2-142v-98l2-35 1-6v-9l-22-33-11-16-15-22-18-27 1-5 9-14 19-28 8-11 9-12 9-11 6-7 11-8 14-7 14-3h14l1-14 9-3 4-5 3-10-4-1-3-6v-9l3-5h7l5 1 9-3 6-3-2-2-10-4-1-1-10-2-1-3 3-1-5-5 1-5z" fill="#AFDBE6"/>
<path transform="translate(1397,868)" d="m0 0 5 4 13 17 16 23 12 20 11 19 10 17 8 16 12 22 10 17 10 16 10 15 11 14 12 13 9 9 13 10 15 9 15 7 21 7 30 7 26 8 24 9 20 9 17 9 19 12 16 12 13 11 19 19 4 5v2h2l10 14 6 8 6 11 11 21 10 26 8 27 7 36 3 23 2 26 1 24v62l-1 28-4 12-5 9-9 10-11 7-9 3-5 1h-514v-164h12l2-6 56-112-111-1v-12l6 1 6 2 11 1 10-2 8-4 8-7 5-9 2-5 1-16 10-4 9-6 7-7 6-10 4-13 7-58 8-70 10-85 5-43z" fill="#AFDBE6"/>
<path transform="translate(654,912)" d="m0 0h10l10 2 4 4 1 2v9l-3 7-20-4-11-3h-6l-2 1 1 5 4 5h-4l1 2 10 2 14 7-3 3-8 4-9 1-1-1h-7l-2 4v9l3 6 3 1-1 8-4 6-3 3-8 1v14l-3 1h-12l-16 4-14 7-12 10-11 14-10 13-7 10-19 28-10 16 1 5 7 10 10 15 26 38 22 33v9l-2 19-1 27v93l-2 142v70h-117l3-2 5-4 2-3 5-29 8-51 3-18 1-3h-130l7 43 5 33 4 23 3 6 7 4v1h-194l-8-2-10-4-10-8-7-8-6-11-3-16-1-19-1-34v-24l1-32 3-40 5-35 6-30 7-26 7-21 10-24 10-20 8-13 9-12 10-13 20-20 12-9 14-9 17-9 24-9 21-5 20-3 33-4 32-7 19-6 12-4 18-8 17-9 12-7 10-7h2v-2l6-4 11-9 3-1v-2l8-7 20-20 1-2h2l2-4 9-11 11-14 13-18 3-5h2l2-5 9-13 8-13 6-11 8-6 10-3 16-1z" fill="#AFDBE6"/>
<path transform="translate(680,634)" d="m0 0h24l21 3 22 2 21 3 43 5 22 2 21 3 45 5 19 2 21 3 138 16 25 3 13 1 13 2 13 1 21 3 30 3 30 4 21 2 13 2 18 2 25 3 22 2 21 3 26 3 12 4 11 7 9 10 7 13 2 9v15l-4 39-1 3-10-1-38-4-12-2-22-2-17-2-93-11-23-3-29-3-34-4-32-4-17-2-21-2-22-3-36-4-69-8-41-5-29-3-4-1-30-3-4-1-30-3-50-6-24-3-46-5-33-4-5-1v-11l3-20 3-21 4-9 6-9 8-8 10-6z" fill="#0582C2"/>
<path transform="translate(956,1410)" d="m0 0h308l1 1v163h-361v-163z" fill="#AFDBE7"/>
<path transform="translate(639,928)" d="m0 0 10 1 9 2 32 8 36 11 22 8 18 8 13 8 3 2 1 5-4 7-3 4h-2l-2 4-15 16-3 4h-2l-2 4-13 12-17 16-11 9-13 11v146l-10 2-22 2h-40l-35-2-14-1-13-19-10-15-11-16-15-22-18-27 1-5 9-14 19-28 8-11 9-12 9-11 6-7 11-8 14-7 14-3h14l1-14 9-3 4-5 3-10-4-1-3-6v-9l3-5h7l5 1 9-3 6-3-2-2-10-4-1-1-10-2-1-3 3-1-5-5 1-5z" fill="#FDBE4D"/>
<path transform="translate(576,1214)" d="m0 0 48 3h40l22-2h7l3 23 7 71 5 48 1 14 4 111 1 41v31l8 1 15 7 9 6 1 4-3 2h-57v-20h-2l-4-16-9-37-8-36-6-25-6-24-7-31-5-21-3 12-14 66-18 82-7 30 12 3 15 8v2l4 1-1 5-1 1h-57l-1-20v-50l2-142v-98l2-35 2-14z" fill="#0582C2"/>
<path transform="translate(499,508)" d="m0 0h13l16 2 16 5 9 4 14 8 9 7v2l4 2 4 4v2h2l11 15 7 14 5 15 2 10 1 10v14l-2 14-4 14-5 12-9 15-8 10-8 7-10 8-14 8-12 5-15 4-6 1h-26l-15-3-12-4-16-8-16-12-9-9-10-14-8-16-5-16-2-12v-24l3-16 6-16 8-15 11-13 10-10 13-9 16-8 21-6z" fill="#FDBE4D"/>
<path transform="translate(1e3 833)" d="m0 0h13l17 3 13 4v2l5 2 3 1v2l4 1 4 4 4 7 3 3 6 18 1 19-3 29-13 111-2 14-5 16-5 10-5 7h-2v2h-2v2l-10 7-9 4-8 2-17 1-16-2-17-6-11-8-8-8-6-12-3-9-1-6v-21l7-62 9-76 3-16 3-11 7-13 7-8 7-5 11-5z" fill="#79C9E7"/>
<path transform="translate(310,739)" d="m0 0h12l16 4 12 6 4 3v2l4 2 2 4h2l6 8 6 15 2 9 15 2 13 5 10 6 9 9 6 9 5 14 1 9v10l-3 10-4 6-10 7-7 2h-219l-10-4-8-7-4-8-1-3v-15l5-15 7-11 3-4h2v-2l12-9 10-5 16-3 16 1 10 3 7 3v-14l4-13 7-12 2-3h2v-2h2l2-4 14-9 10-4z" fill="#D7F0F8"/>
<path transform="translate(1632,796)" d="m0 0h16l12 2 17 7 10 7 10 9 1 3h2l8 13 5 11 2 10 13-2h18l13 5 6 5 6 10 2 7v15l-5 12-6 7-10 6-8 2h-218l-9-1-10-5-6-5v-2h-2l-4-8-2-6v-18l5-10 6-7 10-5 6-2 8-1h16l16 4 5 1 4-15 7-14 6-8 6-7 12-9 14-7z" fill="#D7F0F8"/>
<path transform="translate(1100,469)" d="m0 0h20l10 2 16 6 13 9 10 10v2h2l9 16 4 11 1 6 11-2h22l10 4 8 7 6 12 1 5v11l-3 10-5 8-3 4h-3v2l-9 4-4 1h-227l-8-3-6-4-5-5-5-7-3-10v-10l2-8 5-9 5-5h2v-2l8-4 8-2h24l14 4 5 2 2-11 4-11 4-8h2l2-5 9-10 11-9 17-8z" fill="#D7F0F8"/>
<path transform="translate(1219,861)" d="m0 0h8l10 3 1 2 5 3 3 5 3 6 2 9-2 13-14 119-2 21 8 3 7 7 2 10-3 10h-2l-2 4-8 4h-7l-3 27-2 7-4 6-9 5h-11l-8-4-6-9-1-3v-9l3-25-30-3-32-4-9-4-5-7-1-3v-13l2-13 9-16 13-23 10-18 16-28 7-12 6-11 4-6 1-4h2l2-6 6-10 4-9 3-3 5-10 10-8z" fill="#79C9E7"/>
<path transform="translate(843,818)" d="m0 0h13l8 3v2l4 1 6 7 2 8v14l-16 136-1 10 6 1 5 3v2h2l4 8v8l-4 9h-2v2l-8 4h-8l-1 14-2 16-4 8-7 6-6 2-10-1-7-4-5-7-1-3v-15l3-21-16-1-49-6-2-2 5-6h2l2-4 9-9 7-8 2-3h2l2-4 4-7v-5l-4-2-16-9-9-4 2-6 16-28 7-12 1-4h2l3-9h2v-3h2l2-6 6-10 4-9h2l2-5 4-9h2l2-5 4-9h2l2-7h2l2-7h2l1-5 3-3h2v-2z" fill="#79C9E7"/>
<path transform="translate(576,1214)" d="m0 0 28 2 7 34 15 54 14 57-15 72-20 91-7 30 12 3 15 8v2l4 1-1 5-1 1h-57l-1-20v-50l2-142v-98l2-35 2-14z" fill="#00658E"/>
<path transform="translate(960,1291)" d="m0 0h54l-2 6-26 52-9 19-20 40-1 3h-52v163h-42v-163l2-1h38l2-6 31-62 9-19 8-16z" fill="#79C9E8"/>
<path transform="translate(1323,1291)" d="m0 0h37l16 1-2 6-56 112h-12v164h-41l-1-166 10-19 8-16 15-31 25-50z" fill="#79C9E8"/>
<path transform="translate(508,509)" d="m0 0h14l17 4 13 5 16 10 8 6v2l4 2 4 4v2h2l11 15 7 14 5 15 2 10 1 10v14l-2 14-4 14-5 12-9 15-8 10-8 7-10 8-14 8-12 5-15 4-6 1h-26l-15-3-12-4-16-8-1-3 16-1 17-4 12-5 11-6 6-4 1-2 5-3 3-1v-2h2v-2h2v-2h2v-2h2l2-4 8-11 5-9 1-4h2l1-5 4-13 2-11v-27l-3-16-7-18-8-14-5-6v-2h-2v-2l-4-2-2-4h-2v-2l-4-2-8-6z" fill="#FEA04F"/>
<path transform="translate(350,1464)" d="m0 0h130l-3 21-6 39-6 36-2 6-5 6-5 2h-77l-8-5-3-6-7-43-8-50z" fill="#FEBF4E"/>
<path transform="translate(639,1362)" d="m0 0 2 2 5 21 9 39 6 24 7 31 8 33 8 36 1 6h2v20h-60l1-6-3-1v-2l-5-2-10-5-12-4 2-12 27-123z" fill="#AEDBE6"/>
<path transform="translate(349,1218)" d="m0 0 3 1 13 23 10 16 15 26 8 14 8 16 9 21 4 17v22l-4 22-10 39-3 16-1 13h-6v-40l-4-16-8-16-8-14-7-10-9-13-4-8-5-15-4-20-1-12v-47l3-29z" fill="#79C9E8"/>
<path transform="translate(1015,1290)" d="m0 0 66 1-2 6-22 44-11 23-10 19-11 23-3 5h-65l-1-3 16-32 11-23 31-62z" fill="#FDBE4D"/>
<path transform="translate(1256,1291)" d="m0 0h67l-9 19-14 28-9 19-24 48-3 5-66 1v-4l11-23 10-19 14-29 22-44z" fill="#FEBF4E"/>
<path transform="translate(1135,1291)" d="m0 0h67l-9 19-8 17-40 80-1 3-7 1h-59l-1-4 26-52 9-19 16-32z" fill="#FDBE4D"/>
<path transform="translate(893,1291)" d="m0 0h67l-2 6-16 32-16 33-24 48-40 1h-26l-1-3 33-66 10-21 9-17z" fill="#FEBF4E"/>
<path transform="translate(1e3 872)" d="m0 0h15l7 3 6 9 1 4v12l-13 112-4 33-3 10-3 5-8 5h-14l-8-4-4-5-2-5v-19l13-112 4-32 3-8h2l2-4z" fill="#D7F0F8"/>
<path transform="translate(1440,1492)" d="m0 0h131l11 26 9 22 1 3-7 1h-166l3-10 12-28 5-13z" fill="#FEBF4E"/>
<path transform="translate(1202,1291)" d="m0 0h54l-9 19-22 44-9 19-8 16-11 21-1 1h-53l4-10 31-62 9-19 8-16z" fill="#0682C2"/>
<path transform="translate(1081,1291)" d="m0 0h54l-9 20-8 15-11 23-31 62h-53l1-5 9-19 9-17 11-23 8-16z" fill="#0682C2"/>
<path transform="translate(1323,1291)" d="m0 0h37l16 1-2 6-56 112-12 1h-42l1-4 16-32 8-17 9-17 11-23 13-26z" fill="#0582C2"/>
<path transform="translate(1399,1543)" d="m0 0h192l20 1v29l-5 1h-42l-167-1v-29z" fill="#7AC9E7"/>
<path transform="translate(960,1291)" d="m0 0h54l-2 6-26 52-9 19-20 40-2 2-53 1 1-5 32-64 9-19 8-16z" fill="#0582C2"/>
<path transform="translate(1355)" d="m0 0h9v712l-14-1v-1h5z" fill="#78C8E7"/>
<path transform="translate(890,1290)" d="m0 0h3l-1 5-8 16-13 27-36 72-1 1h-45v-19l50-100 1-1z" fill="#0682C2"/>
<path transform="translate(520,889)" d="m0 0h16l13 5 9 7 7 9 5 12v16l-2 9-1 7 4 9-15 1-6 5-8 4-10 2h-12l-11-3-10-7-5-5-6-9-3-7-1-6v-12l2-9 5-10 7-8 11-7 5-2z" fill="#0683C2"/>
<path transform="translate(326,1280)" d="m0 0 1 3-1 8v25l3 26 4 16 5 10 15 15 2 1v2l4 2 7 7 8 7v2h2l8 10 6 12 2 16v12l-2 10h-10l-4-16-4-7-10-8-15-11-7-4-4-2v-2l-4-2-15-11-5-4-7-8-7-9-5-12v-22l5-18 8-17 6-10 10-16z" fill="#79C9E8"/>
<path transform="translate(711)" d="m0 0h9v637l-12-1 3-1z" fill="#78C8E7"/>
<path transform="translate(686,1215)" d="m0 0h7l3 23 7 71 5 48 1 14 4 111 1 41v30h-10l-2-41-6-69-5-51-4-40-4-32-4-38-8-65z" fill="#00658E"/>
<path transform="translate(350,1464)" d="m0 0h130l-3 21-6 39-6 36-2 6-5 6-5 2h-32l3-2 6-5 4-16 4-27 6-36 1-8h-93l-2-10z" fill="#FEA04F"/>
<path transform="translate(779,976)" d="m0 0h3l1 5-4 7-3 4h-2l-2 4-15 16-3 4h-2l-2 4-13 12-17 16-11 9-13 11v146l-10 2-14 1-1-3v-30l2-40 2-45 1-21 2-12 4-5 4-3h2v-2l6-4h2v-2l6-4h2v-2l10-8 14-12 8-7 10-9h2v-2l4-4h2v-2l8-7 6-7 8-7z" fill="#FDA63B"/>
<path transform="translate(1280,1209)" d="m0 0 16 1 13 7 8 9 5 12v18l-4 9-6 8-9 7-8 3-10 1-12-2-8-4-9-8-5-9-2-5-1-13 2-9 5-10 8-8 9-5z" fill="#FDBE4D"/>
<path transform="translate(878,1209)" d="m0 0 13 1 9 4 6 4 7 8 4 8 1 3v19l-4 10-8 9h-2v2l-10 5-10 2-12-1-9-4-7-5v-2l-4-2-5-9-2-5v-18l5-12 1-2h2l2-4 7-6 10-4z" fill="#FEBF4E"/>
<path transform="translate(350,1218)" d="m0 0 3 3 14 24 9 15 14 24 8 14 8 16 9 21 4 17v22l-4 22-10 39-3 16-1 13h-4v-25l3-22 3-14v-24l-3-14-5-14-10-19-8-16-8-20-5-14-8-31-6-31z" fill="#49B4D6"/>
<path transform="translate(1376,1292)" d="m0 0h1v115l-1 3-57 1-1-3 50-100z" fill="#FEBF4E"/>
<path transform="translate(654,912)" d="m0 0h10l10 2 4 4 1 2v9l-3 7-20-4-11-3h-6l-2 1 1 5 4 5h-4l1 2 10 2 14 7-3 3-8 4-9 1-1-1h-7l-2 4v9l3 6 3 1-1 8-4 6-3 3-3 1h-7l-10-6-4-4v-2h-2l-4-8-2-8v-14l5-16 7-13 8-6 10-3 16-1z" fill="#00658D"/>
<path transform="translate(1451,1464)" d="m0 0h108l8 19 3 9h-130l6-16z" fill="#0582C2"/>
<path transform="translate(506,1296)" d="m0 0h1l2 21-1 31-4 24-6 17-6 10-8 9-20 13-11 6-15 10-10 9-5 10-2 8h-5v-11l4-15 8-16 7-9 9-10 8-7 13-10 8-8 6-8 7-10 9-20 7-22z" fill="#49B4D6"/>
<path transform="translate(1544,1492)" d="m0 0h27l11 26 9 22 1 3-7 1h-166l3-10 3-3 134-1-15-36z" fill="#FDA63B"/>
<path transform="translate(789,1291)" d="m0 0h51l-9 19-41 82h-1z" fill="#FDBE4D"/>
<path transform="translate(326,1280)" d="m0 0 1 3-1 8v25l3 26 4 16 5 10 15 15 2 1v2l4 2 7 7 8 7v2h2l8 10 6 12 2 16v12l-2 10h-3l-1-16-3-12-5-10v-2h-2l-5-7-14-10-11-8-8-7v-2h-2l-8-10v-2h-2l-10-18-5-16-1-5v-27l4-14 9-14z" fill="#49B4D6"/>
<path transform="translate(1266,1410)" d="m0 0 40 1v163h-12v-143h-29v-20z" fill="#49B4D6"/>
<path transform="translate(1500,1352)" d="m0 0h10l5 4 10 24 11 27 2 6h-65l3-10 9-21 11-27z" fill="#FDA63B"/>
<path transform="translate(504,1302)" d="m0 0h1l-1 11-4 15-7 19-7 14-8 12-12 13-12 10-9 7-7 7-9 12-8 16-4 15-1 11h-3l-1-5v-19l3-16 7-16 18-24h2l2-4 13-15 11-13 9-11 3-5 5-5 11-15z" fill="#79C9E8"/>
<path transform="translate(955,1409)" d="m0 0 1 2h-52v163h-10v-143h-32v-20l2-1h39z" fill="#4CB5D7"/>
<path transform="translate(1461,1441)" d="m0 0h89l9 21v2h-107l3-9z" fill="#FEBF4E"/>
<path transform="translate(1472,1413)" d="m0 0h66l4 8 7 18v2h-88l6-16z" fill="#0582C2"/>
<path transform="translate(664,951)" d="m0 0 9 3 3 6 1 8v12l-4 8-5 5-6 5-4 2-1 12-34-1v-15l9-3 4-5 3-10-4-1-3-6v-9l3-5h7l5 1 9-3z" fill="#FEA04F"/>
<path transform="translate(828,898)" d="m0 0h1v9l-10 85-1 2-14-1-24-3-2-2 4-7v-4h2l2-7h2l2-7h2l3-9h2l1-5h2l3-9h2l1-5h2l1-5 3-6h2l2-5 7-14 4-5z" fill="#D4EEF6"/>
<path transform="translate(1201,943)" d="m0 0h1l-1 15-9 78-6 1-33-4-1-4 15-26 6-11 10-18 12-21z" fill="#D7F0F8"/>
<path transform="translate(1256,1291)" d="m0 0h67l-9 19-5 10h-67l2-6 11-22z" fill="#FDA63B"/>
<path transform="translate(1015,1290)" d="m0 0 66 1-2 6-11 22-1 1h-66l1-5 12-24z" fill="#FDA63B"/>
<path transform="translate(893,1291)" d="m0 0h67l-2 6-8 16-4 7h-66l1-5 8-16z" fill="#FDA63B"/>
<path transform="translate(1135,1291)" d="m0 0h67l-9 19-5 10-3 1-64-1 2-5 11-23z" fill="#FDA63B"/>
<path transform="translate(675,956)" d="m0 0 5 1 32 14 13 8v3l-19 10-28 13-12 5-8 1-1-1v-10l9-6 4-2 6-12v-12z" fill="#D5EFF7"/>
<path transform="translate(960,1291)" d="m0 0h54l-2 6-11 22-1 1h-54l9-19z" fill="#00648C"/>
<path transform="translate(1202,1291)" d="m0 0h54l-9 19-5 10h-54l5-12z" fill="#00648D"/>
<path transform="translate(1081,1291)" d="m0 0h54l-9 20-5 9h-54l9-19z" fill="#00648D"/>
<path transform="translate(890,1290)" d="m0 0h3l-1 5-8 16-4 9h-54l2-6 11-22 1-1z" fill="#00658E"/>
<path transform="translate(1323,1291)" d="m0 0h37l16 1-2 6-11 22h-54l2-6 11-22z" fill="#00638C"/>
<path transform="translate(1565,1543)" d="m0 0h26l20 1v29l-5 1h-35l-6-1z" fill="#49B4D6"/>
<path transform="translate(1544,1492)" d="m0 0h27l11 26 9 22 1 3-7 1-21-1-10-25-10-24z" fill="#FDA63B"/>
<path transform="translate(789,1291)" d="m0 0h51l-9 19-5 10-3 1-34-1z" fill="#FDA63B"/>
<path transform="translate(583,1087)" d="m0 0 1 2-6 82-2 1-18-39-5-11 2-5 8-8 7-8 4-5h2l2-4z" fill="#B0DCE7"/>
<path transform="translate(1056,1868)" d="m0 0h12l8 3 7 7 3 6 1 7-8 5-11 3-16 1-12-2-2-2v-9l3-8 5-6z" fill="#1D272E"/>
<path transform="translate(514,1390)" d="m0 0 1 4-4 14-8 17-9 12-9 10-9 8-14 9h-21l3-6h2v-2l10-7 13-7 11-9 5-5 3-1 2-4 9-10 14-21z" fill="#49B4D6"/>
<path transform="translate(569,1553)" d="m0 0h29l16 6 11 6v2l4 1-1 5-1 1h-57z" fill="#0582C2"/>
<path transform="translate(1491,1367)" d="m0 0 3 2 4 11 10 24 3 7h27v2h-65l3-10 9-21z" fill="#FEBF4E"/>
<path transform="translate(876,1230)" d="m0 0h12l8 7 2 3v12l-4 6-5 4-3 1h-9l-6-3-5-6-1-3v-10l4-6 5-4z" fill="#0682C2"/>
<path transform="translate(1280,1230)" d="m0 0h11l6 4 4 5 1 3v9l-3 6-6 5-3 1h-10l-6-4-4-5-1-2v-12l7-8z" fill="#0582C2"/>
<path transform="translate(1222,1881)" d="m0 0h8l6 4 3 4 1 4v7l-3 6-4 4-3 1h-8l-3-2-1 13h-8v-40h7v2z" fill="#1D272E"/>
<path transform="translate(827,1881)" d="m0 0 8 1 4 3v-3h4v32l-3 5-8 3-9-1-5-3 3-4 5 3h7l4-2 1-8-4 3-5 1-7-2-4-5-1-2v-12l4-6z" fill="#1D272E"/>
<path transform="translate(933,1871)" d="m0 0h5v39h-5l-1-2-5 3h-7l-6-4-3-8 1-10 3-5 6-3h6l5 3z" fill="#1D272E"/>
<path transform="translate(1512,1413)" d="m0 0h26l4 8 7 18v2h-26l-3-5-8-20z" fill="#00658E"/>
<path transform="translate(1533,1464)" d="m0 0h26l8 19 3 9h-26l-6-12-5-13z" fill="#00658E"/>
<path transform="translate(738,1871)" d="m0 0h4v39h-4v-3l-7 4-9-1-5-5-1-3v-12l3-5 3-3 9-1 7 4z" fill="#1D272E"/>
<path transform="translate(959,1871)" d="m0 0h4v14l7-4h6l6 4 3 5v12l-4 6-5 3-9-1-4-3v3h-4z" fill="#1D272E"/>
<path transform="translate(760,685)" d="m0 0h9l6 4 3 4 1 9-3 6-4 4-3 1h-9l-5-3-4-5-1-9 3-6 4-4z" fill="#75C7E6"/>
<path transform="translate(694,677)" d="m0 0h8l6 4 4 7v7l-4 6-5 4h-11l-7-6-2-4v-7l4-7 4-3z" fill="#F4F9FB"/>
<path transform="translate(830,693)" d="m0 0h8l6 3 4 7v9l-4 6-5 3h-10l-6-4-3-5v-10l4-6z" fill="#FDBE4D"/>
<path transform="translate(1158,1881)" d="m0 0h8l5 3 4 5 1 3v7h-20l1 4 7 1 7-2 3 4v2l-6 3h-11l-6-4-3-5-1-8 3-8 5-4z" fill="#1D272E"/>
<path transform="translate(502,1406)" d="m0 0 2 1-10 13-6 7-8 7-11 9-16 9-5 4h-2v2h-2l-3 6h-9l2-5 4-7 9-10 9-5 16-6 10-6 14-12z" fill="#79C9E8"/>
<path transform="translate(1188,1881)" d="m0 0h9l6 4 3 5v9l-19 1 2 3 6 1 6-2 4 5-4 3-3 1h-10l-6-4-3-4-1-3v-8l3-6 5-4z" fill="#1D272E"/>
<path transform="translate(1256,1868)" d="m0 0h8v23l8-7 2-2h10l-12 12 2 4 7 8 3 4h-10l-9-10-1 10h-8z" fill="#1D272E"/>
<path transform="translate(1523,1441)" d="m0 0h27l8 19v3h-26l-5-10-4-11z" fill="#FDA63B"/>
<path transform="translate(602,980)" d="m0 0 3 2v2h2l5 6 11 6v14l-3 1h-12l-9 1 1-16z" fill="#D5EFF6"/>
<path transform="translate(891,1881)" d="m0 0 9 1 5 5 2 4v6l-22 1 2 7 4 1h8l5-2v4l-6 3h-7l-6-3-4-4-1-3v-10l4-6 4-3z" fill="#1D272E"/>
<path transform="translate(759,1881)" d="m0 0 9 1 5 5 2 4v6l-22 1 2 7 3 1h9l5-2v4l-6 3h-7l-6-3-4-4-1-3v-10l3-5 5-4z" fill="#1D272E"/>
<path transform="translate(1116,1867)" d="m0 0h8l2 1v7h-8v6l8 1v7h-9v21h-7v-21h-5l-1-1v-6h6v-9l4-5z" fill="#1D272E"/>
<path transform="translate(1305,1278)" d="m0 0h1v13h-41v-12l6 1 6 2 11 1 10-2z" fill="#7DCAE7"/>
<path transform="translate(1085,1895)" d="m0 0 1 2-5 8-6 5-7 3h-12l-10-5-5-6 2-1 8 1h9l13-2 11-4z" fill="#1D272E"/>
<path transform="translate(726,1885)" d="m0 0h6l5 3 1 2v13l-6 4h-6l-5-5-1-3v-7l4-6z" fill="#F9F5EB"/>
<path transform="translate(969,1885)" d="m0 0 7 1 4 4 1 9-3 6-4 2-7-1-4-3v-14z" fill="#F7F6F0"/>
<path transform="translate(1560,1531)" d="m0 0h27l5 12-7 1-21-1-4-10z" fill="#FEA04F"/>
<path transform="translate(987,1882)" d="m0 0h5l8 19v3h2l1-5 7-17h5l-3 9-12 28-6 3-4-1 1-4h5l1-9-10-24z" fill="#1D272E"/>
<path transform="translate(922,1885)" d="m0 0h6l5 3v16l-5 3h-6l-5-4-1-3v-8l3-5z" fill="#F9F8F4"/>
<path transform="translate(828,1885)" d="m0 0 7 1 4 3v14l-7 4-6-1-4-5-1-8 3-6z" fill="#F7F7F1"/>
<path transform="translate(571,1163)" d="m0 0h2l4 10v15l-2 24-3-1-4-6-1-5z" fill="#FDA73C"/>
<path transform="translate(1141,1881)" d="m0 0h7l1 2-3 5-7 2-1 2-1 18h-8v-28h8 2z" fill="#1D272E"/>
<path transform="translate(786,1881)" d="m0 0h7l6 3 1 2-1 2-5-2h-8l-2 4 6 3 8 3 3 3v6l-5 5-3 1h-7l-6-3v-4l6 2h8l2-2-1-4-12-4-4-4 1-7z" fill="#1D272E"/>
<path transform="translate(862,1881)" d="m0 0 9 1 3 4v24h-4l-1-20-1-3-7-1-5 3-1 21h-4v-28h4l1 2z" fill="#1D272E"/>
<path transform="translate(639,928)" d="m0 0 10 1 7 3-6 12h-8l-4-2v-2l3-1-5-5 1-5z" fill="#FEA34F"/>
<path transform="translate(1244,1882)" d="m0 0h7v28h-7z" fill="#1D272E"/>
<path transform="translate(900,1278)" d="m0 0h3v13h-42l3-3h29l1-7z" fill="#49B4D6"/>
<path transform="translate(1222,1888)" d="m0 0 7 1 3 4v6l-5 5-7-1-3-4 1-8z" fill="#F7F4E9"/>
<path transform="translate(862,1279)" d="m0 0 16 4 16-1v6l-4 1h-28z" fill="#7BC9E7"/>
<path transform="translate(1305,1278)" d="m0 0h1v13h-41v-3h28l2-6z" fill="#49B4D6"/>
<path transform="translate(1374,1296)" d="m0 0h2v24h-13l2-6 8-16z" fill="#FDA63C"/>
<path transform="translate(1051,1879)" d="m0 0 7 1 3 3v6l-3 4-6 1-4-2-2-4 1-6z" fill="#F6F5EF"/>
<path transform="translate(890,1885)" d="m0 0h7l5 4 1 5h-19l3-7z" fill="#F9F7F0"/>
<path transform="translate(758,1885)" d="m0 0h7l5 4 1 5h-19l3-7z" fill="#F9F7F0"/>
<path transform="translate(1081,1894)" d="m0 0 1 4-13 4-9 1h-9l-11-1v-2l2-1h18l16-3z" fill="#F5EACF"/>
<path transform="translate(807,1882)" d="m0 0h4v28h-4z" fill="#1D272E"/>
<path transform="translate(1071,1879)" d="m0 0 5 1 2 2-1 7-7 1-3-4 1-5z" fill="#F8F3E5"/>
<path transform="translate(1057,1854)" d="m0 0 4 1v6l8 1-1 3-18 2-1-3 8-2-2-6z" fill="#1D272E"/>
<path transform="translate(518,928)" d="m0 0h7l1 1v7l-1 2h-5v4h-2z" fill="#97CDE6"/>
<path transform="translate(1078,1867)" d="m0 0 4 1 3 2 2-3 4 1-1 4h-3l3 6v2l-4-1-5-7-4-4z" fill="#1D272E"/>
<path transform="translate(1040,1871)" d="m0 0 2 1-2 5-5 10h-2l1-8-4-1v-4h4v2h3l2-4z" fill="#1D272E"/>
<path transform="translate(1246,1867)" d="m0 0 5 2 1 1v5l-2 2-7-1-1-5z" fill="#1D272E"/>
<path transform="translate(504,928)" d="m0 0h3v8h4v-8h2v10h-8l-1-2z" fill="#B9E2F1"/>
<path transform="translate(1081,1894)" d="m0 0 1 4-13 4h-4l1-3z" fill="#F1EAD3"/>
<path transform="translate(1189,1888)" d="m0 0h7l2 2v3h-12z" fill="#F7F5ED"/>
<path transform="translate(1159,1888)" d="m0 0h6l3 3v2h-12l1-4z" fill="#F6F7F4"/>
<path transform="translate(531,928)" d="m0 0h6v2l-4 1 4 2-1 5h-5l-1-2h5v-2l-5-2z" fill="#D1EBF3"/>
<path transform="translate(971,842)" d="m0 0 2 1-14 14v-3l7-8z" fill="#9DD5E7"/>
<path transform="translate(807,1872)" d="m0 0h4l1 4-4 2-2-1z" fill="#1D272E"/>
</svg>
