<?xml version="1.0" encoding="UTF-8"?>
<svg version="1.1" viewBox="0 0 2048 2048" width="793" height="793" xmlns="http://www.w3.org/2000/svg">
<path transform="translate(0)" d="m0 0h2048v2048h-2048z" fill="#FFFFFF"/>
<path transform="translate(1277,1164)" d="m0 0h431l1 5v111l-1 2-50 1 1 24 49 1 1 15v84l-1 19-2 1-47 1-1 24h48l2 1 1 9v90l-1 19-49 1v24l49 1 1 29v88l-2 2h-49v23h-331l-1-10v-13h-32l-18-1v-112l1-6h49l-1-25-48-1-1-1v-47l-186 1-13 2-9 6-6 7-4 8v16l4 10 8 9 9 4 8 2 121 1 10 5 7 8 3 7 1 11-3 10-9 10-9 4-4 1-133 1-2 9-3 5-6 4-31 1-1 6h-12l-1-11-23-1-1-1v-7l5-1h20v-16h-24l-2-3 1-5 1-1h24v-12h12l1 5 30 1 5 3 4 5 2 5 1 6h135l8-4 4-5 3-7v-11l-4-8-7-6-3-1-123-1-9-2-9-5-8-7-6-11-2-7v-14l4-12 7-9 9-7 7-3 5-1h194v-62l1-2 13-1h36v-25h-48l-2-1v-117l1-1 49-1v-25h-49l-1-1v-113z" fill="#8C847F"/>
<path transform="translate(764,520)" d="m0 0h23l21 4 17 6 16 8 12 8 10 8 12 11 9 11 9 13 6 13 4 17 1 7v17l-3 17-4 12-8 16-9 11-10 8-14 7h-4l1 43 16 3 13 2 31 5 2-5 12-13 9-11 13-15 11-13 1-2h2l4 6 12 14 7 8v2h2l4 5v2h2l1 3v3l13 16 8 11v6l-5 7h-2l-2 5-3 1-2 5-3 3-3 4h-2l-2 5-3 1-2 5-4 4-7 8-4 6-4 4-8 10-6 4-3 16-9 61-5 37-4 23-1 4-12 2-10 6-7 10-2 6-1 13-17 11-11 7-3-3v-2h-2l-6-8-4-5-6-3h-7l-29 7h-9l-21-5-15-5-12-7-26-17-17-11-15-10-3-17-3-18-3-23-1-8h-7l-35-11-43-15-2-4 8-15 12-22 17-33 11-20 8-11 9-7 10-4 6-2 8-2 15-2 13-2 9-2 17-2 8-2 18-2 9-2h2l-2-35-10-7-7-6-10-15-5-9-9-8-6-3-7-8-3-6-9-8-8-10-2-6 1-9 4-5h3l-14-16-4-9-1-3v-14l4-10 7-8 10-5 3-1h11l7 2-3-8 1-9 4-8 9-8 10-4z" fill="#F7753A"/>
<path transform="translate(1277,1164)" d="m0 0h431l1 5v111l-1 2-50 1 1 24 49 1 1 15v84l-1 19-2 1-48 1-329-1-2-1v25h-1v-24h-48l-2-1v-117l1-1 49-1v-25h-49l-1-1v-113z" fill="#8C847F"/>
<path transform="translate(530,424)" d="m0 0h17l9 4 9 7 16 17 18 20 14 15 9 10 15 16 9 10 11 12 3 3v2h2l7 8 12 13 10 10v2l4 1v20l4 10 6 8 8 8v2l-5 3-2 5 1 9 4 7 7 8 3 2v2l4 2 5 9 7 6 7 4 7 7 3 9 2 3-1 4-8 4-23 6-39 9-185 42-43 9h-14l-9-4-8-6-7-10-3-8v-10l4-17 18-57 17-55 40-128 10-30 6-11 9-8z" fill="#FDFCFB"/>
<path transform="translate(1326,1572)" d="m0 0h1v25l72-1h260l49 1 1 29v88l-2 2h-49v23h-331l-1-10v-13h-32l-18-1v-112l1-6h49z" fill="#8C847F"/>
<path transform="translate(911,1054)" d="m0 0 8 1 7 3 1 100 6 156 4 65 9 201 3 63v26h-26l-81-3-1-1-5-279-1-69-5-130-1-45 19-14 5-4 6 5h12l12-5 10-9 1-2v-8l-3-5v-2h-2l-6-7 4-10-2-10 11-7z" fill="#3A3A3A"/>
<path transform="translate(709,1087)" d="m0 0 5 2 27 18 26 13-4 4-11 7-6-1-10-3-10 1-10 4-8 8-4 9v17l8-4 14-9 4-1 5 5 1 6-8 7-11 7-5 2v2l5 2 11 4h12l9-4 8-7 5-10 2-15 13-9 7-4h2l5 5 5 3-1 6-6 23-7 24-6 23-5 17-6 23-15 54-8 29-4 18-11 45-4 14-6 25-5 18-8 33-5 18-13 53-5 18-8 33-5 18-4 17-10-1-24-5-72-14 1-8 20-71 19-67 16-56 24-85 8-27 6-18 17-62 26-94 12-44z" fill="#3A3A3A"/>
<path transform="translate(1326,1307)" d="m0 0h333l49 1 1 15v84l-1 19-2 1-48 1-329-1-2-1v25h-1v-24h-48l-2-1v-117l1-1z" fill="#8C847F"/>
<path transform="translate(609,892)" d="m0 0 10 3 36 12 28 9 7 1 3 13 2 18 4 25 2 10 25 16 23 15 17 11 12 5 22 6 6 1h9l29-7h7l8 5 8 10v2h2l4 4 10-7 15-10h2v-13l4-9 6-8 10-6 13-2 14 5 4 4-10 7-11 7 1 7 3 4h5l19-12h2l1 3v13l-4 9-7 8-8 5-7 2h-11l-8-3-7 1-20 14-3 1 2 10-4 8 2 4 3 3v2h2l4 7v8l-7 8-9 6-8 3h-12l-6-5-17 13-7 5-10 5-10 1-13-2-10-7v-2l-14 8-7 5-2 15-5 10-7 7-8 4-3 1h-12l-11-4-5-3v-2l16-10 7-6-1-6-4-4-6 2-17 11-3 1-1-1v-17l5-10 8-8 10-4 10-1 10 3 6 1 14-9-19-10-11-6-27-18v11h-1l-1-12-4-4-23-15-14-9-39-26-16-10-20-14-10-9-5-8-4-13v-11l5-13 15-28 11-22z" fill="#FBBB93"/>
<path transform="translate(420,1053)" d="m0 0 12 5 31 15 12 7 7 57 1 17 1 33 2 105 2 35 5 33 5 26v3h2v-9l8-50 9-55 5-32 9-65 18-116 2-4 8 26 12 38 20 60 1 6-14 44-19 64-10 34-4 14 9-15 14-18 10-13 13-15 11-9 7-1 5 3 1 1v11l-6 20-10 24-14 28-11 18-26 39-7 10-1 2h-74l-7-8-12-19-15-22-8-12-11-17-11-16-5-7 3-11 11-29 4-9 4 4 10 17 15 29 7 15-3-20-8-32-14-49 19-58 11-37-5-2-10-6-9-3h-11l-1-1z" fill="#F0E2D8"/>
<path transform="translate(402,1515)" d="m0 0h183l4 2v7l-22 78-8 28-1 5 10 1 83 16 2 16 3 5 3 3v8l-9 45-3 7-4 2-14-2-140-27-9-3-1-2-3 1h-9l-16-6-13-7-12-11-7-10-5-10-3-11-3-26-6-96z" fill="#F0E2D8"/>
<path transform="translate(764,520)" d="m0 0h23l21 4 17 6 16 8 12 8 10 8 12 11 9 11 9 13 6 13 4 17 1 7v17l-3 17-4 12-8 16-9 11-10 8-14 7h-4l1 45-3 12-5 8-9 8-9 4-4 1h-9l-9-2-11-6-7-8-4-10-1-7-1-2h2l-2-35-10-7-7-6-10-15-5-9-9-8-6-3-7-8-3-6-9-8-8-10-2-6 1-9 4-5h3l-14-16-4-9-1-3v-14l4-10 7-8 10-5 3-1h11l7 2-3-8 1-9 4-8 9-8 10-4z" fill="#FBBA91"/>
<path transform="translate(1564,673)" d="m0 0h14l18 4 12 5 13 9 8 8 3 4v2h2l10 19 6 20 3 19 1 11v45l-3 25-4 14-7 17-9 13-12 12-13 8-12 5-15 3h-13l-13-2-14-5-15-9v-2l-4-2-7-7-10-15-5-11-5-17-3-15-1-11v-49l3-25 5-20 7-16 8-11 12-12 14-8 12-4z" fill="#030303"/>
<path transform="translate(1358,674)" d="m0 0h31l12 3 16 8 12 10 8 10 8 13 7 19 4 21 2 23v30l-2 21-4 23-8 19-8 12-9 10-12 9-12 6-9 3-6 1h-27l-14-4-13-7-8-6-5-5-9-10-8-14-6-16-4-19-1-8v-60l4-27 5-17 8-16 8-10 5-5h2v-2l14-9 14-5z" fill="#030303"/>
<path transform="translate(886,771)" d="m0 0 5 1-5 65-3 36-1 3h11v2l5 1 10 19 6 12 8 11 15 15 4 2-2 19-6 36-1 4-12 2-10 6-7 10-2 6-1 13-17 11-11 7-3-3v-2h-2l-6-8-4-5-6-3h-7l-29 7h-9l-21-5-15-5-12-7-26-17-17-11-15-10-3-17-1-5v-7l13-19 6-10 8-17 9-25 5-5 3-2h9l-2-6-9-50-7-38-1-6 5-2 2 7 5 25 12 65v5h122l1-17 7-82z" fill="#3B3A39"/>
<path transform="translate(813,504)" d="m0 0 9 1 5 5 9-2 9 1 7 7 6 9 5-1h7l7 8 10 16 10 19 5 11 21 8 30 11 38 14 40 15 29 11 15 8 7 8 6 12 1 6v11l-5 13-11 18-8 9-9 11-24 28-11 13-2 5h-2v6l-2-1v-6l-10-13-11-14-1-3 1-3h-2l-4-5v-2h-2l-9-11-13-15-1-4h-2l-2 4-12 14-11 13-12 14-10 12-1 2-13-1-18-3-13-2-16-3-1-1v-43l8-3 13-7 9-8 9-13 7-16 4-16 1-8v-17l-3-17-4-12-7-13-11-14-11-12-14-11-14-9-16-8-19-6-17-3v-1l7-1 2-2 9-2 2-7z" fill="#FBBB93"/>
<path transform="translate(1140,677)" d="m0 0h99l10 3 6 5 3 7v8l-4 8-8 6-5 1h-84l-5 32-3 19 13-6 13-4 6-1h19l12 3 12 5 11 7 10 9 1 3h2l7 11 6 13 3 12v28l-4 16-8 16-9 12-9 8-11 7-10 5-12 4-11 2h-24l-14-2-15-5-11-6-10-9-7-7-6-10-4-10-1-6v-8l3-7h2v-2l8-5h11l8 5 5 6 8 15 9 10 10 6 9 3h13l13-4 9-7 3-4h2l2-6 4-10 2-12v-15l-4-15-6-10-8-7-8-4-8-2h-16l-10 3-16 11-11 7-5 2h-7l-8-3-6-7-2-3v-13l15-85 4-11 2-4 8-6z" fill="#030303"/>
<path transform="translate(764,520)" d="m0 0h23l21 4 17 6 16 8 12 8 10 8 12 11 9 11 9 13 6 13 4 17 1 7v17l-3 17-4 12-8 16-9 11-10 8-11 6-4-1 5-5 7-10 5-11 3-12 1-13 10-3 6-7 2-4v-10l-6-9-8-4h-3l-6 24-2 4-4-2-6-9-4-10v-3h-25l-10 4-3-1 6-4 6-2 7-1h8l10 2-2-5v-4l-10 3-6 1h-18l-18-3-18-6-17-9-11-8-5 5-5 11-1 4v8l4 27v5h-2l-2-16-8 3-7 6-2 5-1 6-4-1-5-5-9-11-2-6 1-9 4-5h3l-14-16-4-9-1-3v-14l4-10 7-8 10-5 3-1h11l7 2-3-8 1-9 4-8 9-8 10-4z" fill="#954D14"/>
<path transform="translate(530,410)" d="m0 0h18l12 4 9 6 12 11 7 8 15 16 12 13 9 10 14 15 16 17 36 39 11 13v2l2 1-6 9-2 2v-2l-4-1-7-8-12-12-7-8-3-3v-2h-2l-7-8-15-16-7-8-14-15-12-13-11-12-12-13-7-8-13-14-9-6-6-2h-17l-10 4-8 7-8 16-10 31-15 48-21 67-17 55-15 48-8 27-1 6v10l4 10 7 9 9 6 6 2h14l48-10 100-23 80-18 43-10 19-5 8-4-1-4-3-6 1-3 8 14 7 9 5 5-4-2-4 1-17 7-30 7-90 20-158 35-10 2h-17l-10-3-11-6-8-8-8-14-3-9v-17l8-27 20-64 18-57 13-44 15-47 14-45 8-16 7-8 9-6 11-4z" fill="#F0E1D7"/>
<path transform="translate(1568,706)" d="m0 0h7l10 3 8 5 6 8 5 11 3 13 3 30v36l-3 28-3 14-6 15-7 8-11 5-4 1h-9l-8-2-9-6-6-9-5-12-3-13-3-28v-37l2-24 4-19 5-12 9-10 8-4z" fill="#FCFBFA"/>
<path transform="translate(1370,706)" d="m0 0h9l8 2 9 6 6 7 6 13 3 16 1 5 1 14v49l-2 21-4 17-5 11-6 8-9 6-8 2h-8l-9-2-8-6-5-6-5-11-4-15-3-28v-41l1-16 3-19 5-15 7-10 9-6z" fill="#FDFBFA"/>
<path transform="translate(547,1652)" d="m0 0 13 1 83 16 12 3 4 4v8l-9 45-3 7-4 2-14-2-140-27-9-3-3-6 1-5 5-5 59-35z" fill="#663207"/>
<path transform="translate(1024,1378)" d="m0 0h100v100h-99l-1-1z" fill="#8D8580"/>
<path transform="translate(1326,1571)" d="m0 0h332v25l-9 1h-322z" fill="#3B3B3B"/>
<path transform="translate(1327,1282)" d="m0 0h330l1 1v25h-331z" fill="#3A3A3A"/>
<path transform="translate(907,1682)" d="m0 0h35l5 3 13 19 7 11 2 6 3 15v8l-5 5-4 1-89 1h-31l-5-3-2-4v-9l6-47 5-5z" fill="#673207"/>
<path transform="translate(1327,1426)" d="m0 0 331 1v25h-331z" fill="#3A3A3A"/>
<path transform="translate(1327,1716)" d="m0 0h331v23h-331z" fill="#3A3A3A"/>
<path transform="translate(898,669)" d="m0 0 5 1 72 24 7 3-2 4-9 10-5 1-3-2v-2h-2l-2 4-12 14-11 13-12 14-10 12-1 2-13-1-18-3-13-2-16-3-1-1v-43l8-3 13-7 9-8 9-13z" fill="#FDFBFA"/>
<path transform="translate(1082,1517)" d="m0 0h194v6l-186 1-13 2-9 6-6 7-4 8v16l4 10 8 9 9 4 8 2 121 1 10 5 7 8 3 7 1 11-3 10-9 10-9 4-4 1-133 1-2 9-3 5-6 4-31 1-1 6h-12l-1-11-23-1-1-1v-7l5-1h20v-16h-24l-2-3 1-5 1-1h24v-12h12l1 5 30 1 5 3 4 5 2 5 1 6h135l8-4 4-5 3-7v-11l-4-8-7-6-3-1-123-1-9-2-9-5-8-7-6-11-2-7v-14l4-12 7-9 9-7 7-3z" fill="#41403F"/>
<path transform="translate(1064,1391)" d="m0 0h19l11 3 8 6 6 8 3 7v24l-4 10-9 10-7 4-11 2h-14l-13-4-10-9-4-8-2-9v-17l4-11 6-8 10-6z" fill="#3A3A3A"/>
<path transform="translate(461,1469)" d="m0 0h136l5 3v7l-2 3-4 9-3 1h-190l-3-1-1-5v-16z" fill="#F0E2D8"/>
<path transform="translate(1348,1261)" d="m0 0h165l6 2v20h-174v-20z" fill="#FBF6F3"/>
<path transform="translate(1346,1695)" d="m0 0h172l1 1 1 19-1 1h-174l-1-4 1-16z" fill="#FDFAF8"/>
<path transform="translate(1348,1550)" d="m0 0h169l2 1v20h-174v-20z" fill="#FDFBF9"/>
<path transform="translate(1346,1406)" d="m0 0h172l1 1 1 19-1 1h-160l-15-1 1-19z" fill="#FCFAF7"/>
<path transform="translate(932,996)" d="m0 0 13 4 6 4-4 4-17 11 1 7 3 4h5l19-12h2l1 3v13l-4 9-7 8-8 5-7 2h-11l-8-3-7 1-20 14-5 2-12-20 5-4 21-14h2v-13l4-9 6-8 10-6z" fill="#6D7DCC"/>
<path transform="translate(566,524)" d="m0 0h3l12 70 7 38-1 3-18 5-5-1-9-33-14-49-6-22v-4z" fill="#F0E2D8"/>
<path transform="translate(713,571)" d="m0 0h8l14 7 10 7 3 5 5 3-9 18-1 4v8l4 27v5h-2l-2-16-8 3-7 6-2 5-1 6-4-1-5-5-9-11-2-6 1-9 4-5h3l-14-16-4-9-1-3v-14l7-6z" fill="#663207"/>
<path transform="translate(767,1120)" d="m0 0 17 8 1 1v9l-8 5-12 8-2 15-5 10-7 7-8 4-3 1h-12l-11-4-5-3v-2l16-10 7-6-1-6-4-4-6 2-17 11-3 1-1-1v-17l5-10 8-8 10-4 10-1 10 3 6 1z" fill="#6D7CCC"/>
<path transform="translate(1016,1613)" d="m0 0h12l1 5 30 1 5 3 4 5 2 5 1 13-2 10-3 5-6 4-31 1-1 6h-12l-1-11-23-1-1-1v-7l5-1h20v-16h-24l-2-3 1-5 1-1h24z" fill="#8D8580"/>
<path transform="translate(566,1636)" d="m0 0 28 5 57 11 2 16 1 4-27-5-67-13v-6l6-11z" fill="#FAB890"/>
<path transform="translate(1111,1589)" d="m0 0h97l10 5 7 8 3 7 1 11-3 10-9 10-9 4-4 1h-134v-6l136-1 8-4 4-5 3-7v-11l-4-8-7-6-4-2-76-1-1-3h-15z" fill="#050505"/>
<path transform="translate(853,1666)" d="m0 0h20l76 3v1h-6l1 13h-95l2-13z" fill="#F9B78F"/>
<path transform="translate(360,1221)" d="m0 0 9 3 10 9 6 5-6 48-1 4-3-1-5-12-9-20-6-20-1-5v-7l3-3z" fill="#F0E2D8"/>
<path transform="translate(687,917)" d="m0 0h3l3 13 2 18 4 25 1 9-6-2-10-7-16-10-4-5 14-26 8-14z" fill="#FCF9F7"/>
<path transform="translate(1628,960)" d="m0 0h12l6 3 6 7 1 2v14l-6 8-7 4h-11l-6-3-4-4-3-5v-14l3-6z" fill="#FBF8F6"/>
<path transform="translate(580,657)" d="m0 0h10l8 4 4 5 3 7v6l-6 10-10 5h-8l-8-4-6-7-1-3v-9l5-8 6-5z" fill="#F0E2D8"/>
<path transform="translate(1577,1351)" d="m0 0h55l2 1v12l-19 1h-60l-3-1-1-6 1-6z" fill="#FDF5F0"/>
<path transform="translate(1553,1640)" d="m0 0h80l1 1v12h-82l-1-6z" fill="#FCF9F7"/>
<path transform="translate(1552,1207)" d="m0 0h82v13h-82z" fill="#FBF8F5"/>
<path transform="translate(1552,1496)" d="m0 0h82v12l-1 1h-81z" fill="#FBF8F5"/>
<path transform="translate(1654,1630)" d="m0 0h10l7 4 5 8v9l-5 8-5 4-10 1-8-4-5-6-1-2v-10l5-8 4-3z" fill="#FDF9F7"/>
<path transform="translate(1654,1341)" d="m0 0h10l8 5 4 8v7l-4 8-6 5-3 1h-8l-8-4-5-8v-10l5-8z" fill="#FDF9F7"/>
<path transform="translate(1656,1196)" d="m0 0 9 1 6 4 5 8v8l-4 8-7 5h-12l-6-4-4-5-1-2v-10l3-6 6-5z" fill="#FDF9F7"/>
<path transform="translate(1656,1485)" d="m0 0 9 1 6 4 4 5 1 3v8l-3 6-5 5-4 2h-11l-6-4-5-8v-10l4-6 5-4z" fill="#FDF9F7"/>
<path transform="translate(1175,960)" d="m0 0h18l7 6 1 7-3 6-4 3h-2l8 13 1 3h-5l-6-8-3-6-6-1-1 15h-5z" fill="#111"/>
<path transform="translate(1380,960)" d="m0 0h17l6 4 2 4v7l-5 6-2 1 2 6 5 8v2h-5l-6-9-3-5-6-2v15l-5 1z" fill="#141313"/>
<path transform="translate(1477,960)" d="m0 0h16l6 3 3 5v7l-6 7h-2l8 14v2h-6l-7-13v-2l-7-1v16h-5z" fill="#111110"/>
<path transform="translate(1660,960)" d="m0 0h16l6 3 3 5v7l-5 6-2 1 1 4 6 10v2h-5l-6-9-2-6-7-1v16h-5z" fill="#141414"/>
<path transform="translate(1552,960)" d="m0 0h16l6 3 3 5v7l-5 6-3 2 8 13v2h-6l-8-14-6-2-1 16h-4z" fill="#0C0C0C"/>
<path transform="translate(1585,960)" d="m0 0h17l6 4 2 4-1 9-4 4h-3l3 7 5 8v2h-6l-9-15h-5l-1 15h-4z" fill="#0D0D0D"/>
<path transform="translate(1116,1518)" d="m0 0h159v4h-161v-2z" fill="#010101"/>
<path transform="translate(1258,960)" d="m0 0h5l5 12 8 23v3h-5l-3-8-16-1-3 9h-5l3-11 9-25z" fill="#161515"/>
<path transform="translate(1208,960)" d="m0 0h5l6 8 7 11 6 9 1-28h5v38h-5l-7-10-12-18-1 28h-5z" fill="#161616"/>
<path transform="translate(1081,960)" d="m0 0h5l7 11 8 12 3 5 1-28h5v38h-5l-18-27v-2h-2v29h-5z" fill="#0F0F0F"/>
<path transform="translate(1628,960)" d="m0 0h12l6 3 6 7 1 2v14l-6 8-7 4h-11l-6-3-4-4-3-5v-14l3-6zm2 4-6 4-3 5-1 8 3 7 5 5 2 1h7l7-3 4-7v-10l-3-6-4-3-3-1z" fill="#131313"/>
<path transform="translate(1070,1639)" d="m0 0h134v1l-99 1-2 2 101 1v1h-134z" fill="#3B3B3B"/>
<path transform="translate(1326,960)" d="m0 0h11l5 3 2 3v3l-5-1-4-3h-7l-3 3 1 6 16 6 3 4v7l-4 5-5 2h-9l-5-3-2-3v-5l4 1 5 5h6l4-1v-7l-9-4-7-3-3-3v-9l4-5z" fill="#151414"/>
<path transform="translate(1410,960)" d="m0 0h5l4 10 7 19 1 1 11-30h5l-2 9-6 15-4 12-2 2h-5l-4-8-7-20-3-7z" fill="#171616"/>
<path transform="translate(1147,960)" d="m0 0h21v4h-16l1 12 14 1v4h-14v13h15v4h-20l-1-18z" fill="#171616"/>
<path transform="translate(1449,960)" d="m0 0h20v4h-15v13h14v4h-14v13h16v4h-21z" fill="#141414"/>
<path transform="translate(1524,960)" d="m0 0h20v4h-15l1 12 13 1v4h-14v13h15v4h-20z" fill="#151515"/>
<path transform="translate(1352,960)" d="m0 0h20v4h-15v13h14v4h-14l1 12 14 1v4h-20z" fill="#141414"/>
<path transform="translate(1211,1591)" d="m0 0 6 2 7 7 4 9 1 11-3 10-4 4h-3l-4-1 5-8 1-3v-11l-4-8-7-6-3-2z" fill="#3B3A3A"/>
<path transform="translate(1116,960)" d="m0 0h26v4l-10 1-1 33h-4l-1-33-10-1z" fill="#0A0A0A"/>
<path transform="translate(992,1625)" d="m0 0h23l1 1v7l-1 1h-23l-2-3 1-5z" fill="#454443"/>
<path transform="translate(1283,960)" d="m0 0h4v34h14v4h-18z" fill="#0B0B0B"/>
<path transform="translate(1557,964)" d="m0 0h10l4 2 1 2v6l-4 4h-12v-13z" fill="#F2EEEC"/>
<path transform="translate(734,774)" d="m0 0 2 1 7 37-1 2-3-5v1 10h-1l-7-38-1-6z" fill="#4A3B30"/>
<path transform="translate(1589,964)" d="m0 0h11l5 5v5l-5 4h-11z" fill="#F5F0EC"/>
<path transform="translate(1181,964)" d="m0 0h10l5 5-1 6-4 3h-11v-13z" fill="#F2EEEB"/>
<path transform="translate(1665,964)" d="m0 0h10l3 1 2 3v7l-4 3h-11l-1-13z" fill="#F8F4F2"/>
<path transform="translate(1482,964)" d="m0 0h10l4 2 1 2v6l-4 4h-11z" fill="#FAF6F3"/>
<path transform="translate(991,1651)" d="m0 0h24v8h-23l-1-1z" fill="#3A3A3A"/>
<path transform="translate(1067,960)" d="m0 0h5v38h-5z" fill="#1A1919"/>
<path transform="translate(1385,964)" d="m0 0h8l6 2 1 2v6l-4 4h-11z" fill="#FBF8F5"/>
<path transform="translate(1315,1468)" d="m0 0h8l4 4v7l-4 3h-7l-3-3v-9z" fill="#FAA87A"/>
<path transform="translate(1315,1324)" d="m0 0h9l3 3v7l-3 3-6 1-5-3-1-7z" fill="#FAAC80"/>
<path transform="translate(1316,1179)" d="m0 0h7l4 4v6l-3 4h-8l-3-3v-9z" fill="#FAAB7E"/>
<path transform="translate(1315,1612)" d="m0 0 9 1 3 3v7l-3 3h-8l-3-2v-9z" fill="#FAA274"/>
<path transform="translate(1295,1324)" d="m0 0 9 1 1 2v8l-1 2h-11l-1-2v-8z" fill="#F7753A"/>
<path transform="translate(1294,1613)" d="m0 0h9l1 1v11l-1 1h-9l-2-2v-9z" fill="#F7753A"/>
<path transform="translate(1295,1468)" d="m0 0 8 1 1 1v11l-2 1-9-1-1-3v-7z" fill="#F7753A"/>
<path transform="translate(1061,1421)" d="m0 0 6 1 3 4-1 5-4 4-6-1-3-4v-5z" fill="#010101"/>
<path transform="translate(1084,1421)" d="m0 0 6 1 3 4-1 5-3 3-5 1-5-5v-5z" fill="#010101"/>
<path transform="translate(1294,1180)" d="m0 0h8l2 1v11l-1 1h-9l-2-6z" fill="#F7753A"/>
<path transform="translate(775,647)" d="m0 0h6l3 4v7l-2 3h-7l-2-3v-9z" fill="#67340B"/>
<path transform="translate(837,636)" d="m0 0 5 2 2 9-3 4h-6l-3-7 1-5z" fill="#693206"/>
<path transform="translate(1337,1469)" d="m0 0h9l2 2v6l-4 4h-6l-2-2v-9z" fill="#3A3A3A"/>
<path transform="translate(1338,1180)" d="m0 0h7l2 1 1 5-2 6-4 1-5-2-1-1v-9z" fill="#3A3A3A"/>
<path transform="translate(1338,1613)" d="m0 0 7 1 2 2v7l-3 3h-6l-2-1v-10z" fill="#3A3A3A"/>
<path transform="translate(1336,1325)" d="m0 0h9l3 5-2 6-2 1h-6l-2-2z" fill="#3A3A3A"/>
<path transform="translate(1260,968)" d="m0 0 3 4 4 13h-13l1-5z" fill="#F8F5F3"/>
<path transform="translate(1053,1684)" d="m0 0h20v4h-23l-1-3z" fill="#6D7DCD"/>
<path transform="translate(737,803)" d="m0 0 2 1 3 9 2 4 1 9h-2l-1 10h-1l-2-11-1-15z" fill="#332A23"/>
<path transform="translate(810,647)" d="m0 0 5 5 5 12 2 11-13 2v-2l10-2-3-11-5-10v-2h-2z" fill="#613A1A"/>
<path transform="translate(1044,1698)" d="m0 0 4 1 15 15v3l-4-1-4-4v-2h-2v-2l-4-2-5-5z" fill="#6F7EC8"/>
<path transform="translate(971,1574)" d="m0 0 4 1 14 14v3l-4-1-14-14z" fill="#6D7DCD"/>
<path transform="translate(970,1602)" d="m0 0h13v4h-23l-1-3z" fill="#6D7DCD"/>
<path transform="translate(836,624)" d="m0 0h8l9 2v1l-23 1-10 4-3-1 6-4 6-2z" fill="#793C0B"/>
<path transform="translate(793,634)" d="m0 0h2l-2 4-5 2-6 1h-26l1-2 25-1 10-3z" fill="#6E3A0F"/>
<path transform="translate(1031,1703)" d="m0 0h3v24l-3 1z" fill="#6D7DCD"/>
<path transform="translate(999,1563)" d="m0 0h3v24h-3z" fill="#6A79C4"/>
<path transform="translate(1520,768)" d="m0 0v3l-1 4v3l5 2 1 3 4-1-2 4-4-2-9-9 1-2h2l2-4z" fill="#3A3A3A"/>
<path transform="translate(869,693)" d="m0 0h2l-1 5-6 8-1 2 2 1-6 4-4-1 5-5 7-10z" fill="#733B0F"/>
<path transform="translate(1344,687)" d="m0 0 5 1 5 2 3 6-1 2-4-2-8-8z" fill="#3A3A3A"/>
<path transform="translate(999,751)" d="m0 0 7 6 11 14 2 4-3-1-7-9-10-12z" fill="#F7753A"/>
<path transform="translate(881,574)" d="m0 0 5 5 7 10 4 8-1 3-9-16-6-8z" fill="#74390A"/>
<path transform="translate(632,903)" d="m0 0 9 2 16 6v1l-9-1-16-7z" fill="#F7753A"/>
<path transform="translate(810,647)" d="m0 0 5 5 4 9-1 3-2-2-5-10v-2h-2z" fill="#6F390E"/>
<path transform="translate(1358,674)" d="m0 0h8v1l-5 1v5l4 2-2 2-7-7v-2l-3-1z" fill="#424140"/>
<path transform="translate(1315,1468)" d="m0 0h8l3 2-1 2-1-1-9 1-1 7h-1v-9z" fill="#F7753A"/>
<path transform="translate(1315,1324)" d="m0 0h9l-3 2-7 1 1 7 1 2-3-1-1-7z" fill="#F7753A"/>
<path transform="translate(1316,1179)" d="m0 0h7l1 2-9 2-1 7h-1v-9z" fill="#F7753A"/>
<path transform="translate(829,625)" d="m0 0 2 1-1 2-10 4-3-1 6-4z" fill="#763C0D"/>
<path transform="translate(572,1718)" d="m0 0 7 1 2 3-14-2v-1z" fill="#954D14"/>
<path transform="translate(1510,778)" d="m0 0v3l-3 5 2 1h-4l-2-2z" fill="#3A3A3A"/>
<path transform="translate(743,677)" d="m0 0h5l1 1v6l-6-5z" fill="#844618"/>
</svg>
