<?xml version="1.0" encoding="UTF-8"?>
<svg version="1.1" xmlns="http://www.w3.org/2000/svg" width="883" height="98">
<path d="M0 0 C6.11976497 -0.07447293 12.23926278 -0.12875469 18.359375 -0.16479492 C20.43884887 -0.17982843 22.51829131 -0.20026074 24.59765625 -0.22631836 C27.59643334 -0.26294136 30.59478911 -0.27978111 33.59375 -0.29296875 C34.51490601 -0.30845261 35.43606201 -0.32393646 36.38513184 -0.33988953 C45.68204002 -0.34228257 52.11460241 2.28182558 58.94921875 8.6796875 C64.19590455 14.61593772 66.63707018 21.37264474 67.25 29.1875 C66.5902447 39.24876839 62.54872824 47.29229855 55 54 C54.34 54 53.68 54 53 54 C53 54.66 53 55.32 53 56 C53.59683594 56.25394531 54.19367187 56.50789063 54.80859375 56.76953125 C60.61299005 60.02868425 63.83058775 66.94848161 66 73 C66.79158716 76.34834224 67.11982855 79.42657427 67.09765625 82.86328125 C67.09282227 84.19262695 67.09282227 84.19262695 67.08789062 85.54882812 C67.07532227 86.9168457 67.07532227 86.9168457 67.0625 88.3125 C67.05798828 89.24384766 67.05347656 90.17519531 67.04882812 91.13476562 C67.03709254 93.42320487 67.01915861 95.71161086 67 98 C63.7 98 60.4 98 57 98 C56.95101562 96.94941406 56.90203125 95.89882812 56.8515625 94.81640625 C56.45047556 79.21236851 56.45047556 79.21236851 49 66 C41.17184014 59.41722921 31.21007118 59.65873065 21.4375 59.375 C17.663125 59.25125 13.88875 59.1275 10 59 C10 71.87 10 84.74 10 98 C6.7 98 3.4 98 0 98 C0 81.83 0 65.66 0 49 C20.625 48.6875 20.625 48.6875 27.10400391 48.61206055 C28.81154542 48.57975485 30.51906716 48.54637891 32.2265625 48.51171875 C33.10272217 48.50547485 33.97888184 48.49923096 34.8815918 48.49279785 C40.03968627 48.37207649 43.46308593 47.69489429 48 45 C48.99 44.67 49.98 44.34 51 44 C52.12516085 42.16715557 52.12516085 42.16715557 53 40 C53.350625 39.401875 53.70125 38.80375 54.0625 38.1875 C57.02221824 31.28149078 55.55382364 25.71644366 53 19 C51.45871303 15.53513835 50.55781611 14.42312644 47 13 C46.3294458 12.66049316 45.6588916 12.32098633 44.96801758 11.97119141 C40.75417769 10.59234341 36.73283855 10.64297113 32.32421875 10.5859375 C31.3990596 10.56657135 30.47390045 10.5472052 29.52070618 10.5272522 C26.57639683 10.46764746 23.63204798 10.42114752 20.6875 10.375 C18.68683225 10.33680264 16.68618064 10.29774988 14.68554688 10.2578125 C9.7904962 10.16196159 4.89536855 10.07786 0 10 C0 6.7 0 3.4 0 0 Z " fill="#000000" transform="translate(0,0)"/>
<path d="M0 0 C3.3 0 6.6 0 10 0 C16.69374776 11.84151939 23.11783326 23.81778097 29.48074341 35.83905029 C34.69564331 45.69010461 39.96107168 55.50995789 45.33349609 65.27636719 C45.99986084 66.48921387 45.99986084 66.48921387 46.6796875 67.7265625 C47.24792236 68.75644287 47.24792236 68.75644287 47.82763672 69.80712891 C49.27256761 72.50982971 50.62942225 75.25884449 52 78 C52.33 52.26 52.66 26.52 53 0 C56.63 0 60.26 0 64 0 C64 32.34 64 64.68 64 98 C60.04 98 56.08 98 52 98 C44.3888846 84.71664412 37.18594637 71.21677361 29.98046875 57.7109375 C26.7844073 51.72087443 23.57977387 45.73540483 20.375 39.75 C19.76245361 38.60450684 19.14990723 37.45901367 18.51879883 36.27880859 C15.42462398 30.49869815 12.3126268 24.7293188 9.16796875 18.9765625 C8.56098145 17.86442383 7.95399414 16.75228516 7.32861328 15.60644531 C6.17572099 13.49700623 5.01930175 11.38948984 3.85888672 9.28417969 C3.09535889 7.8866748 3.09535889 7.8866748 2.31640625 6.4609375 C1.86724854 5.64415527 1.41809082 4.82737305 0.95532227 3.98583984 C0 2 0 2 0 0 Z " fill="#000000" transform="translate(188,0)"/>
<path d="M0 0 C3.3 0 6.6 0 10 0 C10 32.34 10 64.68 10 98 C6.7 98 3.4 98 0 98 C0 83.48 0 68.96 0 54 C-15.51 54 -31.02 54 -47 54 C-47 50.7 -47 47.4 -47 44 C-31.49 44 -15.98 44 0 44 C0 29.48 0 14.96 0 0 Z " fill="#000000" transform="translate(476,0)"/>
<path d="M0 0 C0.81740158 -0.0066568 1.63480316 -0.0133136 2.47697449 -0.02017212 C4.20248169 -0.03027128 5.92802773 -0.03498999 7.65356445 -0.03466797 C10.27426615 -0.03903136 12.89326884 -0.0753508 15.51367188 -0.11328125 C17.19660888 -0.11915223 18.87955381 -0.12311974 20.5625 -0.125 C21.33672806 -0.13937103 22.11095612 -0.15374207 22.90864563 -0.16854858 C29.54797905 -0.1136413 34.68019344 1.92594446 39.72265625 6.265625 C40.26148438 6.90757812 40.8003125 7.54953125 41.35546875 8.2109375 C41.90976562 8.84773437 42.4640625 9.48453125 43.03515625 10.140625 C46.40143667 15.25373202 46.75595203 20.23790871 46.60546875 26.2109375 C46.59644531 26.89929688 46.58742188 27.58765625 46.578125 28.296875 C46.55479388 29.97671588 46.51893201 31.65637496 46.48046875 33.3359375 C43.18046875 33.3359375 39.88046875 33.3359375 36.48046875 33.3359375 C36.4546875 32.55089844 36.42890625 31.76585938 36.40234375 30.95703125 C36.04359501 24.31202617 35.57020147 19.67531078 31.48046875 14.3359375 C27.43963986 11.28556067 24.39276717 10.95115286 19.38671875 10.9375 C18.71757446 10.93462982 18.04843018 10.93175964 17.35900879 10.92880249 C15.9504308 10.92676958 14.54182407 10.93224524 13.13330078 10.94482422 C10.9866579 10.96089118 8.84189736 10.94495158 6.6953125 10.92578125 C5.32161046 10.92776382 3.94790958 10.93160779 2.57421875 10.9375 C1.33349609 10.94088379 0.09277344 10.94426758 -1.18554688 10.94775391 C-4.75602988 11.36347359 -6.58050602 12.34874072 -9.51953125 14.3359375 C-10.17953125 14.3359375 -10.83953125 14.3359375 -11.51953125 14.3359375 C-11.82890625 15.1196875 -12.13828125 15.9034375 -12.45703125 16.7109375 C-13.51953125 19.3359375 -13.51953125 19.3359375 -14.51953125 21.3359375 C-15.11010869 27.01456675 -14.8132403 31.50516422 -11.51953125 36.3359375 C-7.49333207 40.27063216 -3.69284253 42.37007921 1.48046875 44.3359375 C1.48046875 47.6359375 1.48046875 50.9359375 1.48046875 54.3359375 C-7.2252029 52.95408486 -13.03049892 49.74743578 -19.33203125 43.5859375 C-24.65856333 35.6722327 -26.95661596 27.89129022 -25.51953125 18.3359375 C-23.3443539 11.50241574 -19.63031912 6.1681265 -13.51953125 2.3359375 C-9.08942449 0.09985267 -4.86289428 0.0138704 0 0 Z " fill="#000000" transform="translate(746.51953125,-0.3359375)"/>
<path d="M0 0 C8.48393636 1.34665656 15.12069808 4.45318943 20.875 11 C26.66864484 19.17926331 27.70043958 26.14196145 27 36 C25.22655097 42.01002171 21.77865272 47.64180376 16.36564636 51.01997375 C11.18067953 53.83169515 7.0407945 54.59321735 1.1875 54.53125 C0.37434326 54.5350769 -0.43881348 54.53890381 -1.27661133 54.54284668 C-2.98422495 54.54555093 -4.69188105 54.53829462 -6.39941406 54.52148438 C-8.99378963 54.50005131 -11.58539671 54.52133484 -14.1796875 54.546875 C-15.84896437 54.54423146 -17.51823953 54.53910593 -19.1875 54.53125 C-19.95231689 54.53934692 -20.71713379 54.54744385 -21.50512695 54.55578613 C-27.9214926 54.44562034 -33.06098736 52.47708531 -37.98828125 48.32421875 C-45.20428481 39.4053235 -45.38493209 32.07749009 -45 21 C-41.7 21 -38.4 21 -35 21 C-34.96132813 22.17755859 -34.96132813 22.17755859 -34.921875 23.37890625 C-34.56312626 30.02391133 -34.08973272 34.66062672 -30 40 C-23.9714623 44.75937187 -16.44891311 44.18205876 -9.125 44.1875 C-7.83529297 44.20586914 -7.83529297 44.20586914 -6.51953125 44.22460938 C0.19958366 44.23990326 6.50355063 44.06228426 11.875 39.625 C15.52359679 35.11790985 16.40565407 31.96758729 16.24609375 26.2421875 C15.71191162 21.3751948 13.68378768 18.66824706 10.25 15.3125 C6.85325358 12.89558428 3.87444668 11.47228974 0 10 C0 6.7 0 3.4 0 0 Z " fill="#000000" transform="translate(766,44)"/>
<path d="M0 0 C3.3 0 6.6 0 10 0 C10.00364563 0.76484207 10.00729126 1.52968414 10.01104736 2.31770325 C10.04911002 9.56961382 10.10616668 16.82102097 10.18390274 24.07260609 C10.2232038 27.79964116 10.25547631 31.52644612 10.27099609 35.25366211 C10.28627871 38.85904189 10.32092468 42.46378827 10.36830902 46.0688839 C10.38300457 47.4357416 10.39103413 48.8026898 10.39188385 50.16962624 C10.4049261 60.64222098 11.37283173 71.56519118 19.09375 79.4375 C29.79476922 88.20882723 41.70966742 88.31419992 55 89 C55 91.97 55 94.94 55 98 C51.22943831 98.11798604 47.45936235 98.18783864 43.6875 98.25 C42.63498047 98.28351563 41.58246094 98.31703125 40.49804688 98.3515625 C29.29265252 98.48947505 20.75566949 95.49452411 12.2265625 88.2109375 C5.14451786 81.17859141 0.27404681 71.99374004 -0.12025452 61.93107605 C-0.11803391 60.78746109 -0.11581329 59.64384613 -0.11352539 58.46557617 C-0.11344986 57.16460495 -0.11337433 55.86363373 -0.11329651 54.52323914 C-0.10819062 53.11314861 -0.10297464 51.70305849 -0.09765625 50.29296875 C-0.09578979 48.84279937 -0.09436696 47.39262935 -0.09336853 45.94245911 C-0.0895613 42.13667034 -0.07974642 38.33092009 -0.06866455 34.52514648 C-0.05841177 30.63721233 -0.05386264 26.74927192 -0.04882812 22.86132812 C-0.03812246 15.24086791 -0.0210677 7.62043936 0 0 Z " fill="#000000" transform="translate(618,0)"/>
<path d="M0 0 C0 3.3 0 6.6 0 10 C-0.66386719 10.24234375 -1.32773437 10.4846875 -2.01171875 10.734375 C-9.80262714 13.69150811 -14.76626106 16.55445911 -19 24 C-20.75265301 29.1126228 -21.31934999 33.84127328 -21.3359375 39.20703125 C-21.3459227 40.35518562 -21.3459227 40.35518562 -21.35610962 41.52653503 C-21.3661791 43.13753885 -21.37092842 44.74858389 -21.37060547 46.35961914 C-21.37497008 48.79580066 -21.41132375 51.23015469 -21.44921875 53.66601562 C-21.56107287 67.33929162 -21.56107287 67.33929162 -15.14794922 79.09082031 C-10.68268326 83.43135817 -5.75350201 85.75253828 0 88 C0 91.3 0 94.6 0 98 C-10.62566454 96.48204792 -18.67751207 92.5862941 -25.53125 84.1484375 C-30.88035246 76.32395252 -32.1512689 68.70532727 -32.23828125 59.3671875 C-32.246353 58.5347049 -32.25442474 57.70222229 -32.26274109 56.84451294 C-32.27653851 55.0845139 -32.28727998 53.32448858 -32.29516602 51.56445312 C-32.30665329 49.78214559 -32.32705331 47.99987158 -32.35668945 46.21777344 C-32.60784112 31.09254986 -31.17985473 19.72117294 -20.41015625 8.31640625 C-14.6107044 2.84445286 -7.95371547 0 0 0 Z " fill="#000000" transform="translate(550,0)"/>
<path d="M0 0 C10.02525617 0.71608973 17.08752939 4.70268092 24 12 C32.00888118 22.48251031 32.1867485 33.92647878 32.18530273 46.65063477 C32.18748383 48.79659024 32.20566732 50.94202611 32.22460938 53.08789062 C32.28146387 66.54592433 30.47769509 76.01821572 22.8125 87.1875 C16.16414353 93.83585647 9.20168619 96.6854734 0 98 C0 94.7 0 91.4 0 88 C0.79664063 87.64808594 1.59328125 87.29617187 2.4140625 86.93359375 C10.13191186 83.33756418 15.39161535 80.0925605 19.3125 72.4375 C21.34838698 65.21935524 21.25388988 57.9153374 21.29516602 50.47973633 C21.30665121 49.04376342 21.32704829 47.60783203 21.35668945 46.17211914 C21.56428517 36.08575058 21.30733669 26.63516229 14.921875 18.28125 C10.11373442 14.3378829 5.99437111 11.74381705 0 10 C0 6.7 0 3.4 0 0 Z " fill="#000000" transform="translate(558,0)"/>
<path d="M0 0 C3.3 0 6.6 0 10 0 C10 32.34 10 64.68 10 98 C6.7 98 3.4 98 0 98 C0 65.66 0 33.32 0 0 Z " fill="#000000" transform="translate(411,0)"/>
<path d="M0 0 C3.63 0 7.26 0 11 0 C11 26.4 11 52.8 11 80 C7.37 80 3.74 80 0 80 C0 53.6 0 27.2 0 0 Z " fill="#000000" transform="translate(310,18)"/>
<path d="M0 0 C25.41 0 50.82 0 77 0 C77 3.3 77 6.6 77 10 C51.59 10 26.18 10 0 10 C0 6.7 0 3.4 0 0 Z " fill="#000000" transform="translate(277,0)"/>
<path d="M0 0 C3.3 0 6.6 0 10 0 C10 24.42 10 48.84 10 74 C6.7 74 3.4 74 0 74 C0 49.58 0 25.16 0 0 Z " fill="#000000" transform="translate(681,0)"/>
<path d="M0 0 C23.1 0 46.2 0 70 0 C70 3.3 70 6.6 70 10 C46.9 10 23.8 10 0 10 C0 6.7 0 3.4 0 0 Z " fill="#000000" transform="translate(91,0)"/>
<path d="M0 0 C22.77 0 45.54 0 69 0 C69 3.3 69 6.6 69 10 C46.23 10 23.46 10 0 10 C0 6.7 0 3.4 0 0 Z " fill="#000000" transform="translate(814,0)"/>
<path d="M0 0 C23.1 0 46.2 0 70 0 C70 2.97 70 5.94 70 9 C46.9 9 23.8 9 0 9 C0 6.03 0 3.06 0 0 Z " fill="#000000" transform="translate(91,89)"/>
<path d="M0 0 C22.77 0 45.54 0 69 0 C69 2.97 69 5.94 69 9 C46.23 9 23.46 9 0 9 C0 6.03 0 3.06 0 0 Z " fill="#000000" transform="translate(814,89)"/>
<path d="M0 0 C16.83 0 33.66 0 51 0 C51 3.3 51 6.6 51 10 C34.17 10 17.34 10 0 10 C0 6.7 0 3.4 0 0 Z " fill="#000000" transform="translate(814,44)"/>
<path d="M0 0 C16.83 0 33.66 0 51 0 C51 3.3 51 6.6 51 10 C34.17 10 17.34 10 0 10 C0 6.7 0 3.4 0 0 Z " fill="#000000" transform="translate(91,44)"/>
</svg>
