<?xml version="1.0" encoding="UTF-8"?>
<svg version="1.1" viewBox="0 0 2048 1311" width="793" height="508" xmlns="http://www.w3.org/2000/svg">
<path transform="translate(0)" d="m0 0h2048v1311h-2048z" fill="#E0EBF4"/>
<path transform="translate(0)" d="m0 0h2048v1311h-2048zm753 72-30 3-29 5-28 7-36 12-26 11-23 12-22 14-18 13-14 11-15 13-15 14-8 8-7 8-11 13-13 17-9 13-14 22-12 21-8 16-9 20-11 31-8 30-4 18v8l-6 2-9 7-8 8-8 13-4 13-1 7v720l2 12 5 12 6 9 8 9 14 9-201 2-18 1v6l1 1h1735l2-4-1-4h-135v-2l6-2 11-7 10-9 7-8 8-14 4-13 2-13v-20l-3-10-7-10-9-6-6-2h-144l5-13 4-10 5-13 5-11 6-17 5-11 6-17 5-12 6-16 5-12 6-16 5-11 6-17 5-12 6-16 4-10 5-13 5-11 6-17 5-11 4-11 8-20 5-14 5-12 10-25 5-14 4-10 1-7-3-5-4-4-8-1-6 3-4 5-12 28-13 30-2 3 1-11v-15l1-32 4-44 3-34 1-24v-32l-1-23-3-23-4-16-6-18-11-23-15-24-13-15-1-4 6-8 2-7-1-10-5-10-11-12-15-14-11-9-15-12-19-13-19-12-24-13-23-11-26-10-32-10-21-5-31-5-37-3h-27l-30 2-27 4-25 5-28 8-23 8-23 10-13 6-5-1-27-13-18-11-14-12-17-16-21-21-7-8-12-13-7-8-12-13-11-12-14-15-27-27-8-7-10-9-17-13-20-14-24-14-25-12-29-11-29-8-24-5-31-4-16-1z" fill="#FDFDFC"/>
<path transform="translate(410,416)" d="m0 0h300l13 2 16 8 10 9 6 7 7 14 2 7 1 9v134l-10 4-12 2-3-1h-11l-2 2 1 4 14 6 1 2-3 3-18 2-4-1v-2l-4-2-8-7-4 2-1 8-1 5 5 5 9 6-2 1-13-1-1 5 2 2 19 2h10l33-10h3v529l-2 12-5 12-4 4-20 12-5 4-7 4-5 6-3 1-31 1h-233l-44-1-12-3-13-7-10-9-9-14-4-11-1-5-1-18v-654l1-41 4-14 6-10 9-10 9-7 11-5z" fill="#FDFDFC"/>
<path transform="translate(402,406)" d="m0 0h316l12 2 12 5 13 9 7 8 8 14 4 16v147h-10v-135l-2-13-5-12-7-10-8-8-14-8-9-3-9-1h-300l-14 3-14 7-10 9-8 11-5 13-1 5-1 41v654l1 18 3 11 6 12 8 10 11 8 11 5 9 2 44 1h233l31-1 4-2 4-5 11-7 16-10 7-4 5-11 2-7 1-8 1-529 7-1 2 1v524h2l1-6 6-13 4-12-4-1 1-8 16-41 20-51 12-30 10-23 3-9 5-24 12-36 13-41 21-70 11-38 1-5 12 2 26 4 29 2h33l25-1 2 46 1 87v64l-7 148-1 8h153l-8-48-2-13-2-16-2-9-1-10-2-9-7-44-2-13-3-22-3-16-7-44-2-13-4-25-3-22-3-16-5-32-1-10v-10l5-6 2-1h9l6 4 3 7 33 170 17 88 11 57 3 16 7 36h381l7-15 23-53 16-37 20-46 26-60 22-51 26-60 18-41 8-19 6-5 8-1 5 3 4 4 1 6-4 13-4 10-6 14-12 32-5 12-8 21-4 10-7 17-5 14-5 11-4 12-5 11-6 16-6 15-5 14-5 11-6 17-5 11-6 17-5 12-6 16-5 11-4 12-5 11-6 17-5 12-3 7h144l9 4 7 5 7 11 2 8v20l-3 17-5 13-9 14-11 11-15 10-5 1v2h135l1 4-2 4h-1735l-1-1v-6l18-1 78-1 123-1-11-7-9-8-7-10-5-11-2-7-1-8v-720l3-14 4-9 6-10 11-11 14-8 10-3z" fill="#5A7DBD"/>
<path transform="translate(346,468)" d="m0 0h1l1 186v528l2 12 5 12 6 9 7 8 15 10v1l-220 2v6h-1l-1-8-10-10-8-13-3-9-2-19v-11l2-18 5-19 9-20 12-22 10-17 8-16 8-17 9-26 3-1-7-10-4-9-1-5 1-13 4-10 6-9-5 1-3-9-10-33-12-34-9-31-3-19-1-10v-43l3-27 6-26 10-30 12-25 9-16 8-12 12-16 11-12 17-17 20-15 19-12 21-13 17-12 14-12 3-3 3 1z" fill="#E0EBF4"/>
<path transform="translate(1011,406)" d="m0 0h12l5 4 1 7 11 3 6 5 4 8-1 9-4 2 4 10v7l-1 3-3 2h-6l-6-5-4-6-2-1v11l-3 29-4 16-5 5-4 2h-6l1 15 2 2 23 4 17 5 12 5 10 8 7 11 5 12 10 25 9 21 7 21 3 12 1 8v12l-5 12-7 8-9 4h-19l-9-6-11-12-4-5v-2h-2l1 4v33l-3 22-5 17-2 12-2 1-27 2h-33l-29-2-26-4-12-3-1 8-8 28-21 70-14 45-12 36-5 21-3 13-9 20-12 30-22 56-17 44v5l3 1-2 9-6 15-3 7h-2v-524h-7l-15 4-23 7h-10l-19-2-3-3 1-5 1-1 14 1-10-6-4-5 1-5 1-8 3-3 5 2 7 7 2 1v2l17-1 7-1-1-4-12-4-3-3 1-4 2-2h11l5 1 16-4h13l7 6 4 5 6 4 8 1 51 22 2-6 11-17 12-19 11-17 14-22 8-11 12-6 48-12 4-3v-20l-2-16-10-11-2-5-4-16v-19l3-7 4-2 3-9 8-7 16-1 8-4 10-7z" fill="#FDC046"/>
<path transform="translate(908,759)" d="m0 0 12 2 26 4 29 2h33l25-1 2 46 1 87v64l-7 148-2 28-1 6-5 1 1 35 17 14 13 8 10 4 25 7 10 5 4 7h-82l-36-1-12-1-2-6v-8l4-15 5-13h5l-2-12-3-24-16-1-1-1-2-24-2-46v-24l2-35 4-27 6-24-7-73-1-9-6 14-8 16-4 10-4 8-10 21-9 19-5 25-5 18-4 12-3 7-5 14-7 15-9 20-10 19-9 16-6 12-8 13-6 10-2 3-10-1-24-8-19-7-5-3 1-8 16-41 20-51 12-30 10-23 3-9 5-24 12-36 13-41 21-70 11-38z" fill="#3A3B50"/>
<path transform="translate(550,758)" d="m0 0h22l22 4 16 6 16 8 11 8 10 9 9 9 10 15 8 15 6 21 2 16v12l-2 17-3 10v4l7 6 7 11 4 13v16l-5 15-8 11-8 7-13 6-11 2-14-1-12-4-6-4-8-7-9 2-14 4-12 2h-29l-20-4-16-6-14-7-14-10-10-9-9-11-7-10-8-15-5-14-3-15v-29l4-19 5-13 9-17 9-11 9-10 9-8 17-11 16-7 14-4z" fill="#618FC8"/>
<path transform="translate(1748,858)" d="m0 0h2l12 28 10 20 11 17 12 16 13 16 8 10 13 16 12 15 13 19 9 13 11 19 13 27 10 28 6 21 4 22 2 27-1 29-3 23-3 11-2 1-135-1v-2l10-5 12-9 9-9 8-13 5-13 3-17v-20l-3-10-6-9-9-6-6-2-144-1 1-4 5-14 4-10 5-13 5-11 4-12 5-11 6-17 5-12 6-16 5-12 6-16 5-11 6-17 5-12 6-16 4-10 5-13 5-11 6-17 2-5z" fill="#E0EBF4"/>
<path transform="translate(774,644)" d="m0 0h3l4 4v6l16 12 12 8 16 12 16 10 14 4h9l10-3 10-6 6-5 10-13 11-16 3-6h1l-1 16-4 34-2 30 1 28-8 30-14 46-16 53-13 40-7 21-6 29-8 17-14 35-22 56-17 44v5l3 1-2 9-6 15-3 7h-2z" fill="#E0EBF5"/>
<path transform="translate(1386,297)" d="m0 0h27l37 3 36 6 26 7 36 12 29 13 25 13 23 14 18 13 16 12 10 9 8 7 13 12 8 9 4 9 1 10-3 9-8 9-10 5-8 1-10-3-8-6-10-10-8-7-10-9-17-13-21-14-15-9-14-8-26-12-24-9-23-7-28-6-26-4-11-1h-48l-27 3-26 5-23 6-30 10-26 12-23 12-19 12-15 11-13 10-14 12-19 19-9 6-5 2h-11l-8-3-8-7-4-6-2-14 3-9 6-8 12-13 8-7 11-10 14-11 10-8 24-16 19-11 25-13 28-12 36-12 28-7 30-5 20-2z" fill="#FEC146"/>
<path transform="translate(961,881)" d="m0 0h1l8 84-6 23-4 27-2 35v24l2 46 2 24 16 1 2 7 3 30h-5l-1 5-6 18-1 5v8l1 6 48 1 82 1 1 9h-62l-9-1-25 1h-195l-1-16-4-14-2-5 1-6 9-14 8-16 7-12 12 2 2-4 5-9 10-17 8-15 12-22 9-19 7-15 9-24 4-11 5-15 3-12 4-21 20-42 5-10 3-8 5-10 6-13z" fill="#E0EBF4"/>
<path transform="translate(402,406)" d="m0 0h316l12 2 12 5 13 9 7 8 8 14 4 16v147h-10v-135l-2-13-5-12-7-10-8-8-14-8-9-3-9-1h-300l-14 3-14 7-10 9-8 11-5 13-1 5-1 41v654l1 18 3 11 6 12 8 10 11 8 11 5 9 2 44 1h233l31-1 4-2 4-5 11-7 16-10 7-4 5-11 2-7 1-8 1-529 7-1 2 1v524h2l1-6 6-13 4-11 29 10 13 5-8 16-8 15-8 13 1 6 3 9 2 8v16l-118 1h-512v-1l78-1 123-1-11-7-9-8-7-10-5-11-2-7-1-8v-720l3-14 4-9 6-10 11-11 14-8 10-3z" fill="#5B7FBE"/>
<path transform="translate(1385,433)" d="m0 0h28l22 2 24 4 27 7 20 7 20 9 16 8 19 11 17 12 13 11 8 7 7 8 4 8v13l-5 10-7 6-9 4-9 1-12-5-11-10-14-11-18-12-18-10-23-10-22-7-23-5-25-3h-32l-25 3-25 6-21 7-24 11-16 9-15 10-11 9-11 10-10 7-8 3-10-1-10-5-7-8-3-9v-11l4-9 9-10 14-12 16-12 19-12 24-13 26-11 26-8 29-6 14-2z" fill="#FEC146"/>
<path transform="translate(425,471)" d="m0 0h272l10 4 7 7 5 9 1 4v11l-6 12-10 9-6 2h-275l-10-5-7-8-4-8-1-3v-8l3-10 4-6 8-7z" fill="#B5D5F4"/>
<path transform="translate(1389,681)" d="m0 0h18l12 3 16 8 13 12 4 5 1 2 13 1 13 4 10 6 9 9 7 12 3 11v16l-5 15-6 9-5 6-11 7-9 4-10 2h-9l-14-3-12-6-8 4-11 3h-18l-16-4-12-6-12-10-8-11-5-11-4-15v-18l4-14 7-13 7-9 8-7 10-6 15-5z" fill="#FEC146"/>
<path transform="translate(836,208)" d="m0 0 9 1 4 4 1 10 10 5 4 1 7-5 7 1 6 5-1 5-3 5 1 5 5 10 12 1 5 4v9l-3 3-5 2-1 7 1 11 6 2 4 3v8l-2 4-7 2h-7l-3 10v6l3 8-2 6-3 3h-8l-4-2-5 1-9 6-1 12-3 3-3 1h-7l-7-9h-8l-7 1-2 5-3 5h-9l-5-2-1-12-12-6-5 1-5 3-6-1-5-4-1-5 3-6v-6l-6-9-12-1-4-4-1-6 3-5 7-6-1-11-1-3-9-5-1-2 1-9 6-4 7-2 7-10-1-4-4-5 1-7 4-5h8l6 3 5-2 8-6v-11l5-4 6-1 5 3 3 5 7 1 11-2 1-5z" fill="#FDFDFC"/>
<path transform="translate(1396,549)" d="m0 0 20 1 18 3 16 4 24 10 18 10 14 10 13 12 5 8 3 8-1 10-6 10-6 6-8 3h-15l-10-6-7-7-14-10-16-8-18-6-20-3-24 1-18 4-16 6-16 9-22 18-13 4-11-2-9-6-6-10-1-3v-14l4-8 5-6 8-7 13-10 18-11 20-9 22-7 20-3z" fill="#FEC146"/>
<path transform="translate(1417,120)" d="m0 0h17l12 5 12 11 8 11 8 16 7 18 2 5 35-3h26l8 2 6 4 8 9 2 10-33 1h-300l-35-1 5-5 10-8 12-6 4-1h12l24 7 5 1h23l12-3 4-4 9-15 8-9 10-6 3-1h13l11 4 8 6 8-16 7-11 14-14 12-6z" fill="#B5D5F4"/>
<path transform="translate(1776,730)" d="m0 0 8 1 6 6 1 6-4 13-4 10-6 14-12 32-5 12-8 21-4 10-7 17-5 14-5 11-4 12-5 11-6 16-6 15-5 14-5 11-6 17-5 11-6 17-5 12-6 16-5 11-4 12-5 11-6 17-5 12-4 7h-41l3-9 42-97 20-46 26-60 22-51 26-60 18-41 8-19 6-5z" fill="#3A3C51"/>
<path transform="translate(1031,1233)" d="m0 0 9 1 111 2h552l52-1h145l1 4-2 4h-1735l-1-1v-6l135-1h395l313-1z" fill="#465575"/>
<path transform="translate(1131,740)" d="m0 0h9l6 4 3 7 33 170 17 88 11 57 3 16 6 31v6h-37l-3-13-6-35-2-13-2-16-2-9-1-10-2-9-7-44-2-13-3-22-3-16-7-44-2-13-4-25-3-22-3-16-5-32-1-10v-10l5-6z" fill="#3B3D52"/>
<path transform="translate(1796,209)" d="m0 0h8l14 3 8 4 10 9 6 12 2 10v5l9-2 9 1 7 6 3 6 1 8 8-2h12l6 3 5 5 1 7-3 5-4 3-30 1h-178l-8-1-5-5v-12l8-9 3-1h8l9 4 2-9 6-9 8-6 4-2 8-1 12 3 10 6 3 2 2-12 7-14 7-8 11-7z" fill="#B5D5F4"/>
<path transform="translate(767,642)" d="m0 0 7 1v524h2l1-6 6-13 4-11 29 10 13 5-8 16-8 15-8 13 1 6 3 9 2 8v16h-94v-10l5-6 11-7 16-10 7-4 5-11 2-7 1-8 1-529z" fill="#C35F4A"/>
<path transform="translate(206,256)" d="m0 0h10l12 3 11 6 11 11 9-6 9-4 10 1 10 5 7 8 4 8 3 11 13 1 6 4 7 8 3 7v8l-2 2h-177l-25-1-2-2v-10l3-8 2-3h2v-2l8-5 3-1h7l9 4 6 3 1-9 5-12 6-10 9-9 12-6z" fill="#B5D5F4"/>
<path transform="translate(1477,878)" d="m0 0 6 1 5 6h11l3-5 5-1 5 2 1 1v9l5 2 3 2 11-1 5 3v6l-2 3 1 6 5 5 7 2 2 2v6l-7 7-1 12 5 1 2 2-1 8-1 1-9 1-5 7 1 5v8l-2 3-16-1-5 3-2 9-2 2h-6l-5-4-2-3h-9l-7 6-7-1-2-3v-6l-8-6v-2l-5 3h-8l-2-2v-6l2-5-1-5-2-4-9-2-3-3v-6l5-5 2-3v-7l-6-6-1-5 3-4 10-3 4-6-1-6-1-3 3-5 1-1h7l4 2 9-5 2-9z" fill="#FEFEFD"/>
<path transform="translate(1011,406)" d="m0 0h12l5 4 1 7 11 3 6 5 4 8-1 9-4 2 4 10v7l-1 3-3 2h-6l-6-5-4-6-2-1v11l-3 29-4 16-5 5-4 2h-6l1 15 2 2 10 2-3 5-9 6-10 3h-12l-10-3-9-6-2-4 8-4 1-1v-20l-2-16-10-11-2-5-4-16v-19l3-7 4-2 3-9 8-7 16-1 8-4 10-7z" fill="#C5604A"/>
<path transform="translate(411,1126)" d="m0 0h301l6 7 2 5-1 7-5 6-6 2h-296l-6-3-4-6v-10l5-6z" fill="#B5D5F4"/>
<path transform="translate(413,554)" d="m0 0h298l6 5 3 6v6l-4 6-5 4h-301l-6-5-2-4v-9l4-6 2-2z" fill="#B5D5F4"/>
<path transform="translate(432,1069)" d="m0 0h278l5 3 4 6 1 8-3 6-6 4h-300l-6-4-4-6 1-9 6-7z" fill="#B5D5F4"/>
<path transform="translate(1448,712)" d="m0 0h18l13 4 10 6 9 9 7 12 3 11v16l-5 15-6 9-5 6-11 7-9 4-10 2h-9l-14-3-12-7-8-8-6-9-4-9-2-10v-8l3-15 7-13 8-8 9-6z" fill="#E16850"/>
<path transform="translate(637,903)" d="m0 0h18l17 6 9 6 7 9 5 10 2 8v16l-5 15-8 11-8 7-13 6-11 2-14-1-12-4-6-4-9-8-7-12-2-5-2-8v-15l3-10 6-11 7-8 9-6 9-3z" fill="#E16950"/>
<path transform="translate(724,1236)" d="m0 0h281v1l40 1 7-1v-1h50v2h613l-3 2-7 1-1 1-611 1h-87l-196-1h-411v-2l-4-1 17-1h313z" fill="#21212E"/>
<path transform="translate(816,247)" d="m0 0h20l10 4 9 7 6 8 5 11 1 5v13l-4 11-6 8-5 5-6 5-11 4-11 1-11-2-12-6-8-8-7-14-1-3v-16l4-11 5-8 5-6 10-6z" fill="#E1ECF5"/>
<path transform="translate(767,642)" d="m0 0 7 1 1 525-9 20-3 5-2 3v-2h-2l3-10 2-12 1-529z" fill="#5A7EBD"/>
<path transform="translate(1489,898)" d="m0 0 10 1 10 4 6 4 7 7 5 8 3 10v10l-4 11-9 12-8 6-6 3-5 1h-10l-10-3-10-6-5-5-6-7-3-6-1-5v-12l2-8 4-8 6-7 10-6 9-3z" fill="#E1ECF5"/>
<path transform="translate(595,170)" d="m0 0h7l15 5 8 6 7 10 4 12v11l-3 10-6 9-4 5-8 5-10 3h-15l-11-4-8-6-7-10-4-13v-11l4-11 6-9 7-6 13-5z" fill="#FEC146"/>
<path transform="translate(222,950)" d="m0 0h15l11 4 8 6 6 7 5 11 1 4v10l-3 10-6 10-8 7-10 5-4 1h-13l-10-3-10-7-7-9-4-9-1-5 1-13 4-10 6-8 7-6z" fill="#5A7DBD"/>
<path transform="translate(1011,406)" d="m0 0h12l5 4 1 7 11 3 6 5 4 8-1 9-4 2 4 10v7l-1 3-3 2h-6l-6-5-4-6-2-1-1 4v-2h-6l-16-8-4-1-1 4-10-1-9-2-1 13-4 8-2 2h-10l-3 1-2 3-3-7-1-4v-19l3-7 4-2 3-9 8-7 16-1 8-4 10-7z" fill="#3A3C50"/>
<path transform="translate(1020,1155)" d="m0 0h1l1 26 17 14 13 8 10 4 25 7 10 5 4 7h-82l-36-1-12-1-2-6v-8l4-15 5-13h5l10 4 5 1h13l7-4 1-2z" fill="#393A4E"/>
<path transform="translate(535,843)" d="m0 0h56l1 7v48l-1 1h-56l-1-1v-51z" fill="#FBFCFC"/>
<path transform="translate(475,842)" d="m0 0h24l28 1-1 56h-46l-7-1-1-1-2-17v-10l2-18 2-9z" fill="#FAFBFC"/>
<path transform="translate(607,842)" d="m0 0h44l3 12 1 9v25l-2 10-23 1h-31v-56z" fill="#FAFCFC"/>
<path transform="translate(761,607)" d="m0 0h13l7 6 4 5 7 5-1 6-8 18-3 1-3-2v-2l-10-1-15 4-23 7h-10l-19-2-3-3 1-5 1-1 14 1-10-6-4-5 1-5 1-8 3-3 5 2 7 7 2 1v2l17-1 7-1-1-4-12-4-3-3 1-4 2-2h11l5 1z" fill="#C3614B"/>
<path transform="translate(1020,559)" d="m0 0h13l29 4 2 1-2 13-1 2-6-1-10-4-7-1 3 5 12 9 1 5-4 1-13-10-7-5-1 8 6 4 6 7v2l-5-1-5-3h-4l-1 5 8 7-2 2-9-3-1 4 5 4 15 8 4 4 1 3v7l-2 5-1 1-14-1-23-3-6-2-1-2 16-64 3-10z" fill="#587AB8"/>
<path transform="translate(535,907)" d="m0 0h56l-1 13-5 26-4 13h-36l-4-11-5-27z" fill="#FBFCFC"/>
<path transform="translate(1759,998)" d="m0 0h10l10 4 7 7 4 8 1 4v9l-4 9-7 8-10 5h-12l-9-4-6-5-5-8-1-3v-13l4-9 4-5 10-6z" fill="#E16850"/>
<path transform="translate(475,906)" d="m0 0h21l31 1 4 26 4 19 1 6-23-3-16-4-7-8-9-16-6-16z" fill="#FAFCFC"/>
<path transform="translate(1755,1235)" d="m0 0h145l1 4-2 4h-806v-1l611-1 1-1 7-1-9-1 1-2z" fill="#4D638A"/>
<path transform="translate(1309,999)" d="m0 0h11l10 5 7 7 3 7v12l-3 8-6 7-12 6h-9l-8-3-4-2-7-9-2-5v-15l5-9 9-7z" fill="#DEEAF4"/>
<path transform="translate(1039,310)" d="m0 0h9l9 4 8 7 4 7v15l-5 10-10 7-5 2h-11l-9-4-5-5-5-8-1-4v-11l5-10 8-7z" fill="#DDE9F4"/>
<path transform="translate(546,790)" d="m0 0h34l3 6 5 23 2 15-1 1h-53l1-13 5-24 3-7z" fill="#F9FBFC"/>
<path transform="translate(1038,573)" d="m0 0h7l15 6 8 10 1 5h2l3 9-2 12-7 18-4 4-5 1-6-3-3-3-3-7-9-6-11-6-3-4 2-4 10 3-5-5-3-4 2-5 6 1 8 4-4-6-6-5-3-2 2-8 4 2 16 12h3l-1-5-11-8-3-3z" fill="#B65C4A"/>
<path transform="translate(528,792)" d="m0 0h9l-5 21-4 22h-41l-10-1 5-13 6-11 7-9 4-4z" fill="#F9FBFC"/>
<path transform="translate(590,791)" d="m0 0 19 2 17 3 5 5 7 10 9 17 1 6-34 1h-15l-2-3-6-32z" fill="#FAFCFC"/>
<path transform="translate(820,264)" d="m0 0h11l10 5 5 6 3 7v13l-5 8-7 6-8 2-11-1-9-5-6-8-1-3v-13l4-8 7-6z" fill="#E1ECF5"/>
<path transform="translate(483,653)" d="m0 0h19l8 1v9l-1 1h-28v12h27v11h-27v13l29 1 1 3-1 7-1 1h-40l-1-1v-57z" fill="#FEC146"/>
<path transform="translate(759,1213)" d="m0 0h9l18 3 24 7 1 1v11h-94v-10l5-3 16-5 13-3z" fill="#FCBE46"/>
<path transform="translate(596,667)" d="m0 0h12l8 4 5 6 3 8v12l-6 10-8 5-3 1h-8l-9-3-5-4-4-8-1-4v-9l4-9 5-5z" fill="#FEC146"/>
<path transform="translate(979,1146)" d="m0 0h40l1 8v27l-5 5-4 2h-13l-14-4-2-5-3-27z" fill="#C5604A"/>
<path transform="translate(1228,816)" d="m0 0h12l8 5 5 6 2 5v10l-4 8-7 6-4 2h-12l-7-4-7-8-1-2v-14l6-9 6-4z" fill="#5A7DBD"/>
<path transform="translate(818,257)" d="m0 0h16l7 2 10 9 4 5 2 5v16l-4 10-9 10-9 4-5 1h-10l-9-4-8-6-5-6-4-11v-10l3-9 8-10 9-5zm2 7-10 5-6 7-2 5v13l3 6 4 5 9 5 11 1 9-3 8-7 3-6v-13l-5-10-8-6-5-2z" fill="#FEFEFD"/>
<path transform="translate(1435,735)" d="m0 0 4 1 17 17 4-1 17-17 5 1 2 3-1 5-17 17 2 4 15 15 1 6-3 3-5-1-17-17-4 1-17 17-5-1-2-2 1-5 7-8 10-10-2-4-15-15-1-6z" fill="#FBFCFC"/>
<path transform="translate(758,1194)" d="m0 0h3v4h37l6-1 5 14 2 8v4l-7-1-22-6-14-2h-9l-17 3-18 5-5 1 5-5 10-7 22-13z" fill="#393B4F"/>
<path transform="translate(624,924)" d="m0 0 4 1 8 7 9 9 4-1 15-15 5-1 3 4-1 5-16 16 2 4 14 14 1 6-3 3-5-1-16-16-4 1-15 15-5 1-4-5 3-5 15-15-2-4-14-14-1-6z" fill="#FAFBFC"/>
<path transform="translate(163,1236)" d="m0 0h205l2 4-3 1-35 1h-169z" fill="#21212E"/>
<path transform="translate(972,1224)" d="m0 0 47 1 82 1 1 9h-62l-9-1-25 1h-33l-1-1z" fill="#FABB46"/>
<path transform="translate(452,842)" d="m0 0h14l-1 11-1 7v38h-13l-2-2-2-13v-17l3-17z" fill="#F6F9FB"/>
<path transform="translate(1625,1150)" d="m0 0h78l1 1v8l-1 1h-77l-2-2v-7z" fill="#FCFDFC"/>
<path transform="translate(656,666)" d="m0 0h2v12l-10 4-2 3-1 21-2 6h-11l-1-10v-34h12l1 4 5-3z" fill="#FEC146"/>
<path transform="translate(540,667)" d="m0 0h5v10l-1 2-8 2-4 5-1 26h-12l-1-1v-43h13v4l5-3z" fill="#FEC146"/>
<path transform="translate(1776,1236)" d="m0 0h83l41 1v5l-1 1h-59l-3-1-67-1 1-2h2l1-2z" fill="#232432"/>
<path transform="translate(571,667)" d="m0 0h6v11l-10 4-2 3-1 5-1 21-1 1h-10l-1-1v-43h12v5z" fill="#FEC146"/>
<path transform="translate(1102,1235)" d="m0 0 49 1 552 1v1h-601z" fill="#3A3B4F"/>
<path transform="translate(659,841)" d="m0 0h9l3 7 3 18v19l-2 12-1 1h-9l-1-3 1-7v-24l-3-18z" fill="#F3F7FB"/>
<path transform="translate(1309,999)" d="m0 0h11l10 5 7 7 3 7v12l-3 8-6 7-12 6h-9l-8-3-4-2-7-9-2-5v-15l5-9 9-7zm-1 4-6 3-5 4-5 10 1 12 4 7 8 7 3 1h12l8-4 7-8 2-7-1-10-4-7-7-6-4-2z" fill="#2A2E40"/>
<path transform="translate(1039,310)" d="m0 0h9l9 4 8 7 4 7v15l-5 10-10 7-5 2h-11l-9-4-5-5-5-8-1-4v-11l5-10 8-7zm-1 4-8 4-6 7-2 5v12l4 8 8 7 3 1h12l9-4 5-6 3-8v-9l-5-10-8-6-4-1z" fill="#292C3D"/>
<path transform="translate(621,906)" d="m0 0 3 1-12 9-7 10-4 8-2 8-1 15-2 1h-6l1-8 4-20 3-22 1-1z" fill="#F4F8FB"/>
<path transform="translate(452,906)" d="m0 0h14l3 8 8 20 6 10v2l-9-2-5-4-10-16-7-16z" fill="#F5F9FB"/>
<path transform="translate(1031,1233)" d="m0 0 9 1 62 1v1l-48 1v1l-11 1-41-1v-1l-156-1v-1l160-1z" fill="#455272"/>
<path transform="translate(599,677)" d="m0 0h7l4 4 1 3v12l-4 6-7 1-5-3-2-4v-11l4-7z" fill="#FBFCFC"/>
<path transform="translate(513,767)" d="m0 0 3 1-13 7-4 3-1 4-4 5-5 4-3-1v-2l8-6-6 2v2l-8 6-10 10-4 6h-2l-2 4-6 10-2 5h-2l-1 5-5 16-2 8-1 9-2 1v-11l5-19 9-19 10-14 12-13 12-10 15-9z" fill="#5B80BF"/>
<path transform="translate(481,802)" d="m0 0h3l-2 5-8 16-5 11h-13l2-6 7-12 7-9 4-3z" fill="#F4F8FB"/>
<path transform="translate(548,967)" d="m0 0h29l-1 4-6 9-5 4-6-1-8-9-3-5z" fill="#F3F7FB"/>
<path transform="translate(509,961)" d="m0 0 30 5 8 14v2l-9-2-16-7-12-8-2-3z" fill="#F0F6FA"/>
<path transform="translate(545,767)" d="m0 0h2l-2 6-6 11-24 3h-6l5-5 13-8 12-5z" fill="#F1F6FB"/>
<path transform="translate(560,766)" d="m0 0 7 1 8 9 2 6-28 1-1-2 7-11z" fill="#F6F9FB"/>
<path transform="translate(774,868)" d="m0 0h1l1 293 1 3-1 3h-2z" fill="#B5D5F3"/>
<path transform="translate(614,771)" d="m0 0 6 2 12 7 11 9 13 13 10 15 8 15 6 21 2 16v12l-1 7h-1l-1-22-4-19-4-14-7-14-8-12-1-3h-2v-2l-3-1-4-5v-2h-2l-2-2-1-3h-3v-2l-5-2-13-9-6-4z" fill="#5A7FBE"/>
<path transform="translate(965,490)" d="m0 0h7l3 12 5 5 10 7 11 3-1 2-25 2-1 8h-1l-2-25-1-8z" fill="#3C4057"/>
<path transform="translate(1595,1146)" d="m0 0h8l5 5v7l-3 5-5 2h-5l-5-4-1-8 4-6z" fill="#FDC046"/>
<path transform="translate(579,768)" d="m0 0 7 1 16 7 13 8 1 2-14-1-16-2-7-13z" fill="#F1F6FB"/>
<path transform="translate(441,885)" d="m0 0 2 4 3 16 4 12 10 18 8 11 18 18 13 9 7 2 16 8 6 2v1l-8-1-17-7-16-10-14-12-11-13-9-14-7-15-4-14-1-4z" fill="#5B80BF"/>
<path transform="translate(593,965)" d="m0 0h8l1 9-20 8h-3l2-6 5-10z" fill="#F1F6FA"/>
<path transform="translate(640,799)" d="m0 0 5 3 9 10 8 13 3 6v2l-8 1-13-26-4-7z" fill="#F1F6FB"/>
<path transform="translate(663,898)" d="m0 0h5v3l-2 1-1 4-9-3-11-1h-8v2l-13 3-21-1v-1l16-2 7-2 1-2h28v2h6z" fill="#5A7EBD"/>
<path transform="translate(936,765)" d="m0 0h10l29 2h33l25-1-2 4-3-1h-24l-1 3-2-2h-13l-27-1-23-2z" fill="#262635"/>
<path transform="translate(556,904)" d="m0 0h28l8 1 1 7-4 27-4 14-2 2 1-9 5-26 1-13-41-1v-1z" fill="#5B7FBE"/>
<path transform="translate(1770,1231)" d="m0 0 3 2 118 1v1h-126v-2z" fill="#B7D6F4"/>
<path transform="translate(602,970)" d="m0 0 4 5 3 5v2l-18 6-4 1h-8l2-2 13-3 10-4-1-3-11 4h-5l3-3 10-4h2z" fill="#5D82C0"/>
<path transform="translate(453,912)" d="m0 0 3 3 8 16 8 11 9 4 1 4-10-3-7-8-10-18-2-3z" fill="#5B7FBE"/>
<path transform="translate(458,815)" d="m0 0 1 2-3 5-2 5h-2l-1 5-5 16-2 8-1 9-2 1v-11l5-19 9-19z" fill="#5B7FBE"/>
<path transform="translate(670,829)" d="m0 0 3 1 6 18 3 21v12l-1 7h-1l-1-22-4-19-4-14z" fill="#5B81BF"/>
<path transform="translate(614,793)" d="m0 0h11l5 3 8 10 8 15 3 8-1 3-8-16-9-14-5-5-12-3z" fill="#5B7FBE"/>
<path transform="translate(961,881)" d="m0 0h1l2 19v17l-2-4-2-16-5-1 3-9z" fill="#F0F6FA"/>
<path transform="translate(472,906)" d="m0 0h2l10 25 8 13 1 4-4-2-10-17-4-12-3-7z" fill="#5B7FBE"/>
<path transform="translate(473,802)" d="m0 0h6v2l-6 3-8 10-7 12-1 3h-2l1-6 9-15z" fill="#5B80BF"/>
<path transform="translate(736,1210)" d="m0 0h3v2l-4 3 13-1-2 2-22 6-5 1 5-5 10-7z" fill="#272838"/>
<path transform="translate(534,911)" d="m0 0 2 3 5 30 3 13-3-3-3-9-3-13-1-12-1-4z" fill="#5B80BF"/>
<path transform="translate(597,849)" d="m0 0 2 2 1 8v33h-2l-1-27-1-13z" fill="#5C83C1"/>
<path transform="translate(775,645)" d="m0 0 5 2 1 4-4 3-1 52h-1z" fill="#FEFEFD"/>
<path transform="translate(1008,1229)" d="m0 0 14 1 9 3v1h-25l1-4z" fill="#F6F9FB"/>
<path transform="translate(588,791)" d="m0 0 2 3 4 15 3 17v7l-2-2-3-14-2-11-2-8z" fill="#5B80BF"/>
<path transform="translate(533,790)" d="m0 0h6l-3 15-5 24-2 2v-7l5-24 3-9z" fill="#5B7FBE"/>
<path transform="translate(467,906)" d="m0 0 2 3 9 21 6 12v2l-3-1-8-16-5-13z" fill="#5B80BF"/>
<path transform="translate(506,904)" d="m0 0h20l1 3h-31l-14-1v-1z" fill="#5C83C1"/>
<path transform="translate(448,852)" d="m0 0h1l-1 14v26l-2-3-1-2v-27z" fill="#5B7FBE"/>
<path transform="translate(491,803)" d="m0 0 2 1-8 13-7 16-2 1 1-9 9-17 3-3h2z" fill="#5B7FBE"/>
<path transform="translate(638,800)" d="m0 0 3 1 10 18 4 9-1 4-12-23-4-7z" fill="#5B80BE"/>
<path transform="translate(485,801)" d="m0 0 2 1-10 20-5 9-1-4 8-17z" fill="#5A7FBE"/>
<path transform="translate(642,798)" d="m0 0 4 1 2 5h2l9 12 6 10-1 3-6-9-9-13-7-8z" fill="#5B81BF"/>
<path transform="translate(542,759)" d="m0 0h14v1l-16 2-10 3h-3l-1 2-6-1 1-2 16-4z" fill="#5B81BF"/>
<path transform="translate(596,916)" d="m0 0h1l-1 14-4 20-3 8h-1l1-10 3-10 3-20z" fill="#5C83C1"/>
<path transform="translate(536,768)" d="m0 0 4 1-15 7-11 7-4 1 5-5 13-8z" fill="#5B81BF"/>
<path transform="translate(585,962)" d="m0 0 1 2h5v1h-5l-1 5-5 10h-2l-1 2 1-7z" fill="#5A7FBE"/>
<path transform="translate(1027,454)" d="m0 0 4 2 6 9-2 1-7-1z" fill="#F8FAFB"/>
<path transform="translate(556,766)" d="m0 0h3v2l-5 5-5 8-3-1 4-8 4-5z" fill="#5B7FBE"/>
<path transform="translate(909,759)" d="m0 0 26 5v1h-8l-10-2h-8z" fill="#262634"/>
<path transform="translate(1176,1099)" d="m0 0 2 2 2 8v9h-6l3-1-2-17z" fill="#FBFCFC"/>
<path transform="translate(467,842)" d="m0 0h1v8l-2 12-2 2v-11z" fill="#5B7FBE"/>
<path transform="translate(577,969)" d="m0 0 2 2-6 9-6 5v-3l6-7z" fill="#5A7EBE"/>
<path transform="translate(486,955)" d="m0 0 6 2 7 7v2l-5-2-8-7z" fill="#C4DCF4"/>
<path transform="translate(1293,1022)" d="m0 0h1l2 7 3 5-1 4h-2l-3-6-1-8z" fill="#F4F8FB"/>
<path transform="translate(775,645)" d="m0 0 5 2 1 4-4 3h-2z" fill="#FBFCFC"/>
<path transform="translate(497,784)" d="m0 0h2l-2 4-6 5h-3l2-4z" fill="#C5DDF4"/>
<path transform="translate(1025,766)" d="m0 0h8l-2 4-3-1-20-1v-1z" fill="#2B2B3B"/>
<path transform="translate(677,901)" d="m0 0h1l-1 7-1 3-7-2v-3l5-1 2-1z" fill="#5B81BF"/>
<path transform="translate(991,768)" d="m0 0h27v1h-14l-1 3-2-2h-10z" fill="#21212E"/>
<path transform="translate(458,815)" d="m0 0 1 2-3 5-2 5h-3l2-6 2-4z" fill="#5A7DBD"/>
<path transform="translate(477,817)" d="m0 0 1 4-5 8-2 2 1-6 3-7z" fill="#5B80BF"/>
<path transform="translate(547,768)" d="m0 0 2 1-2 6h-2l-1 5-3 1 1-4z" fill="#5B7FBE"/>
<path transform="translate(642,818)" d="m0 0 3 1 4 10-1 3-6-12z" fill="#5B81BF"/>
<path transform="translate(591,943)" d="m0 0h1v7l-3 8h-1l1-10z" fill="#5A7FBE"/>
<path transform="translate(965,490)" d="m0 0h7v6l-4-2z" fill="#2B2D3E"/>
<path transform="translate(596,957)" d="m0 0h3l1 2v6l-3-1v-4l-7-1v-1z" fill="#5C83C1"/>
</svg>
