<svg width="24" height="24" viewBox="0 0 24 24" fill="none" xmlns="http://www.w3.org/2000/svg">
<path d="M8.25 19.5V22.5" stroke="black" stroke-width="1.5" stroke-linecap="round" stroke-linejoin="round"/>
<path d="M3.75 1.5H12.75C13.1478 1.5 13.5294 1.65804 13.8107 1.93934C14.092 2.22064 14.25 2.60218 14.25 3V22.3125C14.25 22.3622 14.2302 22.4099 14.1951 22.4451C14.1599 22.4802 14.1122 22.5 14.0625 22.5H2.25V3C2.25 2.60218 2.40804 2.22064 2.68934 1.93934C2.97064 1.65804 3.35218 1.5 3.75 1.5V1.5Z" stroke="black" stroke-width="1.5" stroke-linecap="round" stroke-linejoin="round"/>
<path d="M15 9H20.25C20.6478 9 21.0294 9.15804 21.3107 9.43934C21.592 9.72064 21.75 10.1022 21.75 10.5V22.5H14.25V9.75C14.25 9.55109 14.329 9.36032 14.4697 9.21967C14.6103 9.07902 14.8011 9 15 9Z" stroke="black" stroke-width="1.5" stroke-linecap="round" stroke-linejoin="round"/>
<path d="M4.59751 20.2437C4.44218 20.264 4.28438 20.2352 4.14627 20.1612C4.00817 20.0873 3.89668 19.972 3.82745 19.8314C3.75822 19.6909 3.73474 19.5322 3.76029 19.3777C3.78584 19.2231 3.85914 19.0804 3.96991 18.9697C4.08069 18.8589 4.22336 18.7856 4.37792 18.76C4.53247 18.7345 4.69115 18.758 4.83167 18.8272C4.9722 18.8964 5.08753 19.0079 5.16146 19.146C5.23539 19.2841 5.26423 19.4419 5.24391 19.5973C5.22247 19.7612 5.14747 19.9134 5.03058 20.0303C4.91368 20.1472 4.76143 20.2222 4.59751 20.2437Z" fill="black"/>
<path d="M4.59751 16.4937C4.44218 16.514 4.28438 16.4852 4.14627 16.4112C4.00817 16.3373 3.89668 16.222 3.82745 16.0814C3.75822 15.9409 3.73474 15.7822 3.76029 15.6277C3.78584 15.4731 3.85914 15.3304 3.96991 15.2197C4.08069 15.1089 4.22336 15.0356 4.37792 15.01C4.53247 14.9845 4.69115 15.008 4.83167 15.0772C4.9722 15.1464 5.08753 15.2579 5.16146 15.396C5.23539 15.5341 5.26423 15.6919 5.24391 15.8473C5.22247 16.0112 5.14747 16.1634 5.03058 16.2803C4.91368 16.3972 4.76143 16.4722 4.59751 16.4937Z" fill="black"/>
<path d="M4.59751 12.7437C4.44218 12.764 4.28438 12.7352 4.14627 12.6612C4.00817 12.5873 3.89668 12.472 3.82745 12.3314C3.75822 12.1909 3.73474 12.0322 3.76029 11.8777C3.78584 11.7231 3.85914 11.5804 3.96991 11.4697C4.08069 11.3589 4.22336 11.2856 4.37792 11.26C4.53247 11.2345 4.69115 11.258 4.83167 11.3272C4.9722 11.3964 5.08753 11.5079 5.16146 11.646C5.23539 11.7841 5.26423 11.9419 5.24391 12.0973C5.22247 12.2612 5.14747 12.4134 5.03058 12.5303C4.91368 12.6472 4.76143 12.7222 4.59751 12.7437Z" fill="black"/>
<path d="M4.59751 8.99367C4.44218 9.01398 4.28438 8.98515 4.14627 8.91122C4.00817 8.83728 3.89668 8.72196 3.82745 8.58143C3.75822 8.4409 3.73474 8.28223 3.76029 8.12767C3.78584 7.97312 3.85914 7.83044 3.96991 7.71967C4.08069 7.6089 4.22336 7.5356 4.37792 7.51004C4.53247 7.48449 4.69115 7.50798 4.83167 7.5772C4.9722 7.64643 5.08753 7.75792 5.16146 7.89603C5.23539 8.03414 5.26423 8.19193 5.24391 8.34726C5.22247 8.51119 5.14747 8.66343 5.03058 8.78033C4.91368 8.89723 4.76143 8.97223 4.59751 8.99367Z" fill="black"/>
<path d="M4.59751 5.24367C4.44218 5.26398 4.28438 5.23515 4.14627 5.16122C4.00817 5.08728 3.89668 4.97196 3.82745 4.83143C3.75822 4.6909 3.73474 4.53223 3.76029 4.37767C3.78584 4.22312 3.85914 4.08044 3.96991 3.96967C4.08069 3.8589 4.22336 3.7856 4.37792 3.76004C4.53247 3.73449 4.69115 3.75798 4.83167 3.8272C4.9722 3.89643 5.08753 4.00792 5.16146 4.14603C5.23539 4.28414 5.26423 4.44193 5.24391 4.59726C5.22247 4.76119 5.14747 4.91343 5.03058 5.03033C4.91368 5.14723 4.76143 5.22223 4.59751 5.24367Z" fill="black"/>
<path d="M8.34751 16.4937C8.19218 16.514 8.03438 16.4852 7.89627 16.4112C7.75817 16.3373 7.64667 16.222 7.57745 16.0814C7.50822 15.9409 7.48474 15.7822 7.51029 15.6277C7.53584 15.4731 7.60914 15.3304 7.71991 15.2197C7.83069 15.1089 7.97336 15.0356 8.12792 15.01C8.28247 14.9845 8.44115 15.008 8.58167 15.0772C8.7222 15.1464 8.83753 15.2579 8.91146 15.396C8.98539 15.5341 9.01423 15.6919 8.99391 15.8473C8.97247 16.0112 8.89747 16.1634 8.78058 16.2803C8.66368 16.3972 8.51143 16.4722 8.34751 16.4937Z" fill="black"/>
<path d="M8.34751 12.7437C8.19218 12.764 8.03438 12.7352 7.89627 12.6612C7.75817 12.5873 7.64667 12.472 7.57745 12.3314C7.50822 12.1909 7.48474 12.0322 7.51029 11.8777C7.53584 11.7231 7.60914 11.5804 7.71991 11.4697C7.83069 11.3589 7.97336 11.2856 8.12792 11.26C8.28247 11.2345 8.44115 11.258 8.58167 11.3272C8.7222 11.3964 8.83753 11.5079 8.91146 11.646C8.98539 11.7841 9.01423 11.9419 8.99391 12.0973C8.97247 12.2612 8.89747 12.4134 8.78058 12.5303C8.66368 12.6472 8.51143 12.7222 8.34751 12.7437Z" fill="black"/>
<path d="M8.34751 8.99367C8.19218 9.01398 8.03438 8.98515 7.89627 8.91122C7.75817 8.83728 7.64667 8.72196 7.57745 8.58143C7.50822 8.4409 7.48474 8.28223 7.51029 8.12767C7.53584 7.97312 7.60914 7.83044 7.71991 7.71967C7.83069 7.6089 7.97336 7.5356 8.12792 7.51004C8.28247 7.48449 8.44115 7.50798 8.58167 7.5772C8.7222 7.64643 8.83753 7.75792 8.91146 7.89603C8.98539 8.03414 9.01423 8.19193 8.99391 8.34726C8.97247 8.51119 8.89747 8.66343 8.78058 8.78033C8.66368 8.89723 8.51143 8.97223 8.34751 8.99367Z" fill="black"/>
<path d="M8.34751 5.24367C8.19218 5.26398 8.03438 5.23515 7.89627 5.16122C7.75817 5.08728 7.64667 4.97196 7.57745 4.83143C7.50822 4.6909 7.48474 4.53223 7.51029 4.37767C7.53584 4.22312 7.60914 4.08044 7.71991 3.96967C7.83069 3.8589 7.97336 3.7856 8.12792 3.76004C8.28247 3.73449 8.44115 3.75798 8.58167 3.8272C8.7222 3.89643 8.83753 4.00792 8.91146 4.14603C8.98539 4.28414 9.01423 4.44193 8.99391 4.59726C8.97247 4.76119 8.89747 4.91343 8.78058 5.03033C8.66368 5.14723 8.51143 5.22223 8.34751 5.24367Z" fill="black"/>
<path d="M12.0975 20.2437C11.9422 20.264 11.7844 20.2352 11.6463 20.1612C11.5082 20.0873 11.3967 19.972 11.3274 19.8314C11.2582 19.6909 11.2347 19.5322 11.2603 19.3777C11.2858 19.2231 11.3591 19.0804 11.4699 18.9697C11.5807 18.8589 11.7234 18.7856 11.8779 18.76C12.0325 18.7345 12.1911 18.758 12.3317 18.8272C12.4722 18.8964 12.5875 19.0079 12.6615 19.146C12.7354 19.2841 12.7642 19.4419 12.7439 19.5973C12.7225 19.7612 12.6475 19.9134 12.5306 20.0303C12.4137 20.1472 12.2614 20.2222 12.0975 20.2437Z" fill="black"/>
<path d="M12.0975 16.4937C11.9422 16.514 11.7844 16.4852 11.6463 16.4112C11.5082 16.3373 11.3967 16.222 11.3274 16.0814C11.2582 15.9409 11.2347 15.7822 11.2603 15.6277C11.2858 15.4731 11.3591 15.3304 11.4699 15.2197C11.5807 15.1089 11.7234 15.0356 11.8779 15.01C12.0325 14.9845 12.1911 15.008 12.3317 15.0772C12.4722 15.1464 12.5875 15.2579 12.6615 15.396C12.7354 15.5341 12.7642 15.6919 12.7439 15.8473C12.7225 16.0112 12.6475 16.1634 12.5306 16.2803C12.4137 16.3972 12.2614 16.4722 12.0975 16.4937Z" fill="black"/>
<path d="M12.0975 12.7437C11.9422 12.764 11.7844 12.7352 11.6463 12.6612C11.5082 12.5873 11.3967 12.472 11.3274 12.3314C11.2582 12.1909 11.2347 12.0322 11.2603 11.8777C11.2858 11.7231 11.3591 11.5804 11.4699 11.4697C11.5807 11.3589 11.7234 11.2856 11.8779 11.26C12.0325 11.2345 12.1911 11.258 12.3317 11.3272C12.4722 11.3964 12.5875 11.5079 12.6615 11.646C12.7354 11.7841 12.7642 11.9419 12.7439 12.0973C12.7225 12.2612 12.6475 12.4134 12.5306 12.5303C12.4137 12.6472 12.2614 12.7222 12.0975 12.7437Z" fill="black"/>
<path d="M12.5313 8.78105C12.8233 8.48907 12.8221 8.01449 12.5287 7.72105C12.2352 7.42761 11.7607 7.42642 11.4687 7.7184C11.1767 8.01038 11.1779 8.48495 11.4713 8.77839C11.7648 9.07184 12.2393 9.07302 12.5313 8.78105Z" fill="black"/>
<path d="M12.0975 5.24367C11.9422 5.26398 11.7844 5.23515 11.6463 5.16122C11.5082 5.08728 11.3967 4.97196 11.3274 4.83143C11.2582 4.6909 11.2347 4.53223 11.2603 4.37767C11.2858 4.22312 11.3591 4.08044 11.4699 3.96967C11.5807 3.8589 11.7234 3.7856 11.8779 3.76004C12.0325 3.73449 12.1911 3.75798 12.3317 3.8272C12.4722 3.89643 12.5875 4.00792 12.6615 4.14603C12.7354 4.28414 12.7642 4.44193 12.7439 4.59726C12.7225 4.76119 12.6475 4.91343 12.5306 5.03033C12.4137 5.14723 12.2614 5.22223 12.0975 5.24367Z" fill="black"/>
<path d="M18.75 18.75C18.6017 18.75 18.4567 18.794 18.3333 18.8764C18.21 18.9588 18.1139 19.0759 18.0571 19.213C18.0003 19.35 17.9855 19.5008 18.0144 19.6463C18.0434 19.7918 18.1148 19.9254 18.2197 20.0303C18.3246 20.1352 18.4582 20.2066 18.6037 20.2356C18.7492 20.2645 18.9 20.2497 19.037 20.1929C19.1741 20.1361 19.2912 20.04 19.3736 19.9167C19.456 19.7933 19.5 19.6483 19.5 19.5C19.5 19.3011 19.421 19.1103 19.2803 18.9697C19.1397 18.829 18.9489 18.75 18.75 18.75Z" fill="black"/>
<path d="M18.75 15C18.6017 15 18.4567 15.044 18.3333 15.1264C18.21 15.2088 18.1139 15.3259 18.0571 15.463C18.0003 15.6 17.9855 15.7508 18.0144 15.8963C18.0434 16.0418 18.1148 16.1754 18.2197 16.2803C18.3246 16.3852 18.4582 16.4566 18.6037 16.4856C18.7492 16.5145 18.9 16.4997 19.037 16.4429C19.1741 16.3861 19.2912 16.29 19.3736 16.1667C19.456 16.0433 19.5 15.8983 19.5 15.75C19.5 15.5511 19.421 15.3603 19.2803 15.2197C19.1397 15.079 18.9489 15 18.75 15Z" fill="black"/>
<path d="M18.75 11.25C18.6017 11.25 18.4567 11.294 18.3333 11.3764C18.21 11.4588 18.1139 11.5759 18.0571 11.713C18.0003 11.85 17.9855 12.0008 18.0144 12.1463C18.0434 12.2918 18.1148 12.4254 18.2197 12.5303C18.3246 12.6352 18.4582 12.7066 18.6037 12.7356C18.7492 12.7645 18.9 12.7497 19.037 12.6929C19.1741 12.6361 19.2912 12.54 19.3736 12.4167C19.456 12.2933 19.5 12.1483 19.5 12C19.5 11.8011 19.421 11.6103 19.2803 11.4697C19.1397 11.329 18.9489 11.25 18.75 11.25Z" fill="black"/>
<path d="M15.75 18.75C15.6017 18.75 15.4567 18.794 15.3333 18.8764C15.21 18.9588 15.1139 19.0759 15.0571 19.213C15.0003 19.35 14.9855 19.5008 15.0144 19.6463C15.0434 19.7918 15.1148 19.9254 15.2197 20.0303C15.3246 20.1352 15.4582 20.2066 15.6037 20.2356C15.7492 20.2645 15.9 20.2497 16.037 20.1929C16.1741 20.1361 16.2912 20.04 16.3736 19.9167C16.456 19.7933 16.5 19.6483 16.5 19.5C16.5 19.3011 16.421 19.1103 16.2803 18.9697C16.1397 18.829 15.9489 18.75 15.75 18.75Z" fill="black"/>
<path d="M15.75 15C15.6017 15 15.4567 15.044 15.3333 15.1264C15.21 15.2088 15.1139 15.3259 15.0571 15.463C15.0003 15.6 14.9855 15.7508 15.0144 15.8963C15.0434 16.0418 15.1148 16.1754 15.2197 16.2803C15.3246 16.3852 15.4582 16.4566 15.6037 16.4856C15.7492 16.5145 15.9 16.4997 16.037 16.4429C16.1741 16.3861 16.2912 16.29 16.3736 16.1667C16.456 16.0433 16.5 15.8983 16.5 15.75C16.5 15.5511 16.421 15.3603 16.2803 15.2197C16.1397 15.079 15.9489 15 15.75 15Z" fill="black"/>
<path d="M15.75 11.25C15.6017 11.25 15.4567 11.294 15.3333 11.3764C15.21 11.4588 15.1139 11.5759 15.0571 11.713C15.0003 11.85 14.9855 12.0008 15.0144 12.1463C15.0434 12.2918 15.1148 12.4254 15.2197 12.5303C15.3246 12.6352 15.4582 12.7066 15.6037 12.7356C15.7492 12.7645 15.9 12.7497 16.037 12.6929C16.1741 12.6361 16.2912 12.54 16.3736 12.4167C16.456 12.2933 16.5 12.1483 16.5 12C16.5 11.8011 16.421 11.6103 16.2803 11.4697C16.1397 11.329 15.9489 11.25 15.75 11.25Z" fill="black"/>
</svg>
