<svg width="24" height="24" viewBox="0 0 24 24" fill="none" xmlns="http://www.w3.org/2000/svg">
<path d="M20.2031 15.0281C20.1562 14.8594 20.2593 14.625 20.3578 14.4562C20.3879 14.406 20.4207 14.3575 20.4562 14.3109C21.2982 13.0598 21.7486 11.5862 21.75 10.0781C21.764 5.75625 18.1172 2.25 13.6078 2.25C9.67497 2.25 6.39373 4.92656 5.62498 8.47969C5.50997 9.00632 5.45182 9.54377 5.45154 10.0828C5.45154 14.4094 8.95779 18.0094 13.4672 18.0094C14.1843 18.0094 15.15 17.7937 15.6797 17.6484C16.2093 17.5031 16.7343 17.3109 16.8703 17.2594C17.0096 17.2068 17.1573 17.1798 17.3062 17.1797C17.4687 17.1791 17.6297 17.2109 17.7797 17.2734L20.4375 18.2156C20.4957 18.2403 20.5574 18.2561 20.6203 18.2625C20.7197 18.2625 20.8151 18.223 20.8855 18.1527C20.9558 18.0823 20.9953 17.987 20.9953 17.8875C20.992 17.8446 20.9842 17.8022 20.9718 17.7609L20.2031 15.0281Z" stroke="black" stroke-width="1.5" stroke-miterlimit="10" stroke-linecap="round"/>
<path d="M3.11534 10.875C2.50054 11.9795 2.20314 13.2325 2.256 14.4954C2.30886 15.7584 2.70993 16.9822 3.41487 18.0314C3.52315 18.195 3.58409 18.3216 3.56534 18.4064C3.54659 18.4913 3.00612 21.3066 3.00612 21.3066C2.99312 21.3724 2.99805 21.4406 3.0204 21.5039C3.04274 21.5673 3.08169 21.6234 3.13315 21.6666C3.20183 21.7213 3.28722 21.7507 3.37503 21.75C3.42195 21.7501 3.46839 21.7406 3.51143 21.7219L6.14628 20.6906C6.32762 20.6191 6.52992 20.6225 6.70878 20.7C7.59659 21.0459 8.57815 21.2625 9.56018 21.2625C10.878 21.2639 12.1726 20.9163 13.3125 20.2552" stroke="black" stroke-width="1.5" stroke-miterlimit="10" stroke-linecap="round"/>
</svg>
