<svg id="Layer_3" height="512" viewBox="0 0 64 64" width="512" xmlns="http://www.w3.org/2000/svg" data-name="Layer 3"><path d="m62 1h-60a1 1 0 0 0 -1 1v56a1 1 0 0 0 1 1h2v3a1 1 0 0 0 1 1h54a1 1 0 0 0 1-1v-3h2a1 1 0 0 0 1-1v-56a1 1 0 0 0 -1-1zm-35 56v-54h16v54zm-2-24h-2.184a2.908 2.908 0 0 0 -.6-3 2.954 2.954 0 0 0 0-4 2.987 2.987 0 0 0 -2.216-5h-12a2.987 2.987 0 0 0 -2.22 5 2.954 2.954 0 0 0 0 4 2.908 2.908 0 0 0 -.6 3h-2.18v-24h22zm-18-9a1 1 0 0 1 1-1h12a1 1 0 0 1 0 2h-12a1 1 0 0 1 -1-1zm0 4a1 1 0 0 1 1-1h12a1 1 0 0 1 0 2h-12a1 1 0 0 1 -1-1zm0 4a1 1 0 0 1 1-1h12a1 1 0 0 1 0 2h-12a1 1 0 0 1 -1-1zm18 3v10h-22v-10zm0-32v4h-22v-4zm-22 44h22v10h-22zm55 14h-52v-2h52zm3-4h-16v-54h16z"/><path d="m57 28h2v4h-2z"/><path d="m39 28h2v4h-2z"/><path d="m12 37h4v2h-4z"/><path d="m12 49h4v2h-4z"/></svg>