<svg width="24" height="24" viewBox="0 0 24 24" fill="none" xmlns="http://www.w3.org/2000/svg">
<path d="M20.25 21.0001C20.1515 21.0003 20.0539 20.9809 19.9629 20.9432C19.872 20.9054 19.7893 20.8501 19.7198 20.7803L3.21985 4.28025C3.08513 4.13845 3.01114 3.94964 3.01364 3.75407C3.01615 3.5585 3.09495 3.37164 3.23325 3.23334C3.37155 3.09504 3.55841 3.01624 3.75398 3.01373C3.94955 3.01123 4.13836 3.08522 4.28016 3.21994L20.7802 19.7199C20.885 19.8248 20.9564 19.9584 20.9853 20.1039C21.0142 20.2493 20.9993 20.4001 20.9426 20.5371C20.8858 20.6741 20.7898 20.7912 20.6665 20.8736C20.5432 20.956 20.3983 21 20.25 21.0001Z" fill="black"/>
<path d="M11.9841 17.9999C10.0392 17.9999 8.16375 17.4243 6.40969 16.289C4.81266 15.2577 3.375 13.7807 2.25188 12.0233V12.0196C3.18657 10.6804 4.21032 9.54788 5.31 8.63475C5.31995 8.62644 5.32807 8.61615 5.33384 8.60453C5.3396 8.59292 5.3429 8.58024 5.34352 8.56729C5.34413 8.55433 5.34206 8.5414 5.33742 8.52929C5.33278 8.51718 5.32568 8.50617 5.31657 8.49694L4.38282 7.5646C4.36622 7.54787 4.34394 7.538 4.3204 7.53696C4.29686 7.53591 4.27379 7.54377 4.25579 7.55897C3.08766 8.54335 2.00344 9.75085 1.01766 11.1646C0.848059 11.408 0.754654 11.6964 0.749312 11.993C0.74397 12.2896 0.826934 12.5812 0.98766 12.8305C2.22563 14.7679 3.81891 16.3996 5.59454 17.5485C7.59375 18.8437 9.74532 19.4999 11.9841 19.4999C13.1925 19.4962 14.3923 19.297 15.5372 18.9102C15.5523 18.9051 15.5658 18.8962 15.5766 18.8844C15.5873 18.8726 15.5948 18.8582 15.5984 18.8427C15.602 18.8271 15.6016 18.8109 15.5972 18.7956C15.5928 18.7803 15.5846 18.7663 15.5733 18.7551L14.5617 17.7435C14.5384 17.7208 14.5096 17.7045 14.4782 17.6963C14.4467 17.6881 14.4136 17.6882 14.3822 17.6966C13.5988 17.8984 12.793 18.0003 11.9841 17.9999Z" fill="black"/>
<path d="M23.0081 11.1844C21.7678 9.26625 20.1586 7.63688 18.3548 6.47203C16.3594 5.18203 14.1563 4.5 11.9841 4.5C10.7885 4.50212 9.60173 4.70543 8.4736 5.10141C8.45857 5.10664 8.44512 5.11561 8.43451 5.12747C8.4239 5.13934 8.41649 5.15371 8.41298 5.16923C8.40946 5.18475 8.40995 5.20091 8.41441 5.21619C8.41886 5.23147 8.42713 5.24536 8.43844 5.25656L9.4486 6.26672C9.47212 6.28984 9.50131 6.30634 9.53324 6.31457C9.56518 6.3228 9.59871 6.32246 9.63047 6.31359C10.3978 6.10602 11.1892 6.00058 11.9841 6C13.8914 6 15.7613 6.58266 17.5411 7.73438C19.1681 8.78438 20.6227 10.26 21.7486 12C21.7494 12.0011 21.7499 12.0024 21.7499 12.0037C21.7499 12.0051 21.7494 12.0064 21.7486 12.0075C20.9313 13.2942 19.9171 14.4446 18.743 15.4167C18.7329 15.425 18.7247 15.4353 18.7188 15.4469C18.713 15.4586 18.7096 15.4713 18.709 15.4843C18.7083 15.4973 18.7104 15.5103 18.715 15.5225C18.7196 15.5347 18.7268 15.5457 18.7359 15.555L19.6688 16.4873C19.6853 16.504 19.7074 16.5139 19.7309 16.515C19.7543 16.5161 19.7773 16.5084 19.7953 16.4934C21.0488 15.4381 22.1338 14.1975 23.0128 12.8147C23.1682 12.571 23.2504 12.2878 23.2495 11.9988C23.2487 11.7098 23.1649 11.4272 23.0081 11.1844Z" fill="black"/>
<path d="M12 7.5C11.6629 7.49982 11.3269 7.53756 10.9983 7.6125C10.9817 7.61595 10.9663 7.62383 10.9538 7.63531C10.9414 7.64679 10.9322 7.66144 10.9274 7.6777C10.9226 7.69395 10.9223 7.71121 10.9265 7.72763C10.9308 7.74405 10.9393 7.75901 10.9514 7.77094L16.2291 13.0472C16.241 13.0592 16.2559 13.0678 16.2724 13.0721C16.2888 13.0763 16.306 13.076 16.3223 13.0712C16.3386 13.0663 16.3532 13.0572 16.3647 13.0447C16.3762 13.0323 16.384 13.0169 16.3875 13.0003C16.5378 12.3413 16.5376 11.6568 16.3871 10.9979C16.2365 10.3389 15.9395 9.72228 15.518 9.19385C15.0964 8.66542 14.5613 8.23874 13.9523 7.9455C13.3432 7.65226 12.6759 7.49999 12 7.5Z" fill="black"/>
<path d="M7.77094 10.9529C7.75902 10.9408 7.74405 10.9322 7.72763 10.928C7.71121 10.9238 7.69395 10.9241 7.6777 10.9289C7.66144 10.9337 7.64679 10.9428 7.63531 10.9553C7.62383 10.9678 7.61595 10.9831 7.6125 10.9997C7.44251 11.7424 7.46385 12.5161 7.67454 13.2482C7.88522 13.9804 8.27835 14.6471 8.81707 15.1858C9.3558 15.7245 10.0225 16.1176 10.7546 16.3283C11.4868 16.539 12.2605 16.5604 13.0031 16.3904C13.0197 16.3869 13.0351 16.379 13.0476 16.3676C13.06 16.3561 13.0692 16.3414 13.074 16.3252C13.0788 16.3089 13.0791 16.2917 13.0749 16.2752C13.0706 16.2588 13.0621 16.2439 13.05 16.2319L7.77094 10.9529Z" fill="black"/>
</svg>
