<svg width="24" height="24" viewBox="0 0 24 24" fill="none" xmlns="http://www.w3.org/2000/svg">
<path d="M1.65939 4.08375L9.56485 13.2919C9.68306 13.4276 9.74875 13.6012 9.75001 13.7813V19.3744C9.74924 19.4527 9.77326 19.5293 9.81864 19.5932C9.86402 19.6571 9.92842 19.7051 10.0027 19.7302L13.7597 20.9803C13.8158 20.9991 13.8757 21.0042 13.9342 20.9953C13.9927 20.9863 14.0483 20.9635 14.0962 20.9287C14.1442 20.894 14.1831 20.8483 14.2099 20.7955C14.2366 20.7427 14.2504 20.6842 14.25 20.625V13.7813C14.2519 13.6009 14.3185 13.4273 14.4375 13.2919L22.3406 4.08375C22.4224 3.98856 22.4751 3.87193 22.4926 3.74769C22.5101 3.62345 22.4916 3.4968 22.4393 3.38275C22.387 3.2687 22.3031 3.17203 22.1976 3.10419C22.092 3.03636 21.9692 3.0002 21.8438 3H2.1586C2.03294 2.99975 1.90984 3.03558 1.80395 3.10324C1.69805 3.1709 1.61381 3.26755 1.56124 3.38168C1.50866 3.49582 1.48996 3.62266 1.50736 3.74711C1.52476 3.87157 1.57752 3.98841 1.65939 4.08375Z" stroke="black" stroke-width="1.5" stroke-linecap="round" stroke-linejoin="round"/>
</svg>
