<svg width="24" height="24" viewBox="0 0 24 24" fill="none" xmlns="http://www.w3.org/2000/svg">
<path d="M18.3008 3.52881C18.2131 3.52903 18.127 3.50572 18.0514 3.46131C15.9711 2.34756 14.1725 1.87506 12.0162 1.87506C9.87076 1.87506 7.83357 2.40381 5.98061 3.46131C5.71857 3.60943 5.39561 3.50631 5.24373 3.23443C5.17594 3.10321 5.16065 2.9511 5.20096 2.80901C5.24127 2.66692 5.33416 2.5455 5.46076 2.46943C7.45922 1.33598 9.71874 0.743354 12.0162 0.750056C14.3239 0.750056 16.3395 1.27881 18.5501 2.46006C18.6791 2.53097 18.7752 2.64961 18.8177 2.79053C18.8602 2.93144 18.8457 3.0834 18.7775 3.21381C18.7364 3.30639 18.6697 3.38527 18.5852 3.4411C18.5007 3.49693 18.402 3.52737 18.3008 3.52881ZM2.79498 9.43506C2.6824 9.43426 2.57277 9.39892 2.48092 9.33381C2.36141 9.24499 2.28104 9.11327 2.25674 8.96637C2.23243 8.81948 2.26608 8.66888 2.35061 8.54631C3.42357 6.97131 4.78811 5.73381 6.4142 4.86756C9.81639 3.04693 14.1725 3.03381 17.5854 4.85631C19.2111 5.72256 20.5761 6.94881 21.649 8.51256C21.7332 8.63524 21.7667 8.78574 21.7424 8.93253C21.7181 9.07932 21.6379 9.21103 21.5187 9.30006C21.4609 9.34329 21.3948 9.37419 21.3245 9.39085C21.2543 9.40751 21.1813 9.40958 21.1103 9.39692C21.0392 9.38427 20.9714 9.35716 20.9112 9.31728C20.851 9.2774 20.7997 9.22559 20.7603 9.16506C19.7853 7.74756 18.5501 6.63381 17.0872 5.85756C13.9775 4.20381 10.0006 4.20381 6.9017 5.86881C5.42795 6.65631 4.19279 7.78131 3.21779 9.19693C3.17575 9.27142 3.11413 9.33299 3.0396 9.37496C2.96507 9.41694 2.88048 9.43772 2.79498 9.43506ZM9.56701 23.0157C9.4954 23.0164 9.42448 23.0017 9.35905 22.9725C9.29362 22.9434 9.23522 22.9006 9.18779 22.8469C8.24514 21.8663 7.7342 21.2344 7.00998 19.8751C6.25998 18.4913 5.87232 16.8038 5.87232 14.9926C5.87232 11.6513 8.62436 8.92881 12.0054 8.92881C15.3865 8.92881 18.1404 11.6513 18.1404 14.9926C18.1426 15.065 18.1301 15.1372 18.1039 15.2048C18.0776 15.2723 18.0381 15.334 17.9876 15.386C17.9371 15.438 17.8766 15.4793 17.8099 15.5076C17.7431 15.5358 17.6713 15.5504 17.5988 15.5504C17.5263 15.5504 17.4545 15.5358 17.3878 15.5076C17.321 15.4793 17.2606 15.438 17.2101 15.386C17.1595 15.334 17.12 15.2723 17.0937 15.2048C17.0675 15.1372 17.055 15.065 17.0572 14.9926C17.0572 12.2701 14.7922 10.0538 12.0078 10.0538C9.22342 10.0538 6.95607 12.2701 6.95607 14.9926C6.95607 16.6126 7.30248 18.1088 7.96342 19.3238C8.65717 20.6176 9.13529 21.1688 9.96826 22.0463C10.067 22.1555 10.1217 22.2975 10.1217 22.4447C10.1217 22.592 10.067 22.734 9.96826 22.8432C9.86191 22.9505 9.71806 23.0123 9.56701 23.0157ZM17.3365 20.9344C16.047 20.9344 14.9094 20.5969 13.9775 19.9332C13.1836 19.3767 12.535 18.6376 12.0863 17.7781C11.6376 16.9187 11.402 15.964 11.3994 14.9944C11.3963 14.9214 11.4081 14.8485 11.4339 14.7801C11.4598 14.7117 11.4992 14.6492 11.5498 14.5964C11.6005 14.5437 11.6612 14.5017 11.7285 14.473C11.7957 14.4443 11.8681 14.4295 11.9412 14.4295C12.0143 14.4295 12.0867 14.4443 12.154 14.473C12.2212 14.5017 12.282 14.5437 12.3326 14.5964C12.3832 14.6492 12.4227 14.7117 12.4485 14.7801C12.4744 14.8485 12.4861 14.9214 12.4831 14.9944C12.4849 15.7819 12.677 16.5574 13.0429 17.2547C13.4089 17.952 13.9379 18.5506 14.585 18.9994C15.3542 19.5394 16.2537 19.7963 17.3375 19.7963C17.7149 19.7896 18.0912 19.752 18.4625 19.6838C18.755 19.6276 19.0367 19.8301 19.0906 20.1451C19.1181 20.2904 19.0868 20.4408 19.0035 20.5631C18.9203 20.6854 18.792 20.7697 18.6467 20.7976C18.2151 20.8828 17.7765 20.928 17.3365 20.9326V20.9344ZM15.1583 23.2501C15.1107 23.2481 15.0635 23.2405 15.0176 23.2276C13.2945 22.7326 12.1676 22.0688 10.9864 20.8651C9.46904 19.3013 8.63514 17.2201 8.63514 14.9926C8.63514 13.1701 10.1304 11.6851 11.9722 11.6851C13.8139 11.6851 15.3097 13.1701 15.3097 14.9926C15.3097 16.1963 16.3175 17.1751 17.5634 17.1751C18.8094 17.1751 19.8172 16.1963 19.8172 14.9926C19.8172 10.7513 16.2954 7.30881 11.9614 7.30881C8.88404 7.30881 6.06686 9.08631 4.79936 11.8426C4.37748 12.7538 4.15998 13.8226 4.15998 14.9926C4.15998 15.8701 4.23545 17.2538 4.88561 19.0538C4.99436 19.3463 4.85326 19.6726 4.57154 19.7738C4.50459 19.7993 4.43318 19.811 4.36159 19.8082C4.29 19.8054 4.21972 19.7882 4.15496 19.7575C4.09021 19.7269 4.03232 19.6834 3.98477 19.6299C3.93722 19.5763 3.90099 19.5136 3.87826 19.4457C3.35545 18.0192 3.08762 16.5118 3.08701 14.9926C3.08701 13.6426 3.33639 12.4144 3.82389 11.3476C5.26529 8.20693 8.4617 6.17256 11.9614 6.17256C16.8917 6.17256 20.9009 10.1213 20.9009 14.9813C20.9009 16.8038 19.4056 18.2888 17.5634 18.2888C15.7212 18.2888 14.2259 16.8038 14.2259 14.9813C14.2264 13.7776 13.2186 12.7969 11.9726 12.7969C10.7267 12.7969 9.71889 13.7757 9.71889 14.9794C9.71889 16.9013 10.4342 18.7032 11.7453 20.0532C12.7765 21.1107 13.7609 21.6938 15.2886 22.1344C15.5811 22.2132 15.7437 22.5282 15.6678 22.8207C15.6441 22.9394 15.5808 23.0466 15.4882 23.1246C15.3956 23.2026 15.2793 23.2469 15.1583 23.2501Z" fill="black"/>
</svg>
