<svg width="26" height="25" viewBox="0 0 26 25" fill="none" xmlns="http://www.w3.org/2000/svg">
<path d="M23.214 10.4599H22.375V10.4167H13V14.5834H18.887C18.0281 17.0089 15.7203 18.75 13 18.75C9.54842 18.75 6.74998 15.9516 6.74998 12.5C6.74998 9.04848 9.54842 6.25004 13 6.25004C14.5932 6.25004 16.0427 6.85108 17.1463 7.83285L20.0927 4.8865C18.2323 3.15264 15.7437 2.08337 13 2.08337C7.24738 2.08337 2.58331 6.74744 2.58331 12.5C2.58331 18.2526 7.24738 22.9167 13 22.9167C18.7526 22.9167 23.4166 18.2526 23.4166 12.5C23.4166 11.8016 23.3448 11.1198 23.214 10.4599Z" fill="#FFC107"/>
<path d="M3.78436 7.6516L7.20676 10.1615C8.1328 7.86879 10.3755 6.25004 13 6.25004C14.5932 6.25004 16.0427 6.85108 17.1463 7.83285L20.0927 4.8865C18.2323 3.15264 15.7437 2.08337 13 2.08337C8.99895 2.08337 5.52915 4.34223 3.78436 7.6516Z" fill="#FF3D00"/>
<path d="M13 22.9167C15.6906 22.9167 18.1354 21.887 19.9839 20.2125L16.7599 17.4844C15.6789 18.3064 14.3581 18.7511 13 18.75C10.2906 18.75 7.9901 17.0224 7.12344 14.6115L3.72656 17.2286C5.45052 20.6021 8.95156 22.9167 13 22.9167Z" fill="#4CAF50"/>
<path d="M23.2141 10.4599H22.375V10.4166H13V14.5833H18.887C18.4761 15.7377 17.7361 16.7464 16.7583 17.4849L16.7599 17.4838L19.9839 20.2119C19.7557 20.4192 23.4167 17.7083 23.4167 12.5C23.4167 11.8015 23.3448 11.1198 23.2141 10.4599Z" fill="#1976D2"/>
</svg>
