<svg id="Layer_2" enable-background="new 0 0 512 512" viewBox="0 0 512 512" xmlns="http://www.w3.org/2000/svg"><g style="fill:none;stroke:#474747;stroke-width:15;stroke-linecap:round;stroke-linejoin:round;stroke-miterlimit:10"><path d="m467.672 399.957h-425.029c-12.033 0-21.788-9.755-21.788-21.788v-270.624c0-12.033 9.755-21.788 21.788-21.788h425.029c12.033 0 21.788 9.755 21.788 21.788v270.624c0 12.033-9.755 21.788-21.788 21.788z"/><g><g><path d="m95.33 204.586c8.471-22.289 29.588-38.071 54.979-38.071"/><path d="m127.969 281.73c-21.522-9.103-36.623-29.413-36.623-54.251"/><path d="m206.033 251.029c-9.38 20.875-29.354 35.412-53.723 35.412"/><path d="m174.977 171.367c21.348 9.18 36.296 29.4 36.296 54.112"/><path d="m151.309 182.894v-32.757"/><path d="m151.309 302.82v-32.756"/><path d="m107.724 226.479h-32.756"/><path d="m227.651 226.479h-32.756"/></g><g><path d="m303.026 204.586c8.471-22.289 29.588-38.071 54.979-38.071"/><path d="m335.665 281.73c-21.522-9.103-36.623-29.413-36.623-54.251"/><path d="m413.729 251.029c-9.38 20.875-29.354 35.412-53.723 35.412"/><path d="m382.673 171.367c21.348 9.18 36.296 29.4 36.296 54.112"/><path d="m359.006 182.894v-32.757"/><path d="m359.006 302.82v-32.756"/><path d="m315.42 226.479h-32.756"/><path d="m435.347 226.479h-32.756"/></g></g><g><path d="m123.784 364.344h12.655"/><path d="m166.18 364.344h12.655"/></g><g><path d="m331.48 364.344h12.655"/><path d="m373.876 364.344h12.655"/></g><path d="m186.218 400.957-2.291 23.506h-65.235l-2.291-23.506"/><path d="m392.914 400.957-2.291 23.506h-65.235l-2.291-23.506"/></g></svg>