<svg id="Layer_1" enable-background="new 0 0 56.693 56.693" height="56.693" viewBox="0 0 56.693 56.693" width="56.693" xmlns="http://www.w3.org/2000/svg"><path d="m28.421 5.317c-13.357 0-24.225 10.866-24.225 24.224 0 13.357 10.867 24.224 24.225 24.224 13.357 0 24.223-10.866 24.223-24.224s-10.866-24.224-24.223-24.224zm0 43.955c-4.322 0-8.322-1.401-11.576-3.766l27.303-27.867c2.511 3.312 4.004 7.434 4.004 11.901 0 10.88-8.851 19.732-19.731 19.732zm0-39.464c4.571 0 8.779 1.566 12.128 4.185l-27.426 27.994c-2.769-3.399-4.435-7.73-4.435-12.446 0-10.881 8.853-19.733 19.733-19.733z" fill="#474a56"/></svg>