<?xml version="1.0" encoding="utf-8"?>
<!-- Uploaded to: SVG Repo, www.svgrepo.com, Generator: SVG Repo Mixer Tools -->
<svg fill="#000000" width="800px" height="800px" viewBox="-7 0 32 32" version="1.1" xmlns="http://www.w3.org/2000/svg">
<title>nfc</title>
<path d="M13.88 24.96h-4.92c-1.4 0-2.52-0.44-3.32-1.28-1.48-1.52-1.4-3.8-1.4-3.88v-9.28c0-0.32 0.2-0.64 0.48-0.76 0.32-0.12 0.64-0.080 0.92 0.12l5.040 4.32c0.36 0.32 0.4 0.84 0.080 1.2s-0.84 0.4-1.2 0.080l-3.64-3.12v7.48c0 0.040-0.040 1.68 0.92 2.68 0.52 0.52 1.2 0.76 2.12 0.76h4.88c1.32 0 2.4-1.080 2.4-2.4v-9.76c0-1.040-0.68-1.96-1.68-2.28-0.44-0.16-0.68-0.6-0.56-1.080s0.64-0.68 1.080-0.56c1.72 0.56 2.88 2.12 2.88 3.92v9.76c0 2.28-1.84 4.080-4.080 4.080zM3.96 24.24c0.16-0.44-0.12-0.92-0.56-1.080-1-0.32-1.68-1.24-1.68-2.28v-9.76c0-1.32 1.080-2.4 2.4-2.4h4.88c0.92 0 1.6 0.24 2.12 0.76 0.96 1 0.92 2.64 0.92 2.68v7.48l-3.64-3.12c-0.36-0.32-0.88-0.28-1.2 0.080s-0.28 0.88 0.080 1.2l5.040 4.32c0.24 0.2 0.6 0.28 0.92 0.12 0.32-0.12 0.48-0.44 0.48-0.76v-9.28c0-0.080 0.080-2.36-1.4-3.88-0.84-0.84-1.96-1.28-3.32-1.28h-4.92c-2.24 0-4.080 1.8-4.080 4.080v9.76c0 1.8 1.16 3.36 2.88 3.92 0.080 0.040 0.16 0.040 0.24 0.040 0.36 0 0.72-0.24 0.84-0.6z"></path>
</svg>