<?xml version="1.0" encoding="UTF-8"?>
<svg version="1.1" xmlns="http://www.w3.org/2000/svg" width="512" height="512">
<path d="M0 0 C16.59028159 14.44570155 30.14730152 30.49908637 41.8125 49.125 C42.38049316 50.02412109 42.38049316 50.02412109 42.95996094 50.94140625 C54.7878301 69.93985698 62.08778323 91.35162657 66.8125 113.125 C67.07716064 114.26243652 67.07716064 114.26243652 67.34716797 115.42285156 C72.77379691 139.42049114 72.37891797 169.20211145 66.8125 193.125 C66.62445801 193.99157227 66.43641602 194.85814453 66.24267578 195.75097656 C61.88897078 215.52794997 55.24895555 235.41446218 44.11328125 252.453125 C42.57819335 255.60627852 42.71453769 256.85329412 43.8125 260.125 C44.163125 260.99125 44.51375 261.8575 44.875 262.75 C45.8125 265.125 45.8125 265.125 45.8125 268.125 C46.4725 268.186875 47.1325 268.24875 47.8125 268.3125 C56.48701032 270.66184654 62.17401822 276.85510456 67.13671875 284.04296875 C71.43172065 291.83425291 71.14348253 302.44666624 69.15234375 310.94140625 C65.74733458 319.41707843 58.48888791 327.08090651 50.17871094 330.71336365 C45.82473425 332.29729353 41.9858354 332.50548354 37.390625 332.39868164 C36.58920074 332.39281036 35.78777649 332.38693909 34.96206665 332.38088989 C33.23244413 332.3673134 31.50286184 332.34739842 29.77337646 332.32173347 C27.01030796 332.28445203 24.24816981 332.27234059 21.48486328 332.26768494 C13.63163703 332.25304405 5.77927237 332.2192455 -2.07324219 332.1081543 C-33.00925419 331.5419347 -33.00925419 331.5419347 -61.7588501 341.92434692 C-78.50580587 350.20354927 -100.44083584 353.17617501 -118.9375 353.36328125 C-119.74511276 353.3730751 -120.55272552 353.38286896 -121.3848114 353.39295959 C-139.63775253 353.5686484 -157.32079485 353.33911785 -175.1875 349.125 C-176.55527588 348.80354004 -176.55527588 348.80354004 -177.95068359 348.47558594 C-199.10334739 343.31236688 -222.88403667 334.61471849 -240.1875 321.125 C-243.33822128 324.25072471 -246.48543136 327.3799331 -249.62963867 330.51220703 C-250.69642297 331.57400861 -251.76410853 332.63490558 -252.83276367 333.69482422 C-258.25191644 339.07082682 -263.58704497 344.45728666 -268.54858398 350.265625 C-272.21842273 354.42911255 -276.26647209 358.24077339 -280.2265625 362.125 C-283.50450634 365.36497537 -286.67885561 368.63197069 -289.6875 372.125 C-293.93782812 377.05962131 -298.58008338 381.56753389 -303.2265625 386.125 C-306.50450634 389.36497537 -309.67885561 392.63197069 -312.6875 396.125 C-316.93782812 401.05962131 -321.58008338 405.56753389 -326.2265625 410.125 C-329.50450634 413.36497537 -332.67885561 416.63197069 -335.6875 420.125 C-339.93782812 425.05962131 -344.58008338 429.56753389 -349.2265625 434.125 C-353.77121969 438.61701638 -358.01954874 443.28367125 -362.1875 448.125 C-370.546255 457.4403855 -380.96480558 464.8263104 -393.8359375 465.55859375 C-395.41128604 465.58192981 -396.98710953 465.5828089 -398.5625 465.5625 C-399.80749268 465.55114014 -399.80749268 465.55114014 -401.07763672 465.53955078 C-413.65476838 465.20307997 -423.78694247 459.99228919 -432.4375 450.9375 C-442.18845292 439.45434187 -443.32064008 426.55323868 -442.1875 412.125 C-441.3730198 408.09914071 -440.11215873 404.74360128 -438.1875 401.125 C-437.80980469 400.39796875 -437.43210937 399.6709375 -437.04296875 398.921875 C-431.67740092 389.90901786 -423.15646293 382.52360201 -415.2734375 375.7265625 C-411.0391088 372.05437569 -407.11052195 368.12464347 -403.1875 364.125 C-398.66774688 359.51697045 -394.07817773 355.11482203 -389.1875 350.90234375 C-385.69778722 347.80113415 -382.4553338 344.45665868 -379.1875 341.125 C-374.66774688 336.51697045 -370.07817773 332.11482203 -365.1875 327.90234375 C-361.69778722 324.80113415 -358.4553338 321.45665868 -355.1875 318.125 C-350.66774688 313.51697045 -346.07817773 309.11482203 -341.1875 304.90234375 C-337.69778722 301.80113415 -334.4553338 298.45665868 -331.1875 295.125 C-327.31456286 291.17641955 -323.44483442 287.29229351 -319.25 283.68359375 C-314.6706458 279.73938971 -310.43517051 275.48302122 -306.1875 271.1875 C-305.02541016 270.01864258 -305.02541016 270.01864258 -303.83984375 268.82617188 C-301.95339243 266.9280758 -300.06933755 265.02766851 -298.1875 263.125 C-298.63738281 262.45339844 -299.08726562 261.78179687 -299.55078125 261.08984375 C-317.83689437 232.68956786 -330.0842602 198.49010531 -330.42578125 164.47265625 C-330.44040405 163.25891075 -330.44040405 163.25891075 -330.45532227 162.02064514 C-330.66440353 140.15375017 -329.5368688 119.92585706 -323.60229492 98.76123047 C-323.3699691 97.92897446 -323.13764328 97.09671844 -322.89827728 96.23924255 C-322.32909387 94.20086103 -321.75844507 92.16288879 -321.1875 90.125 C-322.21765228 90.12135437 -323.24780457 90.11770874 -324.30917358 90.11395264 C-334.04833257 90.0769068 -343.78717818 90.0190298 -353.52609825 89.94109726 C-358.53222278 89.90169767 -363.53817338 89.8694724 -368.54443359 89.85400391 C-373.38166611 89.8387877 -378.21842023 89.80425449 -383.055439 89.75669098 C-384.89483085 89.74192822 -386.73429102 89.73396193 -388.57374191 89.73311615 C-402.53259044 89.72025039 -412.44078794 88.66638883 -422.984375 78.63671875 C-430.22788558 70.37860296 -431.68817288 61.61114457 -431.453125 50.94921875 C-430.74430894 40.74435222 -425.64061778 33.88313252 -418.1875 27.125 C-412.74651173 23.10420189 -407.9059893 21.49146305 -401.1875 21.125 C-401.09339844 19.96613281 -400.99929688 18.80726562 -400.90234375 17.61328125 C-400.32280027 13.04623757 -398.83904031 9.38602807 -396.75 5.3125 C-396.39583008 4.61962891 -396.04166016 3.92675781 -395.67675781 3.21289062 C-388.28660086 -10.61881684 -376.48449961 -20.19742698 -361.66015625 -25.18359375 C-345.67455319 -29.65350171 -328.4655815 -27.54870365 -313.9375 -19.75 C-309.65704186 -17.15014335 -306.66474143 -14.31833329 -303.375 -10.5625 C-298.33045188 -5.17677471 -293.97963712 -4.74226412 -286.8125 -4.21484375 C-278.55950565 -3.44112553 -272.70671827 0.33843804 -266.1875 5.125 C-265.38570312 4.39796875 -264.58390625 3.6709375 -263.7578125 2.921875 C-254.49111973 -5.32949852 -244.65918531 -12.24267804 -234.1875 -18.875 C-233.19621094 -19.52082031 -232.20492187 -20.16664062 -231.18359375 -20.83203125 C-214.13511665 -31.42839184 -194.61816787 -38.23129226 -175.1875 -42.875 C-174.24874023 -43.09945801 -173.30998047 -43.32391602 -172.34277344 -43.55517578 C-112.0058184 -57.17122227 -46.80038678 -39.73257327 0 0 Z M-259.73046875 28.65136719 C-281.99236804 51.04203067 -297.80817081 80.48346301 -305.1875 111.125 C-305.38359863 111.91132813 -305.57969727 112.69765625 -305.78173828 113.5078125 C-312.01520206 139.52220263 -311.49781871 169.19224963 -305.1875 195.125 C-304.97851074 195.98786621 -304.76952148 196.85073242 -304.55419922 197.73974609 C-292.84044299 244.18237661 -261.75432162 283.37853119 -221.1875 308.125 C-202.87152471 319.04318315 -183.09889894 326.11299708 -162.1875 330.125 C-161.25502441 330.31191406 -160.32254883 330.49882812 -159.36181641 330.69140625 C-150.28147785 332.31902772 -141.32973422 332.43155992 -132.13623047 332.38574219 C-129.53199764 332.37487269 -126.92843271 332.38577441 -124.32421875 332.3984375 C-122.66145682 332.39711828 -120.9986953 332.39456082 -119.3359375 332.390625 C-118.56099945 332.39467346 -117.7860614 332.39872192 -116.98764038 332.40289307 C-113.18710285 332.36955081 -111.42701485 332.28467657 -108.1875 330.125 C-108.83976563 329.77308594 -109.49203125 329.42117188 -110.1640625 329.05859375 C-116.56784936 325.44111533 -121.93487402 321.67922209 -125.265625 314.9453125 C-128.46474577 311.91525096 -132.26278386 312.62117027 -136.5 312.625 C-177.03058142 311.59420494 -215.20585016 294.24920458 -244.1875 266.125 C-246.63529642 263.54616523 -248.92676991 260.86835786 -251.1875 258.125 C-251.81269531 257.38765625 -252.43789062 256.6503125 -253.08203125 255.890625 C-270.18329401 235.24768061 -282.08749239 210.45846817 -287.1875 184.125 C-287.36410156 183.21580811 -287.54070312 182.30661621 -287.72265625 181.36987305 C-289.33739524 172.12332972 -289.58788402 163.04463707 -289.5625 153.6875 C-289.56162384 152.89608612 -289.56074768 152.10467224 -289.55984497 151.28927612 C-289.46439724 125.07417815 -283.96416392 98.79659692 -270.1875 76.125 C-266.16214442 73.44142961 -262.91500362 73.44964234 -258.1875 74.125 C-255.02948727 76.09875796 -254.38092239 77.49190382 -253.30078125 81.02734375 C-252.58326766 86.79067058 -255.62638078 91.97487436 -257.875 97.125 C-261.73658249 106.35843417 -265.20812424 115.28190861 -267.1875 125.125 C-267.44587646 126.38268188 -267.44587646 126.38268188 -267.70947266 127.66577148 C-269.27213312 135.96540491 -269.58839451 144.13277214 -269.5625 152.5625 C-269.56118576 153.61272842 -269.56118576 153.61272842 -269.55984497 154.68417358 C-269.41298939 190.42800812 -255.91930892 223.33904841 -231.1875 249.125 C-229.88425781 250.54039062 -229.88425781 250.54039062 -228.5546875 251.984375 C-206.72195214 275.22763095 -173.14288088 291.3530515 -141.08203125 292.36328125 C-137.10945003 292.40876268 -133.15555517 292.31222148 -129.1875 292.125 C-128.96835937 291.42375 -128.74921875 290.7225 -128.5234375 290 C-125.28733232 280.31799425 -121.27675487 273.90303271 -112.625 268.3203125 C-110.01662625 267.04120614 -107.79137144 266.65465158 -104.9375 266.1875 C-102.34656788 265.66042105 -102.34656788 265.66042105 -100.1875 264.125 C-98.45733005 260.50655057 -97.44436703 256.92228459 -96.39453125 253.06640625 C-94.80143853 247.39127028 -91.64445225 242.84121328 -88.1875 238.125 C-87.76597656 237.53203125 -87.34445312 236.9390625 -86.91015625 236.328125 C-78.70166227 225.60457057 -64.28772958 218.96793968 -51.1875 217.125 C-37.83780962 216.02480477 -26.02784923 217.62034241 -14.1484375 224.13671875 C-12.25581677 225.27501918 -12.25581677 225.27501918 -10.1875 225.125 C8.4136261 189.62234308 15.2558977 150.69107009 3.4921875 111.6328125 C-1.18188063 97.05975907 -8.20186729 83.49807362 -17.1875 71.125 C-18.03828125 69.93777344 -18.03828125 69.93777344 -18.90625 68.7265625 C-40.88257589 39.71395684 -73.70658476 19.95283121 -109.79150391 14.74951172 C-139.46074472 10.97381274 -165.7427335 15.98206322 -192.9375 28.125 C-197.61710656 30.1053363 -200.34638066 30.8395631 -205.1875 29.125 C-207.625 27.625 -207.625 27.625 -209.1875 25.125 C-209.8085676 21.99036636 -210.02756036 19.21913536 -209.1875 16.125 C-205.528486 11.55123249 -201.37852796 9.43353206 -196.125 7.1875 C-195.34060547 6.84759033 -194.55621094 6.50768066 -193.74804688 6.1574707 C-184.77890827 2.38103794 -175.61169486 -0.47812866 -166.1875 -2.875 C-165.17042969 -3.14401123 -165.17042969 -3.14401123 -164.1328125 -3.41845703 C-142.94011251 -8.77514601 -115.28519471 -8.47642297 -94.1875 -2.875 C-92.99979004 -2.56900879 -92.99979004 -2.56900879 -91.78808594 -2.25683594 C-65.62728927 4.63709092 -42.3254575 16.61105979 -22.44140625 35.08203125 C-20.87645113 36.5005261 -19.25769275 37.86098036 -17.6015625 39.171875 C8.87036737 60.58929399 24.57592516 100.15673532 28.59562683 132.9591217 C28.93536247 136.35200824 28.99389301 139.74189221 29.015625 143.1484375 C29.02263931 143.88782059 29.02965363 144.62720367 29.03688049 145.38899231 C29.05427663 147.75939093 29.06073174 150.12953991 29.0625 152.5 C29.06317474 153.30901764 29.06384949 154.11803528 29.06454468 154.9515686 C29.04906692 166.61094546 28.71967674 177.77538199 25.8125 189.125 C25.63557617 189.82496094 25.45865234 190.52492187 25.27636719 191.24609375 C21.63680187 205.3517666 16.46077114 218.65930008 9.35229492 231.37939453 C7.43842158 234.55708204 7.43842158 234.55708204 6.8125 238.125 C9.04157395 238.60459778 11.27076297 239.0836608 13.5 239.5625 C15.36205078 239.96275391 15.36205078 239.96275391 17.26171875 240.37109375 C20.10862015 240.97555136 22.95705626 241.56264684 25.8125 242.125 C36.05673185 223.98272092 42.81971805 205.5955127 46.8125 185.125 C46.99941406 184.17512207 47.18632812 183.22524414 47.37890625 182.24658203 C49.05132649 172.74813098 49.21103978 163.36445372 49.1875 153.75 C49.18695618 152.91317688 49.18641235 152.07635376 49.18585205 151.21417236 C49.1450087 137.51269885 48.20366032 124.45316957 44.8125 111.125 C44.60351074 110.27921387 44.39452148 109.43342773 44.17919922 108.56201172 C32.15830845 61.24382371 0.43688922 21.74516392 -41.16650391 -3.0546875 C-58.99882426 -13.38573287 -78.03799731 -19.82673801 -98.1875 -23.875 C-99.34378906 -24.10960937 -100.50007812 -24.34421875 -101.69140625 -24.5859375 C-160.33026448 -34.92075543 -218.24665836 -12.38609841 -259.73046875 28.65136719 Z M-371.1875 5.125 C-378.25952378 13.43531588 -381.0616646 21.16250692 -381.87890625 31.88671875 C-382.2870536 34.84707866 -383.32143378 36.81107788 -385.1875 39.125 C-387.576661 40.3195805 -389.76307517 40.41857329 -392.39379883 40.66943359 C-398.96889899 41.33079237 -403.77795112 41.83354134 -408.1875 47.125 C-410.49301518 50.16408819 -410.60944607 53.3193307 -410.50390625 57.09765625 C-409.83436746 61.38766407 -407.41516819 64.15898348 -404.09480286 66.77168274 C-400.10500128 68.62889116 -396.7063071 68.52252007 -392.3581543 68.46557617 C-391.47960281 68.46601425 -390.60105133 68.46645233 -389.69587708 68.46690369 C-386.80092914 68.46481883 -383.90656513 68.44150201 -381.01171875 68.41796875 C-379.0010459 68.41237172 -376.99036896 68.40810213 -374.97969055 68.40510559 C-369.69421035 68.39366527 -364.40897846 68.36420494 -359.12359619 68.33099365 C-353.72761392 68.30027533 -348.33159143 68.28659648 -342.93554688 68.27148438 C-332.35275564 68.23933459 -321.77014849 68.18814793 -311.1875 68.125 C-310.64584702 67.02932205 -310.10419403 65.9336441 -309.54612732 64.80476379 C-308.82440502 63.35131208 -308.10256123 61.89792069 -307.38061523 60.44458008 C-307.02494225 59.72429878 -306.66926926 59.00401749 -306.3028183 58.26190948 C-303.61843235 52.86685312 -300.67388744 47.7761968 -297.25 42.8125 C-296.7456543 42.06540771 -296.24130859 41.31831543 -295.72167969 40.54858398 C-292.02728869 35.14877528 -288.0660449 30.09909608 -283.734375 25.19140625 C-281.88786332 23.15493628 -281.88786332 23.15493628 -282.1875 20.125 C-288.25406942 16.08062039 -293.43250431 15.76871554 -300.55078125 16.09765625 C-307.13608939 16.3641138 -307.13608939 16.3641138 -310.1875 14.125 C-311.609375 12.42578125 -311.609375 12.42578125 -312.9375 10.4375 C-318.63159899 2.55446346 -326.40775604 -4.0229069 -336.1875 -5.875 C-349.86764488 -6.86725783 -361.13499395 -4.81370409 -371.1875 5.125 Z M-72.9375 252 C-78.1920945 259.29804791 -79.70618691 265.96022769 -80.5 274.890625 C-81.32324891 278.7636369 -82.23371368 280.48391093 -85.1875 283.125 C-88.6484375 283.91015625 -88.6484375 283.91015625 -92.5625 284.1875 C-98.30956907 284.6078768 -101.64506995 285.5017914 -106.1875 289.125 C-109.31726397 293.46628551 -109.57620473 296.89097068 -108.75 302.01171875 C-107.88245834 305.27102457 -106.7308785 306.90769567 -104.1875 309.125 C-97.16054717 312.51556529 -90.80474814 312.55180064 -83.08959961 312.51318359 C-81.79269699 312.51844055 -80.49579437 312.52369751 -79.15959167 312.52911377 C-75.62243148 312.54272062 -72.08553554 312.53751679 -68.54837108 312.52797651 C-64.83607858 312.52034693 -61.12380773 312.5274345 -57.41151428 312.53213501 C-51.1801449 312.53758232 -44.94888243 312.53042724 -38.7175293 312.51611328 C-31.52492714 312.49978151 -24.33258007 312.50508312 -17.13998407 312.5215925 C-10.95035818 312.53522811 -4.76080884 312.53711713 1.42882723 312.52927649 C5.11948001 312.52461227 8.81001306 312.52394066 12.50065804 312.53388596 C16.6152559 312.5442007 20.72941726 312.52988448 24.84399414 312.51318359 C26.05925781 312.51925629 27.27452148 312.52532898 28.52661133 312.53158569 C36.00781111 312.47535847 41.42685577 312.07658728 47.25 307 C49.45575478 302.9414112 49.67426718 299.64129839 48.8125 295.125 C46.61932373 290.8198762 45.25743321 289.62412586 40.69140625 288.046875 C38.39988667 287.40310361 36.09311638 286.81081681 33.7734375 286.27734375 C30.12087811 284.85583317 29.37015742 283.66325493 27.8125 280.125 C27.34554094 278.53474498 26.92812059 276.92906531 26.5625 275.3125 C24.98256956 269.79920106 22.30097771 265.72409416 17.8125 262.125 C12.48956274 259.28610013 8.47143801 258.7715505 2.625 259.0625 C-6.03244945 259.43821572 -6.03244945 259.43821572 -9.1875 257.125 C-10.609375 255.42578125 -10.609375 255.42578125 -11.9375 253.4375 C-18.03117689 245.02242239 -25.85814869 239.16071157 -36.1875 237.125 C-52.13713325 235.68624442 -62.17376673 240.74700613 -72.9375 252 Z M-300.89575195 295.76513672 C-303.66704048 298.54454391 -306.43008454 301.33182555 -309.1875 304.125 C-303.94291414 310.49090304 -298.16652678 316.26070612 -292.3125 322.0625 C-291.32789081 323.04208237 -290.343514 324.02189837 -289.359375 325.00195312 C-286.97101797 327.37860252 -284.58034788 329.75287356 -282.1875 332.125 C-277.0177279 327.7933881 -272.14561955 323.26587266 -267.375 318.5 C-266.70791016 317.84515625 -266.04082031 317.1903125 -265.35351562 316.515625 C-264.71478516 315.87882812 -264.07605469 315.24203125 -263.41796875 314.5859375 C-262.84457764 314.01665527 -262.27118652 313.44737305 -261.68041992 312.86083984 C-260.12265527 311.04960409 -259.15997901 309.29842663 -258.1875 307.125 C-259.14269531 306.25359375 -260.09789062 305.3821875 -261.08203125 304.484375 C-268.47892331 297.68614191 -275.55087096 290.78231245 -282.2109375 283.2578125 C-282.86320312 282.55398438 -283.51546875 281.85015625 -284.1875 281.125 C-288.88946802 281.125 -297.48767933 292.36697505 -300.89575195 295.76513672 Z M-326.97265625 320.84765625 C-328.47290632 322.38907956 -329.97291243 323.93074037 -331.47265625 325.47265625 C-333.59965714 327.55069022 -335.74596255 329.49602663 -337.99609375 331.43359375 C-342.26688976 335.13595106 -346.23137382 339.09160573 -350.1875 343.125 C-354.70725312 347.73302955 -359.29682227 352.13517797 -364.1875 356.34765625 C-367.67721278 359.44886585 -370.9196662 362.79334132 -374.1875 366.125 C-378.70725312 370.73302955 -383.29682227 375.13517797 -388.1875 379.34765625 C-391.67721278 382.44886585 -394.9196662 385.79334132 -398.1875 389.125 C-402.16940231 393.18467384 -406.1570545 397.1522121 -410.47265625 400.859375 C-413.17629066 403.18943313 -415.5336386 405.46012803 -417.625 408.375 C-418.09808594 409.01953125 -418.57117188 409.6640625 -419.05859375 410.328125 C-422.37865119 415.61264549 -421.68426051 422.13548758 -421.1875 428.125 C-419.50351181 434.41459443 -415.4573431 438.50422345 -410.1875 442.125 C-404.24233444 445.24621192 -397.99631173 445.69203505 -391.56469727 443.98120117 C-384.14593088 441.30916526 -378.66878528 434.74771194 -373.5 429.0625 C-372.10329493 427.55048118 -370.70483382 426.04008274 -369.3046875 424.53125 C-368.6147168 423.78746094 -367.92474609 423.04367187 -367.21386719 422.27734375 C-363.77212827 418.62163649 -360.20694142 415.09268695 -356.61254883 411.58764648 C-353.88499182 408.90660525 -351.31354817 406.15205937 -348.81640625 403.25390625 C-344.5154446 398.28245024 -339.83854438 393.72525809 -335.1484375 389.125 C-331.87049366 385.88502463 -328.69614439 382.61802931 -325.6875 379.125 C-321.43717188 374.19037869 -316.79491662 369.68246611 -312.1484375 365.125 C-306.4134022 359.45639368 -300.97560513 353.62416973 -296.1875 347.125 C-300.15365417 343.13420662 -304.12302111 339.14664801 -308.09545898 335.16210938 C-309.44759477 333.80493134 -310.79883353 332.446859 -312.14916992 331.08789062 C-314.08539891 329.13959127 -316.02478546 327.19448531 -317.96484375 325.25 C-318.57214828 324.63753418 -319.17945282 324.02506836 -319.80516052 323.39404297 C-321.24708408 321.95192511 -322.71466559 320.53553404 -324.1875 319.125 C-325.48103339 319.00926704 -325.48103339 319.00926704 -326.97265625 320.84765625 Z " fill="#000000" transform="translate(442.1875,46.875)"/>
<path d="M0 0 C2.4375 1.5 2.4375 1.5 4 4 C4.89776839 9.00548223 4.76303108 12.72828153 2.125 17.125 C-2.27686274 19.76611764 -5.99147509 20.01979818 -11 19 C-14.41421647 16.63095184 -15.64346607 15.02503506 -17 11.125 C-17 6.9569923 -16.15607248 4.57099504 -14 1 C-8.80675031 -2.29571615 -5.60979182 -2.43443796 0 0 Z " fill="#000000" transform="translate(212,85)"/>
<path d="M0 0 C3.125 1.875 3.125 1.875 5 5 C5.98876625 10.02622846 5.7769173 13.70513784 3.125 18.125 C-1.29486216 20.7769173 -4.97377154 20.98876625 -10 20 C-13.125 18.125 -13.125 18.125 -15 15 C-15.98876625 9.97377154 -15.7769173 6.29486216 -13.125 1.875 C-8.70513784 -0.7769173 -5.02622846 -0.98876625 0 0 Z " fill="#000000" transform="translate(367,190)"/>
<path d="M0 0 C3.125 1.875 3.125 1.875 5 5 C5.98876625 10.02622846 5.7769173 13.70513784 3.125 18.125 C-1.29486216 20.7769173 -4.97377154 20.98876625 -10 20 C-13.125 18.125 -13.125 18.125 -15 15 C-15.98876625 9.97377154 -15.7769173 6.29486216 -13.125 1.875 C-8.70513784 -0.7769173 -5.02622846 -0.98876625 0 0 Z " fill="#000000" transform="translate(317,190)"/>
<path d="M0 0 C3.125 1.875 3.125 1.875 5 5 C5.98876625 10.02622846 5.7769173 13.70513784 3.125 18.125 C-1.29486216 20.7769173 -4.97377154 20.98876625 -10 20 C-13.125 18.125 -13.125 18.125 -15 15 C-15.98876625 9.97377154 -15.7769173 6.29486216 -13.125 1.875 C-8.70513784 -0.7769173 -5.02622846 -0.98876625 0 0 Z " fill="#000000" transform="translate(267,190)"/>
</svg>
