<?xml version="1.0" encoding="UTF-8" standalone="no"?>
<!-- Created with Inkscape (http://www.inkscape.org/) -->

<svg
   version="1.1"
   id="svg2232"
   xml:space="preserve"
   width="682.66669"
   height="682.66669"
   viewBox="0 0 682.66669 682.66669"
   xmlns="http://www.w3.org/2000/svg"
   xmlns:svg="http://www.w3.org/2000/svg"><defs
     id="defs2236"><clipPath
       clipPathUnits="userSpaceOnUse"
       id="clipPath2258"><path
         d="M 0,512 H 512 V 0 H 0 Z"
         id="path2256" /></clipPath></defs><g
     id="g2238"
     transform="matrix(1.3333333,0,0,-1.3333333,0,682.66667)"><g
       id="g2240"
       transform="translate(409.5107,182.7505)"><path
         d="M 0,0 H -19.049 V -45.186 H 0"
         style="fill:none;stroke:#000000;stroke-width:15.118;stroke-linecap:round;stroke-linejoin:round;stroke-miterlimit:10;stroke-dasharray:none;stroke-opacity:1"
         id="path2242" /></g><g
       id="g2244"
       transform="translate(408.0937,160.1577)"><path
         d="M 0,0 H -17.632"
         style="fill:none;stroke:#000000;stroke-width:15.118;stroke-linecap:round;stroke-linejoin:round;stroke-miterlimit:10;stroke-dasharray:none;stroke-opacity:1"
         id="path2246" /></g><g
       id="g2248"
       transform="translate(301.7939,182.9775)"><path
         d="M 0,0 V -45.611"
         style="fill:none;stroke:#000000;stroke-width:15.118;stroke-linecap:round;stroke-linejoin:round;stroke-miterlimit:10;stroke-dasharray:none;stroke-opacity:1"
         id="path2250" /></g><g
       id="g2252"><g
         id="g2254"
         clip-path="url(#clipPath2258)"><g
           id="g2260"
           transform="translate(327.6172,170.0791)"><path
             d="m 0,0 c 0,-7.086 -6.037,-12.87 -13.124,-12.87 -3.543,0 -12.614,-0.056 -12.614,-0.056 0,0 -0.057,9.354 -0.057,12.926 0,2.948 -0.028,12.898 -0.028,12.898 h 12.699 C -6.037,12.898 0,7.115 0,0 Z"
             style="fill:none;stroke:#000000;stroke-width:15.118;stroke-linecap:round;stroke-linejoin:round;stroke-miterlimit:10;stroke-dasharray:none;stroke-opacity:1"
             id="path2262" /></g><g
           id="g2264"
           transform="translate(358.3457,182.9492)"><path
             d="M 0,0 V -45.583"
             style="fill:none;stroke:#000000;stroke-width:15.118;stroke-linecap:round;stroke-linejoin:round;stroke-miterlimit:10;stroke-dasharray:none;stroke-opacity:1"
             id="path2266" /></g><g
           id="g2268"
           transform="translate(471.2207,160.1577)"><path
             d="m 0,0 c 0,-12.189 -6.746,-21.828 -17.489,-22.026 -3.573,-0.057 -12.813,-0.113 -12.813,-0.113 0,0 -0.056,16.044 -0.056,22.196 0,5.046 -0.029,22.082 -0.029,22.082 h 12.53 C -6.094,22.139 0,12.189 0,0 Z"
             style="fill:none;stroke:#000000;stroke-width:15.118;stroke-linecap:round;stroke-linejoin:round;stroke-miterlimit:10;stroke-dasharray:none;stroke-opacity:1"
             id="path2270" /></g><g
           id="g2272"
           transform="translate(149.1475,179.1504)"><path
             d="m 0,0 c -3.628,2.466 -8.021,3.884 -12.728,3.884 -12.614,0 -22.818,-10.205 -22.818,-22.792 0,-12.586 10.204,-22.819 22.818,-22.819 5.103,0 9.298,1.701 12.501,4.536 0.653,0.595 1.276,1.218 1.843,1.927"
             style="fill:none;stroke:#000000;stroke-width:15.118;stroke-linecap:round;stroke-linejoin:round;stroke-miterlimit:10;stroke-dasharray:none;stroke-opacity:1"
             id="path2274" /></g><g
           id="g2276"
           transform="translate(238.042,182.9775)"><path
             d="m 0,0 v -31.409 c 0,-5.329 2.637,-8.929 7.144,-11.821 2.21,-1.389 4.96,-2.381 8.419,-2.381 2.976,0 5.47,0.68 7.511,1.701 5.273,2.664 8.618,6.661 8.618,12.557 V 0"
             style="fill:none;stroke:#000000;stroke-width:15.118;stroke-linecap:round;stroke-linejoin:round;stroke-miterlimit:10;stroke-dasharray:none;stroke-opacity:1"
             id="path2278" /></g><g
           id="g2280"
           transform="translate(210.0928,179.207)"><path
             d="m 0,0 c -3.628,2.438 -8.022,3.884 -12.728,3.884 -12.614,0 -22.819,-10.205 -22.819,-22.792 0,-12.614 10.205,-22.819 22.819,-22.819 5.103,0 9.298,1.701 12.501,4.536 0.652,0.595 1.276,1.218 1.843,1.899"
             style="fill:none;stroke:#000000;stroke-width:15.118;stroke-linecap:round;stroke-linejoin:round;stroke-miterlimit:10;stroke-dasharray:none;stroke-opacity:1"
             id="path2282" /></g><g
           id="g2284"
           transform="translate(86.3604,160.1577)"><path
             d="m 0,0 c 0,12.558 -10.233,22.792 -22.791,22.792 -12.558,0 -22.818,-10.234 -22.818,-22.792 0,-12.558 10.26,-22.791 22.818,-22.791 C -10.233,-22.791 0,-12.558 0,0 Z"
             style="fill:none;stroke:#000000;stroke-width:15.118;stroke-linecap:round;stroke-linejoin:round;stroke-miterlimit:10;stroke-dasharray:none;stroke-opacity:1"
             id="path2286" /></g><g
           id="g2288"
           transform="translate(50.1895,90.0264)"><path
             d="M 0,0 H 411.031"
             style="fill:none;stroke:#000000;stroke-width:15.118;stroke-linecap:round;stroke-linejoin:round;stroke-miterlimit:10;stroke-dasharray:none;stroke-opacity:1"
             id="path2290" /></g><g
           id="g2292"
           transform="translate(50.1895,236.6387)"><path
             d="M 0,0 H 411.031"
             style="fill:none;stroke:#000000;stroke-width:15.118;stroke-linecap:round;stroke-linejoin:round;stroke-miterlimit:10;stroke-dasharray:none;stroke-opacity:1"
             id="path2294" /></g><g
           id="g2296"
           transform="translate(255.9854,395.2988)"><path
             d="M 0,0 C 22.025,0 39.969,17.972 39.969,39.97 39.969,61.996 22.025,79.939 0,79.939 -21.996,79.939 -39.968,61.996 -39.968,39.97 -39.968,17.972 -21.996,0 0,0 Z"
             style="fill:none;stroke:#000000;stroke-width:15.118;stroke-linecap:round;stroke-linejoin:round;stroke-miterlimit:10;stroke-dasharray:none;stroke-opacity:1"
             id="path2298" /></g><g
           id="g2300"
           transform="translate(223.416,412.1089)"><path
             d="M 0,0 -171.78,-122.206"
             style="fill:none;stroke:#000000;stroke-width:15.118;stroke-linecap:round;stroke-linejoin:round;stroke-miterlimit:10;stroke-dasharray:none;stroke-opacity:1"
             id="path2302" /></g><g
           id="g2304"
           transform="translate(288.5557,412.1089)"><path
             d="M 0,0 171.809,-122.206"
             style="fill:none;stroke:#000000;stroke-width:15.118;stroke-linecap:round;stroke-linejoin:round;stroke-miterlimit:10;stroke-dasharray:none;stroke-opacity:1"
             id="path2306" /></g><g
           id="g2308"
           transform="translate(255.9854,435.3252)"><path
             d="M 0,0 V -0.113"
             style="fill:none;stroke:#000000;stroke-width:15.118;stroke-linecap:round;stroke-linejoin:round;stroke-miterlimit:10;stroke-dasharray:none;stroke-opacity:1"
             id="path2310" /></g><g
           id="g2312"
           transform="translate(240.9336,36.7617)"><path
             d="m 0,0 h -215.434 c -9.92,0 -18,8.107 -18,18 v 217.141 c 0,9.893 8.08,18.001 18,18.001 H 0 m 34.611,0 h 210.955 c 9.893,0 18,-8.108 18,-18.001 V 18 c 0,-9.893 -8.107,-18 -18,-18 H 34.611"
             style="fill:none;stroke:#000000;stroke-width:15.118;stroke-linecap:round;stroke-linejoin:round;stroke-miterlimit:10;stroke-dasharray:none;stroke-opacity:1"
             id="path2314" /></g></g></g></g></svg>
