<svg width="24" height="24" viewBox="0 0 24 24" fill="none" xmlns="http://www.w3.org/2000/svg">
<mask id="mask0_524_10712" style="mask-type:alpha" maskUnits="userSpaceOnUse" x="0" y="0" width="24" height="24">
<rect width="24" height="24" fill="#D9D9D9"/>
</mask>
<g mask="url(#mask0_524_10712)">
<path d="M2.25 18.7499V17.2499H21.75V18.7499H2.25ZM3.09225 12.7384L2.0615 12.1422L2.96925 10.5462H1.15375V9.35368H2.96925L2.0615 7.80768L3.09225 7.21143L4 8.75768L4.90775 7.21143L5.9385 7.80768L5.03075 9.35368H6.84625V10.5462H5.03075L5.9385 12.1422L4.90775 12.7384L4 11.1422L3.09225 12.7384ZM11.0922 12.7384L10.0615 12.1422L10.9692 10.5462H9.15375V9.35368H10.9692L10.0615 7.80768L11.0922 7.21143L12 8.75768L12.9077 7.21143L13.9385 7.80768L13.0307 9.35368H14.8462V10.5462H13.0307L13.9385 12.1422L12.9077 12.7384L12 11.1422L11.0922 12.7384ZM19.0922 12.7384L18.0615 12.1422L18.9692 10.5462H17.1537V9.35368H18.9692L18.0615 7.80768L19.0922 7.21143L20 8.75768L20.9077 7.21143L21.9385 7.80768L21.0307 9.35368H22.8462V10.5462H21.0307L21.9385 12.1422L20.9077 12.7384L20 11.1422L19.0922 12.7384Z" fill="#1C1B1F"/>
</g>
</svg>
