<svg width="24" height="24" viewBox="0 0 24 24" fill="none" xmlns="http://www.w3.org/2000/svg">
<path d="M15.8526 16.8189L15.8526 16.8189C14.7913 16.1378 13.4225 15.7499 12 15.7499C10.5775 15.7499 9.20867 16.1378 8.14744 16.8189L8.14288 16.8219L8.14287 16.8218C7.63508 17.1426 7.18827 17.5509 6.82325 18.0279C6.74136 18.136 6.63698 18.2251 6.51729 18.289C6.39598 18.3538 6.26191 18.3911 6.12459 18.3982C5.98726 18.4054 5.85004 18.3822 5.72265 18.3305C5.62588 18.2911 5.5366 18.2359 5.45836 18.1675C7.0754 19.8812 9.35371 20.965 11.8745 21C15.4895 21.0494 18.6302 18.9558 20.1051 15.9114M15.8526 16.8189L21 11.9999C21.0001 13.4007 20.6784 14.7279 20.1051 15.9114M15.8526 16.8189L15.857 16.8218C16.3649 17.1427 16.8118 17.5512 17.1768 18.0284C17.2587 18.1365 17.363 18.2256 17.4827 18.2895C17.6041 18.3543 17.7381 18.3915 17.8754 18.3987C18.0127 18.4059 18.15 18.3827 18.2774 18.3309C18.4046 18.2792 18.5189 18.2001 18.6122 18.0993L15.8526 16.8189ZM20.1051 15.9114C19.7218 16.7039 19.2207 17.4421 18.6125 18.099L21 11.9994C21.001 13.3657 20.6902 14.7018 20.1051 15.9114ZM13.2836 3.0909C12.9046 3.0362 12.5181 3.00533 12.1258 2.99986L13.2836 3.0909ZM13.2836 3.0909C12.8573 3.0299 12.4214 2.99884 11.978 2.99993C7.18285 3.01175 3.22379 6.86743 3.00811 11.5968C3.22261 6.77978 7.24183 2.93405 12.1255 2.99986L13.2836 3.0909Z" stroke="black" stroke-width="1.5"/>
<path d="M12 6.75C11.0756 6.75 10.2399 7.09641 9.64594 7.72594C9.05204 8.35547 8.75532 9.22594 8.82235 10.1602C8.95829 12 10.3838 13.5 12 13.5C13.6163 13.5 15.0389 12 15.1777 10.1606C15.247 9.23531 14.9527 8.37281 14.3489 7.73156C13.7527 7.09875 12.9183 6.75 12 6.75Z" stroke="black" stroke-width="1.25"/>
</svg>
