<svg width="24" height="24" viewBox="0 0 24 24" fill="none" xmlns="http://www.w3.org/2000/svg">
<path fill-rule="evenodd" clip-rule="evenodd" d="M12 3C7.02944 3 3 7.02944 3 12C3 14.3051 3.86659 16.4078 5.29176 18.0001C5.62097 16.8959 6.22078 15.8797 7.05025 15.0503C7.55517 14.5453 8.12928 14.1255 8.75029 13.8C7.67896 12.883 7 11.5208 7 10C7 7.23858 9.23858 5 12 5C14.7614 5 17 7.23858 17 10C17 11.5208 16.321 12.883 15.2497 13.8C15.8707 14.1255 16.4448 14.5453 16.9497 15.0503C17.7792 15.8797 18.379 16.8959 18.7082 18.0001C20.1334 16.4078 21 14.3051 21 12C21 7.02944 16.9706 3 12 3ZM16.9751 19.5011C16.8605 18.3582 16.3549 17.2838 15.5355 16.4645C14.5979 15.5268 13.3261 15 12 15C10.6739 15 9.40215 15.5268 8.46447 16.4645C7.64512 17.2838 7.13951 18.3582 7.02494 19.5011C8.45007 20.4482 10.1606 21 12 21C13.8394 21 15.5499 20.4482 16.9751 19.5011ZM12 13C13.6569 13 15 11.6569 15 10C15 8.34315 13.6569 7 12 7C10.3431 7 9 8.34315 9 10C9 11.6569 10.3431 13 12 13ZM1 12C1 5.92487 5.92487 1 12 1C18.0751 1 23 5.92487 23 12C23 18.0751 18.0751 23 12 23C5.92487 23 1 18.0751 1 12Z" fill="black"/>
</svg>
