<svg width="24" height="24" viewBox="0 0 24 24" fill="none" xmlns="http://www.w3.org/2000/svg">
<path d="M21 12C21 7.03125 16.9688 3 12 3C7.03125 3 3 7.03125 3 12C3 16.9688 7.03125 21 12 21C16.9688 21 21 16.9688 21 12Z" stroke="black" stroke-width="1.5" stroke-miterlimit="10"/>
<path d="M10.14 15.6771L15.5049 12.4361C15.5796 12.3906 15.6414 12.3265 15.6843 12.2502C15.7272 12.1738 15.7497 12.0877 15.7497 12.0002C15.7497 11.9126 15.7272 11.8265 15.6843 11.7502C15.6414 11.6738 15.5796 11.6098 15.5049 11.5642L10.14 8.3233C10.0631 8.27723 9.97534 8.25245 9.8857 8.25149C9.79607 8.25054 9.70779 8.27344 9.62993 8.31786C9.55206 8.36228 9.48742 8.42661 9.44262 8.50426C9.39782 8.5819 9.37449 8.67007 9.37501 8.75971V15.2406C9.37449 15.3303 9.39782 15.4185 9.44262 15.4961C9.48742 15.5737 9.55206 15.6381 9.62993 15.6825C9.70779 15.7269 9.79607 15.7498 9.8857 15.7489C9.97534 15.7479 10.0631 15.7231 10.14 15.6771Z" fill="black"/>
</svg>
