<svg height="447pt" viewBox="0 -29 447.00118 447" width="447pt" xmlns="http://www.w3.org/2000/svg"><path d="m48.5 388.289062h351c12.648438.023438 24.78125-5.007812 33.703125-13.976562 8.917969-8.964844 13.886719-21.125 13.796875-33.773438v-121c0-26.464843-21.03125-48.25-47.5-48.25h-14.652344l-128.835937-120.539062c2.300781-4.761719 3.492187-9.984375 3.488281-15.273438-.011719-19.605468-15.917969-35.4882808-35.523438-35.476562-19.605468.0117188-35.488281 15.917969-35.476562 35.523438-.003906 5.273437 1.1875 10.476562 3.488281 15.21875l-128.835937 120.546874h-14.652344c-26.46875 0-48.5 21.785157-48.5 48.25v121c0 26.46875 22.03125 47.75 48.5 47.75zm175.5-372.25c10.769531 0 19.5 8.730469 19.5 19.5 0 10.769532-8.730469 19.5-19.5 19.5s-19.5-8.730468-19.5-19.5c.011719-10.765624 8.734375-19.488281 19.5-19.5zm-21.972656 47.230469c12.84375 10.289063 31.113281 10.277344 43.945312-.03125l115.464844 108.050781h-274.875zm228.972656 277.019531c0 17.671876-14.328125 32-32 32h-351c-17.671875 0-32-14.328124-32-32v-121c0-17.671874 14.328125-32 32-32h351c17.671875 0 32 14.328126 32 32zm0 0"/><path d="m105.5 315.714844c3.898438 0 7.5-1.601563 7.5-4.800782v-23.625h7.101562l13.699219 26.363282c.964844 1.839844 2.929688 2.929687 5 2.78125 4.597657 0 9.800781-4.257813 9.800781-8.160156.007813-.644532-.164062-1.28125-.5-1.828126l-12.203124-22.117187c7-2.699219 12.101562-9.269531 12.101562-20.46875 0-16.300781-10.898438-21.570313-24.601562-21.570313h-20.699219c-1.289063.035157-2.515625.585938-3.398438 1.53125-.882812.941407-1.351562 2.199219-1.300781 3.492188v63.597656c0 3.203125 3.601562 4.804688 7.5 4.804688zm7.5-59.425782h10.398438c5.601562 0 9 2.5 9 9.5s-3.398438 9.5-9 9.5h-10.398438zm0 0"/><path d="m173.101562 315.289062h35.597657c3.300781 0 4.699219-3.199218 4.699219-6.398437 0-3.699219-1.699219-6.601563-4.699219-6.601563h-26.699219v-17h14.898438c3.300781 0 4.703124-3.199218 4.703124-5.898437 0-3.199219-1.703124-6.101563-4.703124-6.101563h-14.898438v-17h26.699219c3 0 4.699219-3.398437 4.699219-7.097656 0-3.203125-1.398438-6.902344-4.699219-6.902344h-35.597657c-3.402343 0-7.101562 1.921876-7.101562 5.121094v63.5c0 3.203125 3.699219 4.378906 7.101562 4.378906zm0 0"/><path d="m238 315.714844c3.898438 0 8-1.601563 8-4.800782v-34l18.898438 34.601563c1.902343 3.5 4.902343 4.199219 8.5 4.199219 3.902343 0 7.601562-1.601563 7.601562-4.800782v-63.597656c0-3.300781-3.601562-4.703125-7.5-4.703125s-7.5 1.402344-7.5 4.703125v34l-16.351562-30.902344c-3.796876-7.300781-6.074219-7.800781-11.671876-7.800781-3.902343 0-7.976562 1.5-7.976562 4.800781v63.5c0 3.199219 4.101562 4.800782 8 4.800782zm0 0"/><path d="m302.199219 256.289062h13.800781v54.625c0 3.199219 4.101562 4.800782 8 4.800782s8-1.601563 8-4.800782v-54.625h13.398438c3 0 4.703124-3.300781 4.703124-7.097656 0-3.300781-1.402343-6.902344-4.703124-6.902344h-43.199219c-3.300781 0-4.699219 3.601563-4.699219 6.902344 0 3.796875 1.699219 7.097656 4.699219 7.097656zm0 0"/></svg>