<?xml version="1.0" encoding="UTF-8"?>
<svg version="1.1" xmlns="http://www.w3.org/2000/svg" width="467" height="468">
<path d="M0 0 C154.11 0 308.22 0 467 0 C467 154.44 467 308.88 467 468 C312.89 468 158.78 468 0 468 C0 313.56 0 159.12 0 0 Z " fill="#3C56C3" transform="translate(0,0)"/>
<path d="M0 0 C1.00542343 -0.00960754 2.01084686 -0.01921509 3.04673767 -0.02911377 C4.6856472 -0.03548859 4.6856472 -0.03548859 6.35766602 -0.04199219 C7.48294205 -0.04769226 8.60821808 -0.05339233 9.76759338 -0.05926514 C12.15755266 -0.06872946 14.54752508 -0.07525478 16.9375 -0.07910156 C20.5654243 -0.08874453 24.19276692 -0.11972877 27.82055664 -0.15136719 C30.14542308 -0.15790354 32.47029356 -0.16315152 34.79516602 -0.16699219 C36.40674843 -0.18551239 36.40674843 -0.18551239 38.05088806 -0.20440674 C53.14767038 -0.16058081 66.94154345 5.11202968 77.91625977 15.61035156 C81.83875081 20.04181636 84.629 24.83769 87.17407227 30.16113281 C87.53500977 30.91523438 87.89594727 31.66933594 88.26782227 32.44628906 C92.22150896 42.82471665 91.80985272 57.03681544 88.04907227 67.34863281 C82.65912189 79.17321495 75.27875023 88.81140752 63.17407227 94.16113281 C62.51407227 94.16113281 61.85407227 94.16113281 61.17407227 94.16113281 C61.85469727 95.23105469 62.53532227 96.30097656 63.23657227 97.40332031 C69.41142794 107.13342874 75.51082341 116.90830114 81.54907227 126.72363281 C82.21422852 127.80435059 82.87938477 128.88506836 83.56469727 129.99853516 C84.83786783 132.0709526 86.10808815 134.14518611 87.375 136.22143555 C88.55953277 138.15697078 89.7541312 140.0863875 90.95947266 142.0090332 C91.50337646 142.8868042 92.04728027 143.7645752 92.60766602 144.66894531 C93.08776123 145.43480957 93.56785645 146.20067383 94.0625 146.98974609 C95.9765631 150.72874834 95.94474552 153.0275217 95.17407227 157.16113281 C93.15244383 160.2913962 91.70134579 161.76808448 88.04907227 162.70800781 C83.73652285 163.08681283 83.73652285 163.08681283 81.17407227 162.16113281 C75.58532768 156.61109144 71.77645351 149.93984204 67.73657227 143.22363281 C66.68795962 141.49650792 65.63702174 139.7708122 64.58595276 138.04518127 C63.86636623 136.86351148 63.14748821 135.68140995 62.42930603 134.49888611 C58.62941467 128.24697586 54.74929675 122.04629485 50.86157227 115.84863281 C49.63599227 113.89440611 48.41070887 111.93999336 47.18579102 109.98535156 C46.67491943 109.17155029 46.16404785 108.35774902 45.63769531 107.51928711 C44.17407227 105.16113281 44.17407227 105.16113281 42.94165039 102.40380859 C41.29567722 99.81730099 41.29567722 99.81730099 37.89599609 99.50170898 C36.55823358 99.46067797 35.21947303 99.44641199 33.88110352 99.45410156 C32.82206062 99.4314196 32.82206062 99.4314196 31.74162292 99.40827942 C29.48961618 99.36533792 27.23894793 99.35655948 24.98657227 99.34863281 C23.45854173 99.32549309 21.93054314 99.30012883 20.40258789 99.27246094 C16.65963074 99.20954647 12.91751162 99.17726151 9.17407227 99.16113281 C9.1807341 99.85160202 9.18739594 100.54207123 9.19425964 101.25346375 C9.26062873 108.43968042 9.30587965 115.62581002 9.33886719 122.81225586 C9.35225929 125.49432835 9.37313304 128.17618773 9.40039062 130.8581543 C9.43677837 134.71311532 9.45380026 138.56775014 9.46704102 142.42285156 C9.48252487 143.62197678 9.49800873 144.82110199 9.51396179 146.05656433 C9.51418839 147.17734879 9.51441498 148.29813324 9.51464844 149.45288086 C9.52131027 150.43661179 9.52797211 151.42034271 9.53483582 152.43388367 C9.10429586 155.68861858 8.10900912 157.52708335 6.17407227 160.16113281 C2.50112351 162.60976531 -0.55861738 162.99296719 -4.82592773 162.16113281 C-8.04547418 159.62659625 -9.53025208 158.04815977 -10.82592773 154.16113281 C-10.92552976 152.19601797 -10.96526566 150.22767735 -10.97309875 148.26005554 C-10.98025406 147.02772186 -10.98740936 145.79538818 -10.99478149 144.52571106 C-10.9976217 143.15768458 -11.00033344 141.78965783 -11.00292969 140.42163086 C-11.00919533 138.98266435 -11.01584222 137.54369945 -11.02284241 136.10473633 C-11.04387145 131.37745284 -11.05424298 126.65016907 -11.06420898 121.92285156 C-11.06825682 120.29502661 -11.07237375 118.66720182 -11.07655907 117.03937721 C-11.09560736 109.39234723 -11.10983975 101.74532689 -11.11817104 94.09827775 C-11.12794573 85.27226564 -11.15427269 76.44650416 -11.19467193 67.62058038 C-11.22483125 60.79755048 -11.23963969 53.97459245 -11.24295205 47.15149719 C-11.24530256 43.07675766 -11.25426299 39.00228602 -11.27941322 34.92761803 C-11.30269626 31.09358505 -11.30692651 27.2599963 -11.29665184 23.42591095 C-11.29615644 22.02065109 -11.3024784 20.61536934 -11.31620789 19.21017647 C-11.43841711 5.95827088 -11.43841711 5.95827088 -6.82592773 1.16113281 C-4.37194428 -0.06585891 -2.7440704 0.02114362 0 0 Z " fill="#FBF6EE" transform="translate(196.825927734375,142.8388671875)"/>
<path d="M0 0 C3.36695714 3.13619995 6.62168135 6.37168135 9.875 9.625 C10.48601562 10.18960938 11.09703125 10.75421875 11.7265625 11.3359375 C30.98391943 29.40561603 43.36795428 55.23896874 50.375 80.3125 C50.63055664 81.22088623 50.88611328 82.12927246 51.14941406 83.06518555 C52.55905074 88.41278404 53.13240875 93.09714706 52.875 98.625 C51.225 98.295 49.575 97.965 47.875 97.625 C47.66746094 96.55765625 47.45992188 95.4903125 47.24609375 94.390625 C42.36204622 70.32061596 33.50052063 46.86608376 17.875 27.625 C17.20339844 26.75359375 16.53179687 25.8821875 15.83984375 24.984375 C-8.13257636 -5.47060518 -42.83724891 -26.03093856 -81.125 -32.375 C-82.89037109 -32.68050781 -82.89037109 -32.68050781 -84.69140625 -32.9921875 C-109.71834715 -36.73981147 -135.22537562 -34.6515667 -159.125 -26.375 C-159.85283691 -26.12766113 -160.58067383 -25.88032227 -161.33056641 -25.62548828 C-181.2902141 -18.72986504 -198.42772334 -7.74735646 -213.8984375 6.59375 C-215.73542473 8.269598 -217.60232431 9.78895112 -219.5625 11.3125 C-225.30051715 16.1823538 -229.64258822 22.62996916 -234.125 28.625 C-234.77855469 29.49640625 -235.43210938 30.3678125 -236.10546875 31.265625 C-247.99890984 47.70415685 -256.52088867 66.37054839 -260.63232422 86.27050781 C-261.02565951 88.15025287 -261.45106969 90.02327708 -261.88720703 91.89355469 C-263.92940848 101.11057008 -264.52598676 109.77558095 -264.375 119.25 C-264.36984375 120.55195313 -264.3646875 121.85390625 -264.359375 123.1953125 C-264.25607423 136.10790821 -263.45191152 148.03853711 -259.9375 160.5 C-259.62216309 161.63622803 -259.30682617 162.77245605 -258.98193359 163.94311523 C-247.38113678 204.83782148 -221.27038791 239.06420121 -184.125 259.9375 C-173.01549625 265.99222057 -161.62607266 270.31850964 -149.5 273.875 C-148.2483606 274.2447998 -148.2483606 274.2447998 -146.97143555 274.62207031 C-134.33741756 278.17527269 -121.97318628 279.00283128 -108.9375 278.9375 C-108.1636496 278.93534485 -107.38979919 278.9331897 -106.59249878 278.93096924 C-95.2131824 278.88010506 -84.1744845 278.55780846 -73.125 275.625 C-72.31047363 275.41037109 -71.49594727 275.19574219 -70.65673828 274.97460938 C-59.21392118 271.87999763 -48.00621585 268.28622505 -37.5 262.72265625 C-36.87657715 262.39644287 -36.2531543 262.07022949 -35.61083984 261.73413086 C-33.84802736 260.80184312 -32.09929991 259.84306363 -30.3515625 258.8828125 C-26.72026786 257.46722306 -24.83929858 257.62629132 -21.125 258.625 C-22.45729098 262.62187295 -24.83045049 263.47112226 -28.375 265.3125 C-29.03395264 265.65772705 -29.69290527 266.0029541 -30.37182617 266.35864258 C-42.20121844 272.36646748 -54.81883081 276.86153171 -67.5625 280.5 C-68.2222583 280.69102295 -68.8820166 280.8820459 -69.56176758 281.07885742 C-81.57069482 284.31637846 -93.69210946 284.97494936 -106.05541992 284.94067383 C-108.42478687 284.93751694 -110.79289564 284.96106894 -113.16210938 284.98632812 C-126.79540934 285.04294548 -139.92240015 283.15250205 -153.0625 279.4375 C-154.16343994 279.1266748 -154.16343994 279.1266748 -155.28662109 278.80957031 C-196.111421 266.7036841 -230.94881465 236.97019278 -251.21484375 199.85546875 C-259.0310893 185.05651205 -264.93336744 169.07151003 -268.125 152.625 C-268.30232666 151.72523438 -268.47965332 150.82546875 -268.66235352 149.8984375 C-270.20318415 141.1650067 -270.46505317 132.60979002 -270.44067383 123.77001953 C-270.43752224 121.39178169 -270.4610398 119.01480334 -270.48632812 116.63671875 C-270.54523022 102.59088302 -268.61421566 89.13541374 -264.4375 75.6875 C-264.18403809 74.8610498 -263.93057617 74.03459961 -263.66943359 73.18310547 C-250.4426801 31.55096654 -220.63635769 -3.00330665 -182.125 -23.375 C-165.51907068 -31.52379821 -147.58017195 -37.59423779 -129.125 -39.375 C-128.24070313 -39.48457031 -127.35640625 -39.59414063 -126.4453125 -39.70703125 C-80.28233039 -44.7247467 -34.64000865 -31.09309287 0 0 Z " fill="#F0ECEC" transform="translate(341.125,100.375)"/>
<path d="M0 0 C42.83261986 0 42.83261986 0 53.875 10.3125 C60.2555299 17.20467616 62.39642685 24.76798656 62.2734375 33.9921875 C61.47759157 42.74649277 57.76496522 50.35183169 51 56 C43.30084712 60.78299196 35.84609403 63.3235725 26.7578125 63.1953125 C26.07581787 63.19329834 25.39382324 63.19128418 24.69116211 63.18920898 C22.16903862 63.17882757 19.64701181 63.15090558 17.125 63.125 C8.648125 63.063125 8.648125 63.063125 0 63 C0 42.21 0 21.42 0 0 Z " fill="#3E57C2" transform="translate(206,161)"/>
<path d="M0 0 C3.79259576 2.04216695 7.00344184 4.11780358 9 8 C9.5775294 13.1977646 8.88196356 16.62736563 6 21 C2.35554377 24.21569668 -1.15384158 24.52338267 -5.84765625 24.3515625 C-9.16391744 23.80988644 -10.79216435 22.4754521 -13 20 C-15.25313766 16.03018603 -15.62113081 12.50319834 -15 8 C-10.9279165 1.70450895 -7.64770687 -0.63730891 0 0 Z " fill="#F8F4EE" transform="translate(356,296)"/>
<path d="M0 0 C3.64314398 2.12516732 5.42598016 4.13906344 7 8 C7.34306516 12.91726732 6.67396013 16.19124784 3.5 20 C2.675 20.66 1.85 21.32 1 22 C0.67 22.33 0.34 22.66 0 23 C-4.81539887 23.54396172 -8.75730895 23.72490311 -13 21.25 C-16.52101476 17.2888584 -17.50674653 14.49289925 -17.39453125 9.03515625 C-16.68647817 5.38272403 -14.62465368 3.56216192 -12 1 C-8.29778834 -0.85110583 -4.04093083 -0.46454795 0 0 Z " fill="#FAF5EE" transform="translate(382,239)"/>
</svg>
