<svg width="24" height="24" viewBox="0 0 24 24" fill="none" xmlns="http://www.w3.org/2000/svg">
<path d="M16.5 6.75H21.75V12" stroke="black" stroke-width="1.5" stroke-linecap="round" stroke-linejoin="round"/>
<path d="M2.25 17.25L7.93922 11.5608C8.07851 11.4215 8.24388 11.3109 8.4259 11.2355C8.60791 11.1601 8.80299 11.1213 9 11.1213C9.19701 11.1213 9.39209 11.1601 9.5741 11.2355C9.75612 11.3109 9.92149 11.4215 10.0608 11.5608L12.4392 13.9392C12.5785 14.0785 12.7439 14.1891 12.9259 14.2645C13.1079 14.3399 13.303 14.3787 13.5 14.3787C13.697 14.3787 13.8921 14.3399 14.0741 14.2645C14.2561 14.1891 14.4215 14.0785 14.5608 13.9392L21 7.5" stroke="black" stroke-width="1.5" stroke-linecap="round" stroke-linejoin="round"/>
</svg>
