<svg width="24" height="24" viewBox="0 0 24 24" fill="none" xmlns="http://www.w3.org/2000/svg">
<path d="M17.5683 14.4743L21.4453 17.2033C21.5595 17.2541 21.6846 17.2755 21.8091 17.2657C21.9337 17.2558 22.0539 17.215 22.1586 17.1469C22.2634 17.0788 22.3495 16.9856 22.4092 16.8758C22.4688 16.766 22.5 16.643 22.5 16.518V7.48241C22.5 7.35745 22.4688 7.23446 22.4092 7.12463C22.3495 7.01481 22.2634 6.92161 22.1586 6.85353C22.0539 6.78544 21.9337 6.74461 21.8091 6.73476C21.6846 6.7249 21.5595 6.74633 21.4453 6.7971L17.5683 9.52616C17.47 9.59537 17.3897 9.68719 17.3343 9.7939C17.279 9.9006 17.25 10.0191 17.25 10.1393V13.8612C17.25 13.9814 17.279 14.0998 17.3343 14.2066C17.3897 14.3133 17.47 14.4051 17.5683 14.4743Z" stroke="black" stroke-width="1.5" stroke-linecap="round" stroke-linejoin="round"/>
<path d="M12.5625 18H3.9375C3.29161 17.9981 2.67269 17.7407 2.21598 17.284C1.75926 16.8273 1.50186 16.2084 1.5 15.5625V8.4375C1.50186 7.79161 1.75926 7.1727 2.21598 6.71598C2.67269 6.25926 3.29161 6.00186 3.9375 6H12.585C13.2249 6.00198 13.838 6.25705 14.2905 6.70952C14.743 7.16199 14.998 7.77511 15 8.415V15.5625C14.9981 16.2084 14.7407 16.8273 14.284 17.284C13.8273 17.7407 13.2084 17.9981 12.5625 18Z" stroke="black" stroke-width="1.5" stroke-miterlimit="10"/>
</svg>
