<svg fill="none" height="512" viewBox="0 0 24 24" width="512" xmlns="http://www.w3.org/2000/svg"><path d="m21.5609 10.7386-1.36-1.58001c-.26-.3-.47-.86-.47-1.26v-1.7c0-1.06-.87-1.93-1.93-1.93h-1.7c-.39 0-.96-.21-1.26-.47l-1.58-1.36c-.69-.59-1.82-.59-2.52 0l-1.57004 1.37c-.3.25-.87.46-1.26.46h-1.73c-1.06 0-1.93.87-1.93 1.93v1.71c0 .39-.21.95-.46 1.25l-1.35 1.59001c-.58.69-.58 1.81 0 2.5l1.35 1.59c.25.3.46.86.46 1.25v1.71c0 1.06.87 1.93 1.93 1.93h1.73c.39 0 .96.21 1.26.47l1.58004 1.36c.69.59 1.82.59 2.52 0l1.58-1.36c.3-.26.86-.47 1.26-.47h1.7c1.06 0 1.93-.87 1.93-1.93v-1.7c0-.39.21-.96.47-1.26l1.36-1.58c.58-.69.58-1.83-.01-2.52zm-5.4-.63-4.83 4.83c-.14.14-.33.22-.53.22s-.39-.08-.53-.22l-2.42004-2.42c-.29-.29-.29-.77 0-1.06s.77-.29 1.06 0l1.89004 1.89 4.3-4.30001c.29-.29.77-.29 1.06 0s.29.77 0 1.06001z" fill="rgb(0,0,0)"/></svg>