<?xml version="1.0"?>
<svg xmlns="http://www.w3.org/2000/svg" id="line_icons" data-name="line icons" viewBox="0 0 74 74" width="512" height="512"><path d="M54.928,64.46H19.822a7.451,7.451,0,0,1-7.442-7.442V10.772a7.451,7.451,0,0,1,7.442-7.443H54.928a7.451,7.451,0,0,1,7.442,7.443V57.018A7.451,7.451,0,0,1,54.928,64.46ZM19.822,5.329a5.449,5.449,0,0,0-5.442,5.443V57.018a5.448,5.448,0,0,0,5.442,5.442H54.928a5.448,5.448,0,0,0,5.442-5.442V10.772a5.449,5.449,0,0,0-5.442-5.443Z"/><path d="M45.749,64.453H29a1,1,0,0,1-1-1V43.806a9.374,9.374,0,0,1,18.748,0V63.453A1,1,0,0,1,45.749,64.453ZM30,62.453H44.749V43.806a7.374,7.374,0,0,0-14.748,0Z"/><path d="M37.369,59.416a4.543,4.543,0,1,1,4.543-4.543A4.548,4.548,0,0,1,37.369,59.416Zm0-7.086a2.543,2.543,0,1,0,2.543,2.543A2.546,2.546,0,0,0,37.369,52.33Z"/><path d="M37.369,48.214a4.543,4.543,0,1,1,4.543-4.543A4.548,4.548,0,0,1,37.369,48.214Zm0-7.086a2.543,2.543,0,1,0,2.543,2.543A2.546,2.546,0,0,0,37.369,41.128Z"/><path d="M47.378,68.9H27.6a1.9,1.9,0,0,1-1.9-1.9V63.453a1,1,0,0,1,1-1h21.58a1,1,0,0,1,1,1v3.542A1.9,1.9,0,0,1,47.378,68.9ZM27.7,66.9h19.58V64.453H27.7Z"/><path d="M43.733,73.329H41.556a2.291,2.291,0,0,1-2.289-2.288V67.9a1,1,0,0,1,1-1h4.754a1,1,0,0,1,1,1v3.144A2.291,2.291,0,0,1,43.733,73.329ZM41.267,68.9v2.144a.289.289,0,0,0,.289.288h2.177a.289.289,0,0,0,.288-.288V68.9Z"/><path d="M33.426,73.329H31.249a2.291,2.291,0,0,1-2.289-2.288V67.9a1,1,0,0,1,1-1h4.754a1,1,0,0,1,1,1v3.144A2.291,2.291,0,0,1,33.426,73.329ZM30.96,68.9v2.144a.289.289,0,0,0,.289.288h2.177a.289.289,0,0,0,.289-.288V68.9Z"/><path d="M55.7,15.844H43.14a1,1,0,0,1-1-1V10.31a1,1,0,0,1,1-1H55.7a1,1,0,0,1,1,1v4.535A1,1,0,0,1,55.7,15.844Zm-11.561-2H54.7V11.31H44.14Z"/></svg>
