<svg id="Layer_1" height="512" viewBox="0 0 1000 1000" width="512" xmlns="http://www.w3.org/2000/svg" data-name="Layer 1"><path d="m868.43 651.79h-153.86a16 16 0 0 1 -16-16v-104.7h-88.57a144.89 144.89 0 0 1 -222.54 0h-88.68v24.8a16 16 0 0 1 -16 16h-151.21a16 16 0 0 1 -16-16v-235.47a16 16 0 0 1 16-16h151.21a16 16 0 0 1 16 16v24.81h88.65a144.89 144.89 0 0 1 222.54 0h104.6c93.66 0 169.86 76.2 169.86 169.86v120.7a16 16 0 0 1 -16 16zm-137.86-32h121.86v-104.7c0-76-61.84-137.86-137.86-137.86h-112.34a16 16 0 0 1 -12.84-6.45 113 113 0 0 0 -181.38 0 16 16 0 0 1 -12.83 6.45h-112.4a16 16 0 0 1 -16-16v-24.81h-119.21v203.47h119.21v-24.8a16 16 0 0 1 16-16h112.4a16 16 0 0 1 12.82 6.44 113 113 0 0 0 181.38 0 16 16 0 0 1 12.84-6.44h112.35a16 16 0 0 1 16 16z"/><path d="m282.78 531.09a16 16 0 0 1 -16-16v-153.86a16 16 0 0 1 32 0v153.86a16 16 0 0 1 -16 16z"/><path d="m535.32 330.46a16 16 0 0 1 -16-16v-149.1a16 16 0 0 1 32 0v149.1a16 16 0 0 1 -16 16z"/><path d="m464.68 329.72a16 16 0 0 1 -16-16v-148.36a16 16 0 1 1 32 0v148.36a16 16 0 0 1 -16 16z"/><path d="m500 200.35a58 58 0 0 1 -42.57-18.53l-137.77 8.18a47.9 47.9 0 1 1 0-95.64l137.77 8.18a58.16 58.16 0 0 1 85.14 0l137.77-8.18.95 16-.95-16a47.9 47.9 0 1 1 0 95.64l-137.77-8.17a58 58 0 0 1 -42.57 18.52zm-35.23-51a16 16 0 0 1 13.36 7.19 26.15 26.15 0 0 0 43.74 0 16 16 0 0 1 14.31-7.16l146.06 8.67a15.9 15.9 0 1 0 0-31.75l-146.06 8.7a16 16 0 0 1 -14.31-7.17 26.17 26.17 0 0 0 -43.74 0 16 16 0 0 1 -14.31 7.17l-146.06-8.7a15.9 15.9 0 1 0 0 31.75l146.06-8.67z"/><path d="m788.34 916a101.82 101.82 0 0 1 -50.34-13.32c-22.13-12.61-35.69-31.55-39.2-54.77-4.57-30.24 7.44-67.59 35.7-111a436.17 436.17 0 0 1 42.2-54.62 16 16 0 0 1 23.36 0 436.17 436.17 0 0 1 42.2 54.62c28.26 43.42 40.27 80.77 35.7 111-3.51 23.22-17.07 42.16-39.21 54.77a101.75 101.75 0 0 1 -50.41 13.32zm0-198.47c-25.08 30.36-63.81 86.92-57.93 125.62 2.05 13.55 9.71 23.92 23.4 31.73a70.08 70.08 0 0 0 69.06 0c13.69-7.81 21.35-18.18 23.4-31.73 5.88-38.7-32.85-95.25-57.93-125.62z"/></svg>